%TF.GenerationSoftware,KiCad,Pcbnew,9.0.5*%
%TF.CreationDate,2025-10-29T22:43:50-06:00*%
%TF.ProjectId,arduino_pro_micro,61726475-696e-46f5-9f70-726f5f6d6963,rev?*%
%TF.SameCoordinates,Original*%
%TF.FileFunction,Copper,L1,Top*%
%TF.FilePolarity,Positive*%
%FSLAX46Y46*%
G04 Gerber Fmt 4.6, Leading zero omitted, Abs format (unit mm)*
G04 Created by KiCad (PCBNEW 9.0.5) date 2025-10-29 22:43:50*
%MOMM*%
%LPD*%
G01*
G04 APERTURE LIST*
G04 Aperture macros list*
%AMRoundRect*
0 Rectangle with rounded corners*
0 $1 Rounding radius*
0 $2 $3 $4 $5 $6 $7 $8 $9 X,Y pos of 4 corners*
0 Add a 4 corners polygon primitive as box body*
4,1,4,$2,$3,$4,$5,$6,$7,$8,$9,$2,$3,0*
0 Add four circle primitives for the rounded corners*
1,1,$1+$1,$2,$3*
1,1,$1+$1,$4,$5*
1,1,$1+$1,$6,$7*
1,1,$1+$1,$8,$9*
0 Add four rect primitives between the rounded corners*
20,1,$1+$1,$2,$3,$4,$5,0*
20,1,$1+$1,$4,$5,$6,$7,0*
20,1,$1+$1,$6,$7,$8,$9,0*
20,1,$1+$1,$8,$9,$2,$3,0*%
%AMRotRect*
0 Rectangle, with rotation*
0 The origin of the aperture is its center*
0 $1 length*
0 $2 width*
0 $3 Rotation angle, in degrees counterclockwise*
0 Add horizontal line*
21,1,$1,$2,0,0,$3*%
%AMFreePoly0*
4,1,13,0.528536,0.733536,0.530001,0.730000,0.530001,-0.730000,0.528536,-0.733536,0.525001,-0.735000,-1.475000,-0.735000,-1.478536,-0.733536,-1.480000,-0.730000,-1.480000,0.730000,-1.478536,0.733536,-1.475000,0.735000,0.525001,0.735000,0.528536,0.733536,0.528536,0.733536,$1*%
%AMFreePoly1*
4,1,13,1.478536,0.733536,1.480000,0.730000,1.480000,-0.730000,1.478536,-0.733536,1.475000,-0.735000,-0.525001,-0.735000,-0.528536,-0.733536,-0.530001,-0.730000,-0.530001,0.730000,-0.528536,0.733536,-0.525001,0.735000,1.475000,0.735000,1.478536,0.733536,1.478536,0.733536,$1*%
%AMFreePoly2*
4,1,127,0.653536,2.053536,0.655000,2.050000,0.655000,-0.799999,0.654994,-0.800238,0.652994,-0.842238,0.652950,-0.842707,0.649950,-0.863707,0.649903,-0.863981,0.645902,-0.883981,0.645864,-0.884158,0.640864,-0.905158,0.640789,-0.905437,0.634789,-0.925437,0.634692,-0.925729,0.627692,-0.944729,0.627642,-0.944857,0.619642,-0.964857,0.619519,-0.965140,0.610519,-0.984140,0.610371,-0.984428,
0.600371,-1.002428,0.600266,-1.002607,0.589266,-1.020607,0.589198,-1.020716,0.578198,-1.037716,0.577972,-1.038037,0.564972,-1.055037,0.564763,-1.055293,0.550763,-1.071293,0.550655,-1.071412,0.536655,-1.086412,0.536412,-1.086656,0.521412,-1.100656,0.521293,-1.100763,0.505294,-1.114763,0.505037,-1.114972,0.488037,-1.127972,0.487716,-1.128198,0.470716,-1.139198,0.470607,-1.139266,
0.452607,-1.150265,0.452428,-1.150371,0.434428,-1.160371,0.434140,-1.160519,0.415140,-1.169519,0.414857,-1.169642,0.394857,-1.177643,0.394730,-1.177692,0.375729,-1.184692,0.375437,-1.184789,0.355437,-1.190789,0.355159,-1.190864,0.334158,-1.195864,0.333981,-1.195903,0.313982,-1.199903,0.313707,-1.199950,0.292707,-1.202950,0.292238,-1.202994,0.250238,-1.204993,0.250000,-1.205000,
-0.250000,-1.205000,-0.250238,-1.204993,-0.292238,-1.202994,-0.292707,-1.202950,-0.313707,-1.199950,-0.313982,-1.199903,-0.333981,-1.195903,-0.334158,-1.195864,-0.355159,-1.190864,-0.355437,-1.190789,-0.375437,-1.184789,-0.375729,-1.184692,-0.394730,-1.177692,-0.394857,-1.177643,-0.414857,-1.169642,-0.415140,-1.169519,-0.434140,-1.160519,-0.434428,-1.160371,-0.452428,-1.150371,-0.452607,-1.150265,
-0.470607,-1.139266,-0.470716,-1.139198,-0.487716,-1.128198,-0.488037,-1.127972,-0.505037,-1.114972,-0.505294,-1.114763,-0.521293,-1.100763,-0.521412,-1.100656,-0.536412,-1.086656,-0.536655,-1.086412,-0.550655,-1.071412,-0.550763,-1.071293,-0.564763,-1.055293,-0.564972,-1.055037,-0.577972,-1.038037,-0.578198,-1.037716,-0.589198,-1.020716,-0.589266,-1.020607,-0.600266,-1.002607,-0.600371,-1.002428,
-0.610371,-0.984428,-0.610519,-0.984140,-0.619519,-0.965140,-0.619642,-0.964857,-0.627642,-0.944857,-0.627692,-0.944729,-0.634692,-0.925729,-0.634789,-0.925437,-0.640789,-0.905437,-0.640864,-0.905158,-0.645864,-0.884158,-0.645902,-0.883981,-0.649903,-0.863981,-0.649950,-0.863707,-0.652950,-0.842707,-0.652994,-0.842238,-0.654994,-0.800238,-0.655000,-0.799999,-0.655000,1.345001,-1.175000,1.345000,
-1.178536,1.346464,-1.180000,1.350000,-1.180000,2.050000,-1.178536,2.053536,-1.175000,2.055000,0.650000,2.055000,0.653536,2.053536,0.653536,2.053536,$1*%
%AMFreePoly3*
4,1,127,1.178536,2.053536,1.180000,2.050000,1.180000,1.350000,1.178536,1.346464,1.175000,1.345000,0.655000,1.345001,0.655000,-0.799999,0.654994,-0.800238,0.652994,-0.842238,0.652950,-0.842707,0.649950,-0.863707,0.649903,-0.863981,0.645902,-0.883981,0.645864,-0.884158,0.640864,-0.905158,0.640789,-0.905437,0.634789,-0.925437,0.634692,-0.925729,0.627692,-0.944729,0.627642,-0.944857,
0.619642,-0.964857,0.619519,-0.965140,0.610519,-0.984140,0.610371,-0.984428,0.600371,-1.002428,0.600266,-1.002607,0.589266,-1.020607,0.589198,-1.020716,0.578198,-1.037716,0.577972,-1.038037,0.564972,-1.055037,0.564763,-1.055293,0.550763,-1.071293,0.550655,-1.071412,0.536655,-1.086412,0.536412,-1.086656,0.521412,-1.100656,0.521293,-1.100763,0.505294,-1.114763,0.505037,-1.114972,
0.488037,-1.127972,0.487716,-1.128198,0.470716,-1.139198,0.470607,-1.139266,0.452607,-1.150265,0.452428,-1.150371,0.434428,-1.160371,0.434140,-1.160519,0.415140,-1.169519,0.414857,-1.169642,0.394857,-1.177643,0.394730,-1.177692,0.375729,-1.184692,0.375437,-1.184789,0.355437,-1.190789,0.355159,-1.190864,0.334158,-1.195864,0.333981,-1.195903,0.313982,-1.199903,0.313707,-1.199950,
0.292707,-1.202950,0.292238,-1.202994,0.250238,-1.204993,0.250000,-1.205000,-0.250000,-1.205000,-0.250238,-1.204993,-0.292238,-1.202994,-0.292707,-1.202950,-0.313707,-1.199950,-0.313982,-1.199903,-0.333981,-1.195903,-0.334158,-1.195864,-0.355159,-1.190864,-0.355437,-1.190789,-0.375437,-1.184789,-0.375729,-1.184692,-0.394730,-1.177692,-0.394857,-1.177643,-0.414857,-1.169642,-0.415140,-1.169519,
-0.434140,-1.160519,-0.434428,-1.160371,-0.452428,-1.150371,-0.452607,-1.150265,-0.470607,-1.139266,-0.470716,-1.139198,-0.487716,-1.128198,-0.488037,-1.127972,-0.505037,-1.114972,-0.505294,-1.114763,-0.521293,-1.100763,-0.521412,-1.100656,-0.536412,-1.086656,-0.536655,-1.086412,-0.550655,-1.071412,-0.550763,-1.071293,-0.564763,-1.055293,-0.564972,-1.055037,-0.577972,-1.038037,-0.578198,-1.037716,
-0.589198,-1.020716,-0.589266,-1.020607,-0.600266,-1.002607,-0.600371,-1.002428,-0.610371,-0.984428,-0.610519,-0.984140,-0.619519,-0.965140,-0.619642,-0.964857,-0.627642,-0.944857,-0.627692,-0.944729,-0.634692,-0.925729,-0.634789,-0.925437,-0.640789,-0.905437,-0.640864,-0.905158,-0.645864,-0.884158,-0.645902,-0.883981,-0.649903,-0.863981,-0.649950,-0.863707,-0.652950,-0.842707,-0.652994,-0.842238,
-0.654994,-0.800238,-0.655000,-0.799999,-0.655000,2.050000,-0.653536,2.053536,-0.650000,2.055000,1.175000,2.055000,1.178536,2.053536,1.178536,2.053536,$1*%
G04 Aperture macros list end*
%TA.AperFunction,SMDPad,CuDef*%
%ADD10RoundRect,0.160000X-0.197500X-0.160000X0.197500X-0.160000X0.197500X0.160000X-0.197500X0.160000X0*%
%TD*%
%TA.AperFunction,SMDPad,CuDef*%
%ADD11RoundRect,0.100000X-0.130000X-0.100000X0.130000X-0.100000X0.130000X0.100000X-0.130000X0.100000X0*%
%TD*%
%TA.AperFunction,SMDPad,CuDef*%
%ADD12RoundRect,0.100000X-0.217500X-0.100000X0.217500X-0.100000X0.217500X0.100000X-0.217500X0.100000X0*%
%TD*%
%TA.AperFunction,SMDPad,CuDef*%
%ADD13RoundRect,0.155000X0.259862X-0.040659X-0.040659X0.259862X-0.259862X0.040659X0.040659X-0.259862X0*%
%TD*%
%TA.AperFunction,SMDPad,CuDef*%
%ADD14RotRect,0.400000X1.750000X315.000000*%
%TD*%
%TA.AperFunction,ComponentPad*%
%ADD15FreePoly0,315.000000*%
%TD*%
%TA.AperFunction,ComponentPad*%
%ADD16FreePoly1,315.000000*%
%TD*%
%TA.AperFunction,ComponentPad*%
%ADD17FreePoly2,315.000000*%
%TD*%
%TA.AperFunction,ComponentPad*%
%ADD18FreePoly3,315.000000*%
%TD*%
%TA.AperFunction,SMDPad,CuDef*%
%ADD19RotRect,1.425000X2.500000X315.000000*%
%TD*%
%TA.AperFunction,SMDPad,CuDef*%
%ADD20RoundRect,0.160000X-0.252791X0.026517X0.026517X-0.252791X0.252791X-0.026517X-0.026517X0.252791X0*%
%TD*%
%TA.AperFunction,SMDPad,CuDef*%
%ADD21RotRect,2.000000X5.500000X135.000000*%
%TD*%
%TA.AperFunction,ComponentPad*%
%ADD22R,1.700000X1.700000*%
%TD*%
%TA.AperFunction,ComponentPad*%
%ADD23C,1.700000*%
%TD*%
%TA.AperFunction,ComponentPad*%
%ADD24RotRect,1.498000X1.498000X135.000000*%
%TD*%
%TA.AperFunction,ComponentPad*%
%ADD25C,1.498000*%
%TD*%
%TA.AperFunction,SMDPad,CuDef*%
%ADD26RotRect,1.500000X0.500000X45.000000*%
%TD*%
%TA.AperFunction,SMDPad,CuDef*%
%ADD27RotRect,0.500000X1.500000X45.000000*%
%TD*%
%TA.AperFunction,ViaPad*%
%ADD28C,0.600000*%
%TD*%
%TA.AperFunction,Conductor*%
%ADD29C,0.200000*%
%TD*%
G04 APERTURE END LIST*
D10*
%TO.P,R3,2*%
%TO.N,Net-(RX1-K)*%
X110650000Y-101600000D03*
%TO.P,R3,1*%
%TO.N,/RXLED*%
X109455000Y-101600000D03*
%TD*%
%TO.P,R2,2*%
%TO.N,Net-(TX1-K)*%
X110650000Y-100400000D03*
%TO.P,R2,1*%
%TO.N,/TXLED*%
X109455000Y-100400000D03*
%TD*%
D11*
%TO.P,TX1,1,K*%
%TO.N,Net-(TX1-K)*%
X111935000Y-100400000D03*
%TO.P,TX1,2,A*%
%TO.N,VCC*%
X112575000Y-100400000D03*
%TD*%
%TO.P,RX1,1,K*%
%TO.N,Net-(RX1-K)*%
X111935000Y-101600000D03*
%TO.P,RX1,2,A*%
%TO.N,VCC*%
X112575000Y-101600000D03*
%TD*%
D12*
%TO.P,PWR1,2,A*%
%TO.N,VCC*%
X112807500Y-99200000D03*
%TO.P,PWR1,1,K*%
%TO.N,Net-(PWR1-K)*%
X111992500Y-99200000D03*
%TD*%
D13*
%TO.P,C3,1*%
%TO.N,Net-(U1-UCAP)*%
X101802583Y-139802583D03*
%TO.P,C3,2*%
%TO.N,GND*%
X101000017Y-139000017D03*
%TD*%
D14*
%TO.P,J1,1,VCC*%
%TO.N,VCC*%
X104205238Y-149210085D03*
%TO.P,J1,2,D-*%
%TO.N,Net-(J1-D-)*%
X104664857Y-149669704D03*
%TO.P,J1,3,D+*%
%TO.N,Net-(J1-D+)*%
X105124477Y-150129323D03*
%TO.P,J1,4,ID*%
%TO.N,unconnected-(J1-ID-Pad4)*%
X105584096Y-150588943D03*
%TO.P,J1,5,GND*%
%TO.N,GND*%
X106043715Y-151048562D03*
D15*
%TO.P,J1,6,SHIELD*%
%TO.N,unconnected-(J1-SHIELD-Pad6)*%
X103554700Y-148269633D03*
D16*
%TO.P,J1,7,SHIELD__1*%
%TO.N,unconnected-(J1-SHIELD__1-Pad7)*%
X106984167Y-151699100D03*
D17*
%TO.P,J1,8,SHIELD__2*%
%TO.N,unconnected-(J1-SHIELD__2-Pad8)*%
X101200034Y-150200034D03*
D18*
%TO.P,J1,9,SHIELD__3*%
%TO.N,unconnected-(J1-SHIELD__3-Pad9)*%
X105053766Y-154053766D03*
D19*
%TO.P,J1,S1,SHIELD__6*%
%TO.N,unconnected-(J1-SHIELD__6-PadS1)*%
X102269533Y-151623086D03*
%TO.P,J1,S2,SHIELD__7*%
%TO.N,unconnected-(J1-SHIELD__7-PadS2)*%
X103630714Y-152984267D03*
%TD*%
D13*
%TO.P,C1,1*%
%TO.N,/XTAL1*%
X118499983Y-133999983D03*
%TO.P,C1,2*%
%TO.N,GND*%
X117697417Y-133197417D03*
%TD*%
D20*
%TO.P,R1,1*%
%TO.N,VCC*%
X96800004Y-136400004D03*
%TO.P,R1,2*%
%TO.N,/RESET*%
X97644996Y-137244996D03*
%TD*%
D21*
%TO.P,Y1,1,1*%
%TO.N,/XTAL2*%
X112391243Y-145858757D03*
%TO.P,Y1,2,2*%
%TO.N,/XTAL1*%
X119108757Y-139141243D03*
%TD*%
D22*
%TO.P,J2,1,Pin_1*%
%TO.N,/TX*%
X100000000Y-100000000D03*
D23*
%TO.P,J2,2,Pin_2*%
%TO.N,/RX*%
X100000000Y-102540000D03*
%TO.P,J2,3,Pin_3*%
%TO.N,GND*%
X100000000Y-105080000D03*
%TO.P,J2,4,Pin_4*%
X100000000Y-107620000D03*
%TO.P,J2,5,Pin_5*%
%TO.N,/D2*%
X100000000Y-110160000D03*
%TO.P,J2,6,Pin_6*%
%TO.N,/D3*%
X100000000Y-112700000D03*
%TO.P,J2,7,Pin_7*%
%TO.N,/D4*%
X100000000Y-115240000D03*
%TO.P,J2,8,Pin_8*%
%TO.N,/D5*%
X100000000Y-117780000D03*
%TO.P,J2,9,Pin_9*%
%TO.N,/D6*%
X100000000Y-120320000D03*
%TO.P,J2,10,Pin_10*%
%TO.N,/D7*%
X100000000Y-122860000D03*
%TO.P,J2,11,Pin_11*%
%TO.N,/D8*%
X100000000Y-125400000D03*
%TO.P,J2,12,Pin_12*%
%TO.N,/D9*%
X100000000Y-127940000D03*
%TD*%
D24*
%TO.P,RESET1,1*%
%TO.N,GND*%
X97196207Y-145596187D03*
D25*
%TO.P,RESET1,2*%
X92600013Y-140999993D03*
%TO.P,RESET1,3*%
%TO.N,/RESET*%
X100378187Y-142414207D03*
%TO.P,RESET1,4*%
X95781993Y-137818013D03*
%TD*%
D10*
%TO.P,R4,1*%
%TO.N,GND*%
X109455000Y-99200000D03*
%TO.P,R4,2*%
%TO.N,Net-(PWR1-K)*%
X110650000Y-99200000D03*
%TD*%
D26*
%TO.P,U1,1,PE6*%
%TO.N,/D7*%
X100499643Y-135743503D03*
%TO.P,U1,2,UVCC*%
%TO.N,VCC*%
X101065328Y-136309188D03*
%TO.P,U1,3,D-*%
%TO.N,Net-(J1-D-)*%
X101631014Y-136874874D03*
%TO.P,U1,4,D+*%
%TO.N,Net-(J1-D+)*%
X102196699Y-137440559D03*
%TO.P,U1,5,UGND*%
%TO.N,GND*%
X102762385Y-138006245D03*
%TO.P,U1,6,UCAP*%
%TO.N,Net-(U1-UCAP)*%
X103328070Y-138571930D03*
%TO.P,U1,7,VBUS*%
%TO.N,VCC*%
X103893755Y-139137615D03*
%TO.P,U1,8,PB0*%
%TO.N,/TXLED*%
X104459441Y-139703301D03*
%TO.P,U1,9,PB1*%
%TO.N,/D15*%
X105025126Y-140268986D03*
%TO.P,U1,10,PB2*%
%TO.N,/D16*%
X105590812Y-140834672D03*
%TO.P,U1,11,PB3*%
%TO.N,/D14*%
X106156497Y-141400357D03*
D27*
%TO.P,U1,12,PB7*%
%TO.N,unconnected-(U1-PB7-Pad12)*%
X108843503Y-141400357D03*
%TO.P,U1,13,~{RESET}*%
%TO.N,/RESET*%
X109409188Y-140834672D03*
%TO.P,U1,14,VCC*%
%TO.N,VCC*%
X109974874Y-140268986D03*
%TO.P,U1,15,GND*%
%TO.N,GND*%
X110540559Y-139703301D03*
%TO.P,U1,16,XTAL2*%
%TO.N,/XTAL2*%
X111106245Y-139137615D03*
%TO.P,U1,17,XTAL1*%
%TO.N,/XTAL1*%
X111671930Y-138571930D03*
%TO.P,U1,18,PD0*%
%TO.N,/D3*%
X112237615Y-138006245D03*
%TO.P,U1,19,PD1*%
%TO.N,/D2*%
X112803301Y-137440559D03*
%TO.P,U1,20,PD2*%
%TO.N,/RX*%
X113368986Y-136874874D03*
%TO.P,U1,21,PD3*%
%TO.N,/TX*%
X113934672Y-136309188D03*
%TO.P,U1,22,PD5*%
%TO.N,/RXLED*%
X114500357Y-135743503D03*
D26*
%TO.P,U1,23,GND__1*%
%TO.N,GND*%
X114500357Y-133056497D03*
%TO.P,U1,24,AVCC*%
%TO.N,VCC*%
X113934672Y-132490812D03*
%TO.P,U1,25,PD4*%
%TO.N,/D4*%
X113368986Y-131925126D03*
%TO.P,U1,26,PD6*%
%TO.N,unconnected-(U1-PD6-Pad26)*%
X112803301Y-131359441D03*
%TO.P,U1,27,PD7*%
%TO.N,/D6*%
X112237615Y-130793755D03*
%TO.P,U1,28,PB4*%
%TO.N,/D8*%
X111671930Y-130228070D03*
%TO.P,U1,29,PB5*%
%TO.N,/D9*%
X111106245Y-129662385D03*
%TO.P,U1,30,PB6*%
%TO.N,/D10*%
X110540559Y-129096699D03*
%TO.P,U1,31,PC6*%
%TO.N,/D5*%
X109974874Y-128531014D03*
%TO.P,U1,32,PC7*%
%TO.N,unconnected-(U1-PC7-Pad32)*%
X109409188Y-127965328D03*
%TO.P,U1,33,PE2*%
%TO.N,unconnected-(U1-PE2-Pad33)*%
X108843503Y-127399643D03*
D27*
%TO.P,U1,34,VCC__1*%
%TO.N,VCC*%
X106156497Y-127399643D03*
%TO.P,U1,35,GND__2*%
%TO.N,GND*%
X105590812Y-127965328D03*
%TO.P,U1,36,PF7*%
%TO.N,/D18*%
X105025126Y-128531014D03*
%TO.P,U1,37,PF6*%
%TO.N,/D19*%
X104459441Y-129096699D03*
%TO.P,U1,38,PF5*%
%TO.N,/D20*%
X103893755Y-129662385D03*
%TO.P,U1,39,PF4*%
%TO.N,/D21*%
X103328070Y-130228070D03*
%TO.P,U1,40,PF1*%
%TO.N,unconnected-(U1-PF1-Pad40)*%
X102762385Y-130793755D03*
%TO.P,U1,41,PF0*%
%TO.N,unconnected-(U1-PF0-Pad41)*%
X102196699Y-131359441D03*
%TO.P,U1,42,AREF*%
%TO.N,VCC*%
X101631014Y-131925126D03*
%TO.P,U1,43,GND__3*%
%TO.N,GND*%
X101065328Y-132490812D03*
%TO.P,U1,44,AVCC__1*%
%TO.N,VCC*%
X100499643Y-133056497D03*
%TD*%
D13*
%TO.P,C2,1*%
%TO.N,/XTAL2*%
X107168383Y-145276283D03*
%TO.P,C2,2*%
%TO.N,GND*%
X106365817Y-144473717D03*
%TD*%
D22*
%TO.P,J3,1,Pin_1*%
%TO.N,VCC*%
X115240000Y-100000000D03*
D23*
%TO.P,J3,2,Pin_2*%
%TO.N,GND*%
X115240000Y-102540000D03*
%TO.P,J3,3,Pin_3*%
%TO.N,/RESET*%
X115240000Y-105080000D03*
%TO.P,J3,4,Pin_4*%
%TO.N,VCC*%
X115240000Y-107620000D03*
%TO.P,J3,5,Pin_5*%
%TO.N,/D21*%
X115240000Y-110160000D03*
%TO.P,J3,6,Pin_6*%
%TO.N,/D20*%
X115240000Y-112700000D03*
%TO.P,J3,7,Pin_7*%
%TO.N,/D19*%
X115240000Y-115240000D03*
%TO.P,J3,8,Pin_8*%
%TO.N,/D18*%
X115240000Y-117780000D03*
%TO.P,J3,9,Pin_9*%
%TO.N,/D15*%
X115240000Y-120320000D03*
%TO.P,J3,10,Pin_10*%
%TO.N,/D14*%
X115240000Y-122860000D03*
%TO.P,J3,11,Pin_11*%
%TO.N,/D16*%
X115240000Y-125400000D03*
%TO.P,J3,12,Pin_12*%
%TO.N,/D10*%
X115240000Y-127940000D03*
%TD*%
D28*
%TO.N,GND*%
X99800000Y-147600000D03*
X95600000Y-141200000D03*
X98600000Y-138200000D03*
X114800000Y-141600000D03*
X104000000Y-112600000D03*
%TO.N,/D18*%
X104478700Y-119362900D03*
%TO.N,/D20*%
X103255100Y-123932700D03*
%TO.N,/D21*%
X115562600Y-129315500D03*
X101096000Y-130430800D03*
%TO.N,/RESET*%
X105377900Y-143423300D03*
X111748300Y-136579500D03*
X109173000Y-106213800D03*
%TO.N,/D14*%
X107782400Y-128720000D03*
%TO.N,/D15*%
X116149900Y-135260700D03*
X106050500Y-139500000D03*
X100911700Y-140466600D03*
X104399600Y-144242600D03*
%TO.N,/D19*%
X104287600Y-118519300D03*
%TO.N,/D10*%
X109431600Y-129784800D03*
%TO.N,/D16*%
X107647900Y-138144000D03*
%TO.N,/D6*%
X110786100Y-132343100D03*
%TO.N,/D4*%
X100855100Y-126483300D03*
X109093100Y-132329600D03*
%TO.N,/RX*%
X108860400Y-137825000D03*
X110173800Y-131214300D03*
X105909200Y-125761200D03*
X114241700Y-137818500D03*
%TO.N,/D2*%
X99992400Y-134258400D03*
X113344900Y-138681600D03*
%TO.N,/D3*%
X110961100Y-137509900D03*
%TO.N,/D9*%
X109497100Y-133091500D03*
%TO.N,/D5*%
X101657200Y-119492900D03*
X108301500Y-120644200D03*
%TO.N,/D8*%
X108949700Y-122553100D03*
X101248200Y-121540900D03*
%TO.N,/TX*%
X112366700Y-102318300D03*
%TO.N,Net-(J1-D+)*%
X97909900Y-142764000D03*
X105744100Y-145246700D03*
%TO.N,Net-(J1-D-)*%
X96716900Y-143686500D03*
X105333800Y-145986800D03*
%TO.N,GND*%
X108257000Y-102980300D03*
X106573800Y-147118800D03*
X117578900Y-134941600D03*
X112807100Y-134430700D03*
X100216800Y-131559700D03*
%TD*%
D29*
%TO.N,/RXLED*%
X114500400Y-135743500D02*
X113756700Y-134999800D01*
X115697800Y-131790500D02*
X115626900Y-131719600D01*
X115697800Y-131790500D02*
X115626900Y-131719600D01*
X112675100Y-125876000D02*
X112508800Y-125709700D01*
X112675100Y-125876000D02*
X112508800Y-125709700D01*
X113830900Y-134999800D02*
X113756700Y-134999800D01*
X113918400Y-134912300D02*
X113830900Y-134999800D01*
X114001000Y-134912300D02*
X113918400Y-134912300D01*
X114040300Y-134951600D02*
X114001000Y-134912300D01*
X114372900Y-134951600D02*
X114040300Y-134951600D01*
X115931700Y-133392800D02*
X114372900Y-134951600D01*
X115931700Y-132024400D02*
X115931700Y-133392800D01*
X115697800Y-131790500D02*
X115931700Y-132024400D01*
X109953100Y-102098100D02*
X109455000Y-101600000D01*
X109953100Y-123154000D02*
X109953100Y-102098100D01*
X112508800Y-125709700D02*
X109953100Y-123154000D01*
X115625000Y-131719600D02*
X115626900Y-131719600D01*
X114980100Y-131074700D02*
X115625000Y-131719600D01*
X114980100Y-130795300D02*
X114980100Y-131074700D01*
X114905400Y-130720600D02*
X114980100Y-130795300D01*
X114853100Y-130720600D02*
X114905400Y-130720600D01*
X114029700Y-129897200D02*
X114853100Y-130720600D01*
X114029700Y-129844900D02*
X114029700Y-129897200D01*
X112675100Y-128490300D02*
X114029700Y-129844900D01*
X112675100Y-125876000D02*
X112675100Y-128490300D01*
%TO.N,Net-(RX1-K)*%
X111935000Y-101600000D02*
X110650000Y-101600000D01*
%TO.N,Net-(TX1-K)*%
X111935000Y-100400000D02*
X110650000Y-100400000D01*
%TO.N,/TXLED*%
X104459400Y-139703300D02*
X105203100Y-138959600D01*
X105203100Y-130448500D02*
X105203100Y-138959600D01*
X107428600Y-128223000D02*
X105203100Y-130448500D01*
X107428600Y-106784100D02*
X107428600Y-128223000D01*
X108858700Y-105354000D02*
X107428600Y-106784100D01*
X108858700Y-102283600D02*
X108858700Y-105354000D01*
X108792100Y-102217000D02*
X108858700Y-102283600D01*
X108792100Y-101062900D02*
X108792100Y-102217000D01*
X109455000Y-100400000D02*
X108792100Y-101062900D01*
%TO.N,Net-(PWR1-K)*%
X111992500Y-99200000D02*
X110650000Y-99200000D01*
%TO.N,/D18*%
X104427000Y-119414600D02*
X104478700Y-119362900D01*
X104427000Y-127932900D02*
X104427000Y-119414600D01*
X105025100Y-128531000D02*
X104427000Y-127932900D01*
%TO.N,/D20*%
X103255100Y-128813500D02*
X103255100Y-123932700D01*
X103150000Y-128918600D02*
X103255100Y-128813500D01*
X103893800Y-129662400D02*
X103150000Y-128918600D01*
X103255100Y-123932700D02*
X103255100Y-123741500D01*
X103255100Y-123741500D02*
X103255100Y-123932700D01*
%TO.N,/D21*%
X102042400Y-129484400D02*
X102584400Y-129484400D01*
X101096000Y-130430800D02*
X102042400Y-129484400D01*
X103328100Y-130228100D02*
X102584400Y-129484400D01*
X116400400Y-128477700D02*
X115562600Y-129315500D01*
X116400400Y-111320400D02*
X116400400Y-128477700D01*
X115240000Y-110160000D02*
X116400400Y-111320400D01*
X115562600Y-129315500D02*
X115585200Y-129292900D01*
X115585200Y-129292900D02*
X115562600Y-129315500D01*
%TO.N,/RESET*%
X97072000Y-137818000D02*
X97645000Y-137245000D01*
X95782000Y-137818000D02*
X97072000Y-137818000D01*
X113628000Y-130063500D02*
X114334200Y-130769700D01*
X113628000Y-130011300D02*
X113628000Y-130063500D01*
X109551400Y-125934700D02*
X113628000Y-130011300D01*
X109551400Y-122303900D02*
X109551400Y-125934700D01*
X109173100Y-121925600D02*
X109551400Y-122303900D01*
X109173000Y-121925600D02*
X109173100Y-121925600D01*
X109173000Y-106213800D02*
X109173000Y-121925600D01*
X111748300Y-136428100D02*
X111748300Y-136579500D01*
X113760700Y-134415700D02*
X111748300Y-136428100D01*
X114041400Y-134415700D02*
X113760700Y-134415700D01*
X115520400Y-132936700D02*
X114041400Y-134415700D01*
X115520400Y-132306400D02*
X115520400Y-132936700D01*
X114578400Y-131364400D02*
X115520400Y-132306400D01*
X114578400Y-131013900D02*
X114578400Y-131364400D01*
X114334200Y-130769700D02*
X114578400Y-131013900D01*
X108837000Y-140262500D02*
X109409200Y-140834700D01*
X108494000Y-140262500D02*
X108837000Y-140262500D01*
X107834700Y-140921800D02*
X108494000Y-140262500D01*
X107834700Y-141227000D02*
X107834700Y-140921800D01*
X105638400Y-143423300D02*
X107834700Y-141227000D01*
X105377900Y-143423300D02*
X105638400Y-143423300D01*
%TO.N,/D14*%
X107782400Y-137371200D02*
X107782400Y-128720000D01*
X108254200Y-137843000D02*
X107782400Y-137371200D01*
X108254200Y-139302700D02*
X108254200Y-137843000D01*
X106156500Y-141400400D02*
X108254200Y-139302700D01*
%TO.N,/D15*%
X105794100Y-139500000D02*
X106050500Y-139500000D01*
X105025100Y-140269000D02*
X105794100Y-139500000D01*
X100911700Y-140754700D02*
X104399600Y-144242600D01*
X100911700Y-140466600D02*
X100911700Y-140754700D01*
X104399600Y-144242600D02*
X104216700Y-144059700D01*
X104216700Y-144059700D02*
X104399600Y-144242600D01*
X116149900Y-135260700D02*
X116149900Y-137386200D01*
X116149900Y-137386200D02*
X116149900Y-135260700D01*
X116771500Y-134639100D02*
X116149900Y-135260700D01*
X116771500Y-131450700D02*
X116771500Y-134639100D01*
X114088300Y-128767500D02*
X116771500Y-131450700D01*
X114088300Y-121471700D02*
X114088300Y-128767500D01*
X115240000Y-120320000D02*
X114088300Y-121471700D01*
%TO.N,/D19*%
X104459400Y-129096700D02*
X103715700Y-128352900D01*
X104003700Y-128064900D02*
X103715700Y-128352900D01*
X104003700Y-127989900D02*
X104003700Y-128064900D01*
X103837400Y-127823600D02*
X104003700Y-127989900D01*
X103837400Y-127823600D02*
X104003700Y-127989900D01*
X104288700Y-118518200D02*
X104287600Y-118519300D01*
X103837400Y-118969500D02*
X104288700Y-118518200D01*
X103837400Y-123281700D02*
X103837400Y-118969500D01*
X103892700Y-123337000D02*
X103837400Y-123281700D01*
X103892700Y-127768300D02*
X103892700Y-123337000D01*
X103837400Y-127823600D02*
X103892700Y-127768300D01*
%TO.N,/D10*%
X110540600Y-129096700D02*
X109796900Y-129840400D01*
X109741300Y-129784800D02*
X109431600Y-129784800D01*
X109796900Y-129840400D02*
X109741300Y-129784800D01*
%TO.N,/D16*%
X107647900Y-138777600D02*
X107647900Y-138144000D01*
X105590800Y-140834700D02*
X107647900Y-138777600D01*
%TO.N,/D7*%
X98823700Y-134067600D02*
X100499600Y-135743500D01*
X98823700Y-124036300D02*
X98823700Y-134067600D01*
X100000000Y-122860000D02*
X98823700Y-124036300D01*
%TO.N,/D6*%
X111494000Y-131537500D02*
X111494000Y-131537400D01*
X111494000Y-131635200D02*
X111494000Y-131537500D01*
X110786100Y-132343100D02*
X111494000Y-131635200D01*
X112237600Y-130793800D02*
X111494000Y-131537400D01*
%TO.N,/D4*%
X111599200Y-133694900D02*
X113369000Y-131925100D01*
X109179900Y-133694900D02*
X111599200Y-133694900D01*
X108860400Y-133375400D02*
X109179900Y-133694900D01*
X108860400Y-132562300D02*
X108860400Y-133375400D01*
X109093100Y-132329600D02*
X108860400Y-132562300D01*
X101850000Y-125488400D02*
X100855100Y-126483300D01*
X101850000Y-121246400D02*
X101850000Y-125488400D01*
X101650000Y-121046400D02*
X101850000Y-121246400D01*
X101650000Y-120336500D02*
X101650000Y-121046400D01*
X100246400Y-118932900D02*
X101650000Y-120336500D01*
X99465000Y-118932900D02*
X100246400Y-118932900D01*
X98848300Y-118316200D02*
X99465000Y-118932900D01*
X98848300Y-116391700D02*
X98848300Y-118316200D01*
X100000000Y-115240000D02*
X98848300Y-116391700D01*
%TO.N,/RX*%
X105909200Y-108449200D02*
X100000000Y-102540000D01*
X105909200Y-125761200D02*
X105909200Y-108449200D01*
X114241700Y-137747600D02*
X114241700Y-137818500D01*
X113369000Y-136874900D02*
X114241700Y-137747600D01*
X114241700Y-137818500D02*
X114241700Y-137783000D01*
X114241700Y-137783000D02*
X114241700Y-137818500D01*
X110173800Y-131214300D02*
X109715900Y-131214300D01*
X109715900Y-131214300D02*
X110173800Y-131214300D01*
X108860400Y-137825000D02*
X108860400Y-137787800D01*
X108860400Y-137787800D02*
X108860400Y-137825000D01*
X105909200Y-125761200D02*
X105909200Y-126154700D01*
X105909200Y-126154700D02*
X105909200Y-125761200D01*
X109340400Y-131214300D02*
X110173800Y-131214300D01*
X108458700Y-132096000D02*
X109340400Y-131214300D01*
X108458700Y-137423300D02*
X108458700Y-132096000D01*
X108860400Y-137825000D02*
X108458700Y-137423300D01*
%TO.N,/D2*%
X113344900Y-138386500D02*
X113547100Y-138184300D01*
X113344900Y-138681600D02*
X113344900Y-138386500D01*
X112803300Y-137440600D02*
X113547100Y-138184300D01*
X102258900Y-112418900D02*
X100000000Y-110160000D01*
X102258900Y-119742100D02*
X102258900Y-112418900D01*
X102051700Y-119949300D02*
X102258900Y-119742100D01*
X102051700Y-120880100D02*
X102051700Y-119949300D01*
X102251700Y-121080100D02*
X102051700Y-120880100D01*
X102251700Y-127387700D02*
X102251700Y-121080100D01*
X99482400Y-130157000D02*
X102251700Y-127387700D01*
X99482400Y-133748400D02*
X99482400Y-130157000D01*
X99992400Y-134258400D02*
X99482400Y-133748400D01*
%TO.N,/D3*%
X111246600Y-137509900D02*
X110961100Y-137509900D01*
X111494000Y-137262500D02*
X111246600Y-137509900D01*
X112237600Y-138006200D02*
X111494000Y-137262500D01*
%TO.N,/D9*%
X111106200Y-129662400D02*
X110362600Y-130406000D01*
X110657100Y-130700600D02*
X110362600Y-130406000D01*
X110657100Y-130731400D02*
X110657100Y-130700600D01*
X110790400Y-130864700D02*
X110657100Y-130731400D01*
X110790400Y-131469200D02*
X110790400Y-130864700D01*
X109694800Y-132564800D02*
X110790400Y-131469200D01*
X109694800Y-132578800D02*
X109694800Y-132564800D01*
X109497100Y-132776500D02*
X109694800Y-132578800D01*
X109497100Y-133091500D02*
X109497100Y-132776500D01*
%TO.N,/D5*%
X100000000Y-117835700D02*
X101657200Y-119492900D01*
X100000000Y-117780000D02*
X100000000Y-117835700D01*
X108301500Y-120644200D02*
X108052400Y-120893300D01*
X108052400Y-120893300D02*
X108301500Y-120644200D01*
X101657200Y-119492900D02*
X101278200Y-119113900D01*
X101278200Y-119113900D02*
X101657200Y-119492900D01*
X107834700Y-121111000D02*
X108301500Y-120644200D01*
X107834700Y-127921500D02*
X107834700Y-121111000D01*
X107834800Y-127921500D02*
X107834700Y-127921500D01*
X108909300Y-128996000D02*
X107834800Y-127921500D01*
X109509900Y-128996000D02*
X108909300Y-128996000D01*
X109974900Y-128531000D02*
X109509900Y-128996000D01*
%TO.N,/D8*%
X108949700Y-125917800D02*
X108949700Y-122553100D01*
X112415600Y-129383700D02*
X108949700Y-125917800D01*
X112415600Y-129484400D02*
X112415600Y-129383700D01*
X111671900Y-130228100D02*
X112415600Y-129484400D01*
X101248200Y-124151800D02*
X100000000Y-125400000D01*
X101248200Y-121540900D02*
X101248200Y-124151800D01*
%TO.N,/TX*%
X113934700Y-136309200D02*
X114678400Y-137052800D01*
X116099500Y-131624200D02*
X116014600Y-131539300D01*
X116099500Y-131624200D02*
X116014600Y-131539300D01*
X114970400Y-136760800D02*
X114678400Y-137052800D01*
X114979700Y-136760800D02*
X114970400Y-136760800D01*
X115548200Y-136192300D02*
X114979700Y-136760800D01*
X115548200Y-135011600D02*
X115548200Y-136192300D01*
X115606700Y-134953100D02*
X115548200Y-135011600D01*
X115606700Y-134285800D02*
X115606700Y-134953100D01*
X116333400Y-133559100D02*
X115606700Y-134285800D01*
X116333400Y-131858100D02*
X116333400Y-133559100D01*
X116099500Y-131624200D02*
X116333400Y-131858100D01*
X116014600Y-131531500D02*
X116014600Y-131539300D01*
X115381800Y-130898700D02*
X116014600Y-131531500D01*
X115381800Y-130629000D02*
X115381800Y-130898700D01*
X115071700Y-130318900D02*
X115381800Y-130629000D01*
X115019400Y-130318900D02*
X115071700Y-130318900D01*
X114431400Y-129730900D02*
X115019400Y-130318900D01*
X114431400Y-129678600D02*
X114431400Y-129730900D01*
X113686600Y-128933800D02*
X114431400Y-129678600D01*
X113686600Y-120980500D02*
X113686600Y-128933800D01*
X112366700Y-119660600D02*
X113686600Y-120980500D01*
X112366700Y-102318300D02*
X112366700Y-119660600D01*
%TO.N,VCC*%
X104205200Y-149210100D02*
X105037300Y-148378000D01*
X112575000Y-101600000D02*
X112575000Y-100400000D01*
X115240000Y-100000000D02*
X114088300Y-100000000D01*
X112807500Y-100000000D02*
X114088300Y-100000000D01*
X112807500Y-100167500D02*
X112807500Y-100000000D01*
X112575000Y-100400000D02*
X112807500Y-100167500D01*
X103521900Y-139509500D02*
X103150000Y-139881400D01*
X103521900Y-139509500D02*
X103893800Y-139137600D01*
X101631000Y-131925100D02*
X102374700Y-132668800D01*
X100499600Y-133056500D02*
X101243300Y-133800200D01*
X106156500Y-127399600D02*
X106900200Y-128143300D01*
X109974900Y-140269000D02*
X109231200Y-139525300D01*
X112807500Y-100000000D02*
X112807500Y-99200000D01*
X101313000Y-133800200D02*
X101243300Y-133800200D01*
X101313000Y-133869900D02*
X101313000Y-133800200D01*
X101560400Y-134117300D02*
X101313000Y-133869900D01*
X101560400Y-135316800D02*
X101560400Y-134117300D01*
X101809100Y-135565400D02*
X101560400Y-135316800D01*
X101313000Y-133730500D02*
X102374700Y-132668800D01*
X101313000Y-133800200D02*
X101313000Y-133730500D01*
X112575000Y-101675800D02*
X112575000Y-101600000D01*
X112575100Y-101675800D02*
X112575000Y-101675800D01*
X112968400Y-102069100D02*
X112575100Y-101675800D01*
X112968400Y-105348400D02*
X112968400Y-102069100D01*
X115240000Y-107620000D02*
X112968400Y-105348400D01*
X106900200Y-128143300D02*
X102374700Y-132668800D01*
X101437200Y-135937300D02*
X101809100Y-135565400D01*
X101437200Y-135937300D02*
X101065300Y-136309200D01*
X99668700Y-136400000D02*
X96800000Y-136400000D01*
X100321600Y-137052900D02*
X99668700Y-136400000D01*
X101065300Y-136309200D02*
X100321600Y-137052900D01*
X104345100Y-134639200D02*
X102374700Y-132668800D01*
X104345100Y-138101600D02*
X104345100Y-134639200D01*
X104637500Y-138393900D02*
X104345100Y-138101600D01*
X113934700Y-132490800D02*
X113191000Y-133234500D01*
X103150000Y-139881400D02*
X105609500Y-142340900D01*
X103893800Y-139137600D02*
X104637500Y-138393900D01*
X113130000Y-133234500D02*
X113191000Y-133234500D01*
X109462100Y-136902400D02*
X113130000Y-133234500D01*
X109462100Y-138074200D02*
X109462100Y-136902400D01*
X109231200Y-138305100D02*
X109462100Y-138074200D01*
X109231200Y-139525300D02*
X109231200Y-138305100D01*
X107010900Y-128032600D02*
X106900200Y-128143300D01*
X107010900Y-100632000D02*
X107010900Y-128032600D01*
X109098200Y-98544700D02*
X107010900Y-100632000D01*
X112268500Y-98544700D02*
X109098200Y-98544700D01*
X112807500Y-99083700D02*
X112268500Y-98544700D01*
X112807500Y-99200000D02*
X112807500Y-99083700D01*
X104732100Y-143218300D02*
X105609500Y-142340900D01*
X104732100Y-143724200D02*
X104732100Y-143218300D01*
X105001300Y-143993400D02*
X104732100Y-143724200D01*
X105001300Y-144491800D02*
X105001300Y-143993400D01*
X104732100Y-144761000D02*
X105001300Y-144491800D01*
X104732100Y-146235900D02*
X104732100Y-144761000D01*
X104764600Y-146268400D02*
X104732100Y-146235900D01*
X104764600Y-148105300D02*
X104764600Y-146268400D01*
X105037300Y-148378000D02*
X104764600Y-148105300D01*
X108663200Y-139525300D02*
X109231200Y-139525300D01*
X107433000Y-140755500D02*
X108663200Y-139525300D01*
X107433000Y-140967700D02*
X107433000Y-140755500D01*
X105957900Y-142442800D02*
X107433000Y-140967700D01*
X105711400Y-142442800D02*
X105957900Y-142442800D01*
X105609500Y-142340900D02*
X105711400Y-142442800D01*
%TO.N,Net-(J1-D+)*%
X105124500Y-150129300D02*
X105956600Y-149297200D01*
X102196700Y-137440600D02*
X101453000Y-138184300D01*
X101452900Y-138184300D02*
X101453000Y-138184300D01*
X100818700Y-138184300D02*
X101452900Y-138184300D01*
X97909900Y-141093100D02*
X100818700Y-138184300D01*
X97909900Y-142764000D02*
X97909900Y-141093100D01*
X105936600Y-145439200D02*
X105744100Y-145246700D01*
X105936600Y-149277300D02*
X105936600Y-145439200D01*
X105956600Y-149297200D02*
X105936600Y-149277300D01*
X105744100Y-145246700D02*
X105744100Y-145248300D01*
X105744100Y-145248300D02*
X105744100Y-145246700D01*
%TO.N,Net-(J1-D-)*%
X96716900Y-141699800D02*
X96716900Y-143686500D01*
X100798100Y-137618600D02*
X96716900Y-141699800D01*
X100887300Y-137618600D02*
X100798100Y-137618600D01*
X105486000Y-148826700D02*
X105497000Y-148837600D01*
X105486000Y-146139000D02*
X105486000Y-148826700D01*
X105333800Y-145986800D02*
X105486000Y-146139000D01*
X101631000Y-136874900D02*
X100887300Y-137618600D01*
X104664900Y-149669700D02*
X105497000Y-148837600D01*
%TO.N,Net-(U1-UCAP)*%
X102097400Y-139802600D02*
X103328100Y-138571900D01*
X101802600Y-139802600D02*
X102097400Y-139802600D01*
%TO.N,/XTAL2*%
X111850000Y-144559100D02*
X111470800Y-144938300D01*
X111850000Y-139881400D02*
X111850000Y-144559100D01*
X111106200Y-139137600D02*
X111850000Y-139881400D01*
X107290700Y-145398600D02*
X107168400Y-145276300D01*
X111931000Y-145398600D02*
X107290700Y-145398600D01*
X112391200Y-145858800D02*
X111931000Y-145398600D01*
X111931000Y-145398600D02*
X111470800Y-144938300D01*
%TO.N,/XTAL1*%
X118500000Y-137909100D02*
X118188400Y-138220700D01*
X118500000Y-134000000D02*
X118500000Y-137909100D01*
X119108800Y-139141200D02*
X118944900Y-138977300D01*
X118944900Y-138977300D02*
X118188400Y-138220700D01*
X118606600Y-139315600D02*
X112415600Y-139315600D01*
X118944900Y-138977300D02*
X118606600Y-139315600D01*
X111671900Y-138571900D02*
X112415600Y-139315600D01*
%TO.N,GND*%
X100000000Y-107620000D02*
X100000000Y-105080000D01*
X97196200Y-145596200D02*
X97939300Y-144853100D01*
X106043700Y-151048600D02*
X106875800Y-150216500D01*
X107257700Y-144473700D02*
X106365800Y-144473700D01*
X111284400Y-140447000D02*
X107257700Y-144473700D01*
X110540600Y-139703300D02*
X111284400Y-140447000D01*
X101768600Y-139000000D02*
X101000000Y-139000000D01*
X102762400Y-138006200D02*
X101768600Y-139000000D01*
X108257000Y-100398000D02*
X108257000Y-102980300D01*
X109455000Y-99200000D02*
X108257000Y-100398000D01*
X110540600Y-139703300D02*
X109796900Y-138959600D01*
X117578900Y-133315900D02*
X117578900Y-134941600D01*
X117697400Y-133197400D02*
X117578900Y-133315900D01*
X100321700Y-131664600D02*
X100321700Y-131747100D01*
X100216800Y-131559700D02*
X100321700Y-131664600D01*
X105590800Y-127965300D02*
X104847200Y-127221600D01*
X113126200Y-134430700D02*
X113756700Y-133800200D01*
X112807100Y-134430700D02*
X113126200Y-134430700D01*
X114500400Y-133056500D02*
X113756700Y-133800200D01*
X109863800Y-137374000D02*
X112807100Y-134430700D01*
X109863800Y-138892700D02*
X109863800Y-137374000D01*
X109796900Y-138959600D02*
X109863800Y-138892700D01*
X106365800Y-146910800D02*
X106365800Y-144473700D01*
X106573800Y-147118800D02*
X106365800Y-146910800D01*
X106875800Y-147420800D02*
X106573800Y-147118800D01*
X106875800Y-150216500D02*
X106875800Y-147420800D01*
X100464200Y-131889700D02*
X100322700Y-131748200D01*
X100322700Y-131748200D02*
X100321700Y-131747100D01*
X101065300Y-132490800D02*
X100464200Y-131889700D01*
X102695600Y-110315600D02*
X102695600Y-117895800D01*
X100000000Y-107620000D02*
X102695600Y-110315600D01*
X97939200Y-144853100D02*
X97939300Y-144853100D01*
X97939200Y-143585600D02*
X97939200Y-144853100D01*
X98511600Y-143013200D02*
X97939200Y-143585600D01*
X98511600Y-142488400D02*
X98511600Y-143013200D01*
X100310000Y-140690000D02*
X98511600Y-142488400D01*
X100310000Y-140217500D02*
X100310000Y-140690000D01*
X101000000Y-139527500D02*
X100310000Y-140217500D01*
X101000000Y-139000000D02*
X101000000Y-139527500D01*
X104890400Y-127178400D02*
X104847200Y-127221600D01*
X104890400Y-120814200D02*
X104890400Y-127178400D01*
X104891900Y-120812700D02*
X104890400Y-120814200D01*
X104891900Y-119800600D02*
X104891900Y-120812700D01*
X105080400Y-119612100D02*
X104891900Y-119800600D01*
X105080400Y-119113700D02*
X105080400Y-119612100D01*
X104890400Y-118923700D02*
X105080400Y-119113700D01*
X104890400Y-118271000D02*
X104890400Y-118923700D01*
X104515200Y-117895800D02*
X104890400Y-118271000D01*
X102695600Y-117895800D02*
X104515200Y-117895800D01*
X100322700Y-130353200D02*
X100322700Y-131748200D01*
X102653400Y-128022500D02*
X100322700Y-130353200D01*
X102653400Y-120913800D02*
X102653400Y-128022500D01*
X102453400Y-120713800D02*
X102653400Y-120913800D01*
X102453400Y-120115600D02*
X102453400Y-120713800D01*
X102695600Y-119873400D02*
X102453400Y-120115600D01*
X102695600Y-117895800D02*
X102695600Y-119873400D01*
%TD*%
%TA.AperFunction,Conductor*%
%TO.N,GND*%
G36*
X119549468Y-134258996D02*
G01*
X119562556Y-134270370D01*
X123804505Y-138512319D01*
X123837990Y-138573642D01*
X123833006Y-138643334D01*
X123804505Y-138687681D01*
X105887681Y-156604505D01*
X105826358Y-156637990D01*
X105756666Y-156633006D01*
X105712319Y-156604505D01*
X104958423Y-155850609D01*
X104924938Y-155789286D01*
X104929922Y-155719594D01*
X104971794Y-155663661D01*
X104999033Y-155648210D01*
X105010753Y-155643402D01*
X105030552Y-155634917D01*
X105038947Y-155631229D01*
X105039198Y-155631116D01*
X105043508Y-155629151D01*
X105061893Y-155620666D01*
X105075805Y-155613986D01*
X105076356Y-155613711D01*
X105090264Y-155606498D01*
X105108649Y-155596599D01*
X105121689Y-155589328D01*
X105122188Y-155589040D01*
X105134436Y-155581739D01*
X105152821Y-155570425D01*
X105160537Y-155565580D01*
X105160843Y-155565384D01*
X105168577Y-155560330D01*
X105185548Y-155549017D01*
X105197428Y-155540851D01*
X105197881Y-155540530D01*
X105208925Y-155532477D01*
X105225895Y-155519749D01*
X105244350Y-155505225D01*
X105245077Y-155504625D01*
X105263347Y-155488798D01*
X105294460Y-155460514D01*
X105303816Y-155451790D01*
X105303840Y-155451766D01*
X105303869Y-155451740D01*
X105304096Y-155451522D01*
X105304160Y-155451461D01*
X105312213Y-155443584D01*
X106390450Y-154365346D01*
X106451771Y-154331863D01*
X106521462Y-154336847D01*
X106541397Y-154346385D01*
X106599331Y-154380760D01*
X106638689Y-154404113D01*
X106645751Y-154407038D01*
X106645767Y-154407044D01*
X106749460Y-154437490D01*
X106749464Y-154437491D01*
X106893252Y-154442625D01*
X107032663Y-154407041D01*
X107039734Y-154404112D01*
X107088542Y-154380760D01*
X107203724Y-154294535D01*
X107698698Y-153799561D01*
X107734856Y-153759309D01*
X107755637Y-153724282D01*
X107787969Y-153688290D01*
X107875467Y-153622790D01*
X107875467Y-153622789D01*
X107875475Y-153622784D01*
X108907851Y-152590408D01*
X108944047Y-152550109D01*
X109017451Y-152426362D01*
X109020379Y-152419291D01*
X109050791Y-152315727D01*
X109055949Y-152171939D01*
X109020389Y-152032523D01*
X109017461Y-152025451D01*
X108994076Y-151976562D01*
X108907851Y-151861380D01*
X108907846Y-151861375D01*
X108907841Y-151861369D01*
X107493652Y-150447182D01*
X107493637Y-150447167D01*
X107491694Y-150445422D01*
X107453381Y-150411006D01*
X107329647Y-150337590D01*
X107329645Y-150337589D01*
X107322588Y-150334666D01*
X107322579Y-150334663D01*
X107322576Y-150334662D01*
X107287228Y-150324283D01*
X107275523Y-150320846D01*
X107216746Y-150283070D01*
X107213909Y-150279676D01*
X107191231Y-150251535D01*
X107191225Y-150251528D01*
X107157408Y-150217711D01*
X107100423Y-150274696D01*
X107086044Y-150282883D01*
X107076016Y-150293655D01*
X107043409Y-150307162D01*
X106993143Y-150319992D01*
X106923318Y-150317499D01*
X106865925Y-150277651D01*
X106839187Y-150213100D01*
X106839737Y-150182204D01*
X106849882Y-150111646D01*
X106839596Y-150040104D01*
X106849540Y-149970949D01*
X106874565Y-149934905D01*
X106874565Y-149934868D01*
X106840740Y-149901044D01*
X106792527Y-149862191D01*
X106773783Y-149843447D01*
X106755396Y-149820631D01*
X106731994Y-149791590D01*
X106731990Y-149791586D01*
X106731986Y-149791581D01*
X106557007Y-149616603D01*
X106551328Y-149606203D01*
X106542171Y-149598681D01*
X106534890Y-149576100D01*
X106523522Y-149555280D01*
X106523826Y-149541783D01*
X106520731Y-149532182D01*
X106524834Y-149497127D01*
X106536789Y-149452061D01*
X106536868Y-149451762D01*
X106557100Y-149376257D01*
X106557100Y-149376252D01*
X106557103Y-149376241D01*
X106557215Y-149375380D01*
X106557218Y-149375355D01*
X106557293Y-149374764D01*
X106557297Y-149374752D01*
X106557100Y-149296094D01*
X106557100Y-149218143D01*
X106556905Y-149216668D01*
X106556901Y-149216637D01*
X106541406Y-149159385D01*
X106537100Y-149126991D01*
X106537100Y-146090580D01*
X106556785Y-146023541D01*
X106609589Y-145977786D01*
X106678747Y-145967842D01*
X106742303Y-145996867D01*
X106748778Y-146002896D01*
X106792346Y-146046464D01*
X106820686Y-146070671D01*
X106820688Y-146070672D01*
X106820687Y-146070672D01*
X106963584Y-146149230D01*
X106965818Y-146150458D01*
X107126233Y-146191645D01*
X107126237Y-146191645D01*
X107291846Y-146191645D01*
X107291850Y-146191645D01*
X107452265Y-146150458D01*
X107597397Y-146070671D01*
X107625738Y-146046466D01*
X107636785Y-146035419D01*
X107698108Y-146001934D01*
X107724466Y-145999100D01*
X109829512Y-145999100D01*
X109896551Y-146018785D01*
X109942306Y-146071589D01*
X109952250Y-146140747D01*
X109923225Y-146204303D01*
X109917193Y-146210781D01*
X109351843Y-146776130D01*
X109351837Y-146776137D01*
X109314215Y-146822822D01*
X109314214Y-146822824D01*
X109254427Y-146953737D01*
X109233946Y-147096194D01*
X109254427Y-147238650D01*
X109314214Y-147369565D01*
X109327078Y-147385529D01*
X109351834Y-147416249D01*
X109351837Y-147416252D01*
X109351842Y-147416258D01*
X110599504Y-148663917D01*
X110833751Y-148898164D01*
X110833755Y-148898167D01*
X110833757Y-148898169D01*
X110880432Y-148935784D01*
X110945891Y-148965678D01*
X111011349Y-148995572D01*
X111011348Y-148995572D01*
X111029255Y-148998146D01*
X111153806Y-149016054D01*
X111296263Y-148995572D01*
X111427179Y-148935784D01*
X111473862Y-148898166D01*
X115430650Y-144941376D01*
X115468270Y-144894693D01*
X115528058Y-144763777D01*
X115548540Y-144621320D01*
X115528058Y-144478863D01*
X115524477Y-144471021D01*
X115468271Y-144347948D01*
X115446911Y-144321442D01*
X115430652Y-144301265D01*
X115430647Y-144301260D01*
X115430643Y-144301255D01*
X113948738Y-142819353D01*
X113948732Y-142819348D01*
X113948728Y-142819344D01*
X113902053Y-142781729D01*
X113771135Y-142721941D01*
X113771137Y-142721941D01*
X113628680Y-142701460D01*
X113486223Y-142721941D01*
X113355307Y-142781729D01*
X113355302Y-142781732D01*
X113308626Y-142819345D01*
X113308618Y-142819352D01*
X112662181Y-143465790D01*
X112600858Y-143499275D01*
X112531166Y-143494291D01*
X112475233Y-143452419D01*
X112450816Y-143386955D01*
X112450500Y-143378109D01*
X112450500Y-140040100D01*
X112470185Y-139973061D01*
X112522989Y-139927306D01*
X112574500Y-139916100D01*
X115926259Y-139916100D01*
X115993298Y-139935785D01*
X116039053Y-139988589D01*
X116048997Y-140057747D01*
X116034392Y-140097995D01*
X116034952Y-140098251D01*
X116031780Y-140105195D01*
X116031755Y-140105266D01*
X116031729Y-140105307D01*
X115971941Y-140236223D01*
X115951460Y-140378680D01*
X115971941Y-140521136D01*
X116031728Y-140652051D01*
X116031730Y-140652053D01*
X116069348Y-140698735D01*
X116069351Y-140698738D01*
X116069356Y-140698744D01*
X117305180Y-141934565D01*
X117551265Y-142180650D01*
X117551269Y-142180653D01*
X117551271Y-142180655D01*
X117597946Y-142218270D01*
X117628935Y-142232422D01*
X117728863Y-142278058D01*
X117728862Y-142278058D01*
X117746769Y-142280632D01*
X117871320Y-142298540D01*
X118013777Y-142278058D01*
X118144693Y-142218270D01*
X118191376Y-142180652D01*
X122148164Y-138223862D01*
X122185784Y-138177179D01*
X122245572Y-138046263D01*
X122266054Y-137903806D01*
X122245572Y-137761349D01*
X122217926Y-137700813D01*
X122185785Y-137630434D01*
X122175751Y-137617983D01*
X122148166Y-137583751D01*
X122148161Y-137583746D01*
X122148157Y-137583741D01*
X120666252Y-136101839D01*
X120666246Y-136101834D01*
X120666242Y-136101830D01*
X120619567Y-136064215D01*
X120488649Y-136004427D01*
X120488651Y-136004427D01*
X120346194Y-135983946D01*
X120203737Y-136004427D01*
X120072821Y-136064215D01*
X120072816Y-136064218D01*
X120026140Y-136101831D01*
X120026132Y-136101838D01*
X119312181Y-136815790D01*
X119250858Y-136849275D01*
X119181166Y-136844291D01*
X119125233Y-136802419D01*
X119100816Y-136736955D01*
X119100500Y-136728109D01*
X119100500Y-134678365D01*
X119120185Y-134611326D01*
X119136819Y-134590684D01*
X119270147Y-134457355D01*
X119270146Y-134457355D01*
X119270164Y-134457338D01*
X119294371Y-134428997D01*
X119366216Y-134298310D01*
X119415758Y-134249050D01*
X119484073Y-134234393D01*
X119549468Y-134258996D01*
G37*
%TD.AperFunction*%
%TA.AperFunction,Conductor*%
G36*
X94709684Y-136900643D02*
G01*
X94765617Y-136942515D01*
X94790034Y-137007979D01*
X94775182Y-137076252D01*
X94766668Y-137089710D01*
X94713327Y-137163128D01*
X94624034Y-137338373D01*
X94563260Y-137525416D01*
X94563260Y-137525419D01*
X94540609Y-137668430D01*
X94532493Y-137719675D01*
X94532493Y-137916351D01*
X94544972Y-137995139D01*
X94563260Y-138110606D01*
X94563260Y-138110609D01*
X94624034Y-138297652D01*
X94664758Y-138377576D01*
X94713325Y-138472894D01*
X94828928Y-138632008D01*
X94967998Y-138771078D01*
X95127112Y-138886681D01*
X95290607Y-138969986D01*
X95302353Y-138975971D01*
X95489397Y-139036745D01*
X95489398Y-139036745D01*
X95489401Y-139036746D01*
X95683655Y-139067513D01*
X95683656Y-139067513D01*
X95880330Y-139067513D01*
X95880331Y-139067513D01*
X96074585Y-139036746D01*
X96074588Y-139036745D01*
X96074589Y-139036745D01*
X96261632Y-138975971D01*
X96261632Y-138975970D01*
X96261635Y-138975970D01*
X96436874Y-138886681D01*
X96595988Y-138771078D01*
X96735058Y-138632008D01*
X96850661Y-138472894D01*
X96850661Y-138472893D01*
X96853044Y-138469614D01*
X96857376Y-138466273D01*
X96859649Y-138461297D01*
X96884748Y-138445166D01*
X96908374Y-138426949D01*
X96915045Y-138425696D01*
X96918427Y-138423523D01*
X96953362Y-138418500D01*
X96985331Y-138418500D01*
X96985347Y-138418501D01*
X96992943Y-138418501D01*
X97151054Y-138418501D01*
X97151057Y-138418501D01*
X97303785Y-138377577D01*
X97354840Y-138348100D01*
X97440716Y-138298520D01*
X97544630Y-138194606D01*
X97605953Y-138161121D01*
X97632311Y-138158287D01*
X97751711Y-138158287D01*
X97907449Y-138119901D01*
X98049475Y-138045360D01*
X98100810Y-138002577D01*
X98402575Y-137700810D01*
X98445360Y-137649475D01*
X98519901Y-137507449D01*
X98558287Y-137351711D01*
X98558287Y-137191314D01*
X98549133Y-137154174D01*
X98552202Y-137084373D01*
X98592522Y-137027311D01*
X98657291Y-137001105D01*
X98669530Y-137000500D01*
X99368603Y-137000500D01*
X99435642Y-137020185D01*
X99456284Y-137036819D01*
X99905783Y-137486318D01*
X99939268Y-137547641D01*
X99934284Y-137617333D01*
X99905783Y-137661680D01*
X96348186Y-141219278D01*
X96236381Y-141331082D01*
X96236379Y-141331084D01*
X96211178Y-141374735D01*
X96200526Y-141393186D01*
X96178924Y-141430600D01*
X96157323Y-141468014D01*
X96154261Y-141479442D01*
X96116399Y-141620743D01*
X96116399Y-141620745D01*
X96116399Y-141788846D01*
X96116400Y-141788859D01*
X96116400Y-143106734D01*
X96096715Y-143173773D01*
X96095502Y-143175625D01*
X96007509Y-143307314D01*
X96007502Y-143307327D01*
X95947164Y-143452998D01*
X95947161Y-143453010D01*
X95916400Y-143607653D01*
X95916400Y-143765346D01*
X95947161Y-143919989D01*
X95947164Y-143920001D01*
X96007502Y-144065672D01*
X96007509Y-144065685D01*
X96095110Y-144196788D01*
X96095113Y-144196792D01*
X96206607Y-144308286D01*
X96206611Y-144308289D01*
X96337714Y-144395890D01*
X96337721Y-144395894D01*
X96413261Y-144427183D01*
X96467662Y-144471021D01*
X96489148Y-144535574D01*
X97070880Y-145117306D01*
X97005144Y-145134921D01*
X96892270Y-145200089D01*
X96800109Y-145292250D01*
X96734941Y-145405124D01*
X96717326Y-145470860D01*
X96136253Y-144889787D01*
X96136252Y-144889787D01*
X95749590Y-145276449D01*
X95712006Y-145323089D01*
X95652280Y-145453870D01*
X95631820Y-145596186D01*
X95631820Y-145596187D01*
X95652280Y-145738503D01*
X95712006Y-145869284D01*
X95749586Y-145915919D01*
X96136253Y-146302586D01*
X96717326Y-145721513D01*
X96734941Y-145787250D01*
X96800109Y-145900124D01*
X96892270Y-145992285D01*
X97005144Y-146057453D01*
X97070879Y-146075067D01*
X96489807Y-146656140D01*
X96876474Y-147042807D01*
X96923109Y-147080387D01*
X97053890Y-147140113D01*
X97196207Y-147160574D01*
X97338523Y-147140113D01*
X97469304Y-147080387D01*
X97515939Y-147042807D01*
X97902606Y-146656140D01*
X97902606Y-146656139D01*
X97321534Y-146075066D01*
X97387270Y-146057453D01*
X97500144Y-145992285D01*
X97592305Y-145900124D01*
X97657473Y-145787250D01*
X97675087Y-145721514D01*
X98256159Y-146302586D01*
X98642823Y-145915923D01*
X98642827Y-145915919D01*
X98680407Y-145869284D01*
X98740133Y-145738503D01*
X98760594Y-145596187D01*
X98760594Y-145596186D01*
X98740133Y-145453870D01*
X98680407Y-145323089D01*
X98642827Y-145276454D01*
X98256160Y-144889787D01*
X97675087Y-145470859D01*
X97657473Y-145405124D01*
X97592305Y-145292250D01*
X97500144Y-145200089D01*
X97387270Y-145134921D01*
X97321533Y-145117306D01*
X97902606Y-144536233D01*
X97515943Y-144149570D01*
X97515930Y-144149559D01*
X97494955Y-144132656D01*
X97455106Y-144075264D01*
X97452612Y-144005439D01*
X97458195Y-143988660D01*
X97486637Y-143919997D01*
X97517400Y-143765342D01*
X97517400Y-143652698D01*
X97537085Y-143585659D01*
X97589889Y-143539904D01*
X97659047Y-143529960D01*
X97672961Y-143533052D01*
X97676401Y-143533736D01*
X97676403Y-143533737D01*
X97831053Y-143564499D01*
X97831056Y-143564500D01*
X97831058Y-143564500D01*
X97988744Y-143564500D01*
X97988745Y-143564499D01*
X98143397Y-143533737D01*
X98289079Y-143473394D01*
X98420189Y-143385789D01*
X98531689Y-143274289D01*
X98619294Y-143143179D01*
X98679637Y-142997497D01*
X98710400Y-142842842D01*
X98710400Y-142685158D01*
X98710400Y-142685155D01*
X98710399Y-142685153D01*
X98679637Y-142530503D01*
X98665025Y-142495226D01*
X98619297Y-142384827D01*
X98619290Y-142384814D01*
X98531298Y-142253125D01*
X98510420Y-142186447D01*
X98510400Y-142184234D01*
X98510400Y-141393196D01*
X98530085Y-141326157D01*
X98546714Y-141305520D01*
X100838438Y-139013796D01*
X100899759Y-138980313D01*
X100969451Y-138985297D01*
X101013798Y-139013798D01*
X101089112Y-139089112D01*
X101122597Y-139150435D01*
X101117613Y-139220127D01*
X101089112Y-139264474D01*
X100658977Y-139694608D01*
X100618750Y-139721488D01*
X100532521Y-139757206D01*
X100532514Y-139757209D01*
X100401411Y-139844810D01*
X100401407Y-139844813D01*
X100289913Y-139956307D01*
X100289910Y-139956311D01*
X100202309Y-140087414D01*
X100202302Y-140087427D01*
X100141964Y-140233098D01*
X100141961Y-140233110D01*
X100111200Y-140387753D01*
X100111200Y-140545446D01*
X100141961Y-140700089D01*
X100141964Y-140700101D01*
X100202302Y-140845772D01*
X100202309Y-140845785D01*
X100293295Y-140981954D01*
X100291572Y-140983105D01*
X100315189Y-141038739D01*
X100303385Y-141107604D01*
X100256224Y-141159156D01*
X100211418Y-141175545D01*
X100085593Y-141195474D01*
X100085590Y-141195474D01*
X99898547Y-141256248D01*
X99723305Y-141345539D01*
X99564189Y-141461144D01*
X99425124Y-141600209D01*
X99309519Y-141759325D01*
X99220228Y-141934567D01*
X99159454Y-142121610D01*
X99159454Y-142121613D01*
X99144150Y-142218237D01*
X99128687Y-142315869D01*
X99128687Y-142512545D01*
X99131901Y-142532839D01*
X99159454Y-142706800D01*
X99159454Y-142706803D01*
X99220228Y-142893846D01*
X99235246Y-142923320D01*
X99309519Y-143069088D01*
X99425122Y-143228202D01*
X99564192Y-143367272D01*
X99723306Y-143482875D01*
X99883502Y-143564499D01*
X99898547Y-143572165D01*
X100085591Y-143632939D01*
X100085592Y-143632939D01*
X100085595Y-143632940D01*
X100279849Y-143663707D01*
X100279850Y-143663707D01*
X100476524Y-143663707D01*
X100476525Y-143663707D01*
X100670779Y-143632940D01*
X100670782Y-143632939D01*
X100670783Y-143632939D01*
X100857826Y-143572165D01*
X100857826Y-143572164D01*
X100857829Y-143572164D01*
X101033068Y-143482875D01*
X101192182Y-143367272D01*
X101331252Y-143228202D01*
X101446855Y-143069088D01*
X101536144Y-142893849D01*
X101552716Y-142842846D01*
X101596919Y-142706803D01*
X101596920Y-142706799D01*
X101600348Y-142685153D01*
X101615953Y-142586623D01*
X101645882Y-142523491D01*
X101705193Y-142486559D01*
X101775055Y-142487557D01*
X101826107Y-142518342D01*
X103565025Y-144257260D01*
X103598510Y-144318583D01*
X103598961Y-144320749D01*
X103629861Y-144476091D01*
X103629864Y-144476101D01*
X103690202Y-144621772D01*
X103690209Y-144621785D01*
X103777810Y-144752888D01*
X103777813Y-144752892D01*
X103889310Y-144864389D01*
X104020415Y-144951990D01*
X104020421Y-144951994D01*
X104055053Y-144966338D01*
X104109455Y-145010177D01*
X104131521Y-145076471D01*
X104131600Y-145080899D01*
X104131600Y-146149230D01*
X104131599Y-146149248D01*
X104131599Y-146156843D01*
X104131599Y-146314957D01*
X104139906Y-146345958D01*
X104159875Y-146420482D01*
X104164100Y-146452576D01*
X104164100Y-146818266D01*
X104144415Y-146885305D01*
X104091611Y-146931060D01*
X104022453Y-146941004D01*
X103958897Y-146911979D01*
X103952419Y-146905947D01*
X103392430Y-146345958D01*
X103352104Y-146309741D01*
X103352100Y-146309737D01*
X103228349Y-146236339D01*
X103221277Y-146233411D01*
X103221262Y-146233406D01*
X103117710Y-146203004D01*
X102973925Y-146197852D01*
X102973920Y-146197853D01*
X102834513Y-146233418D01*
X102834507Y-146233420D01*
X102827461Y-146236339D01*
X102827440Y-146236348D01*
X102778569Y-146259726D01*
X102663393Y-146345947D01*
X102663381Y-146345958D01*
X101631022Y-147378317D01*
X101594822Y-147418620D01*
X101574074Y-147453598D01*
X101541737Y-147489601D01*
X101454240Y-147555100D01*
X101454228Y-147555111D01*
X100959268Y-148050071D01*
X100923112Y-148090321D01*
X100923105Y-148090331D01*
X100849685Y-148214069D01*
X100846761Y-148221129D01*
X100846755Y-148221145D01*
X100816309Y-148324837D01*
X100816309Y-148324840D01*
X100816309Y-148324842D01*
X100811175Y-148468630D01*
X100811175Y-148468633D01*
X100811176Y-148468634D01*
X100846756Y-148608033D01*
X100846757Y-148608036D01*
X100846759Y-148608041D01*
X100849403Y-148614425D01*
X100849690Y-148615117D01*
X100849694Y-148615126D01*
X100864073Y-148645179D01*
X100873040Y-148663920D01*
X100900627Y-148700771D01*
X100925043Y-148766236D01*
X100910191Y-148834509D01*
X100889040Y-148862762D01*
X99810250Y-149941551D01*
X99802277Y-149949703D01*
X99802059Y-149949930D01*
X99793266Y-149959361D01*
X99764999Y-149990455D01*
X99749166Y-150008732D01*
X99748575Y-150009448D01*
X99734052Y-150027903D01*
X99721339Y-150044853D01*
X99713257Y-150055935D01*
X99712950Y-150056369D01*
X99704783Y-150068251D01*
X99693491Y-150085189D01*
X99688343Y-150093068D01*
X99688238Y-150093232D01*
X99683374Y-150100979D01*
X99672059Y-150119366D01*
X99664740Y-150131645D01*
X99664460Y-150132130D01*
X99657219Y-150145117D01*
X99647295Y-150163548D01*
X99640087Y-150177445D01*
X99639838Y-150177944D01*
X99639814Y-150177995D01*
X99633134Y-150191907D01*
X99627470Y-150204178D01*
X99624633Y-150210326D01*
X99622665Y-150214644D01*
X99622586Y-150214819D01*
X99618882Y-150223248D01*
X99610376Y-150243097D01*
X99605588Y-150254768D01*
X99561928Y-150309317D01*
X99495707Y-150331601D01*
X99427951Y-150314546D01*
X99403190Y-150295376D01*
X90395495Y-141287681D01*
X90362010Y-141226358D01*
X90366994Y-141156666D01*
X90395495Y-141112319D01*
X90885275Y-140622539D01*
X91398949Y-140108864D01*
X91460270Y-140075381D01*
X91529962Y-140080365D01*
X91585895Y-140122237D01*
X91610312Y-140187701D01*
X91595460Y-140255974D01*
X91586947Y-140269431D01*
X91531774Y-140345371D01*
X91442518Y-140520543D01*
X91442517Y-140520545D01*
X91381768Y-140707514D01*
X91381768Y-140707517D01*
X91375040Y-140749992D01*
X91375041Y-140749993D01*
X92172774Y-140749993D01*
X92138747Y-140808930D01*
X92105013Y-140934825D01*
X92105013Y-141065161D01*
X92138747Y-141191056D01*
X92172774Y-141249993D01*
X91375041Y-141249993D01*
X91381768Y-141292468D01*
X91381768Y-141292471D01*
X91442517Y-141479440D01*
X91442518Y-141479442D01*
X91531775Y-141654615D01*
X91647323Y-141813655D01*
X91647327Y-141813660D01*
X91786345Y-141952678D01*
X91786350Y-141952682D01*
X91945390Y-142068230D01*
X92120563Y-142157487D01*
X92120565Y-142157488D01*
X92307535Y-142218237D01*
X92350012Y-142224965D01*
X92350013Y-142224965D01*
X92350013Y-141427231D01*
X92408950Y-141461259D01*
X92534845Y-141494993D01*
X92665181Y-141494993D01*
X92791076Y-141461259D01*
X92850013Y-141427231D01*
X92850013Y-142224965D01*
X92892488Y-142218237D01*
X92892491Y-142218237D01*
X93079460Y-142157488D01*
X93079462Y-142157487D01*
X93254635Y-142068230D01*
X93413675Y-141952682D01*
X93413680Y-141952678D01*
X93552698Y-141813660D01*
X93552702Y-141813655D01*
X93668250Y-141654615D01*
X93757507Y-141479442D01*
X93757508Y-141479440D01*
X93818257Y-141292471D01*
X93818257Y-141292468D01*
X93824985Y-141249993D01*
X93027252Y-141249993D01*
X93061279Y-141191056D01*
X93095013Y-141065161D01*
X93095013Y-140934825D01*
X93061279Y-140808930D01*
X93027252Y-140749993D01*
X93824985Y-140749993D01*
X93824985Y-140749992D01*
X93818257Y-140707517D01*
X93818257Y-140707514D01*
X93757508Y-140520545D01*
X93757507Y-140520543D01*
X93668250Y-140345370D01*
X93552702Y-140186330D01*
X93552698Y-140186325D01*
X93413680Y-140047307D01*
X93413675Y-140047303D01*
X93254635Y-139931755D01*
X93079462Y-139842498D01*
X93079457Y-139842496D01*
X92892487Y-139781747D01*
X92850013Y-139775019D01*
X92850013Y-140572754D01*
X92791076Y-140538727D01*
X92665181Y-140504993D01*
X92534845Y-140504993D01*
X92408950Y-140538727D01*
X92350013Y-140572754D01*
X92350013Y-139775019D01*
X92350012Y-139775019D01*
X92307538Y-139781747D01*
X92120568Y-139842496D01*
X92120563Y-139842498D01*
X91945391Y-139931754D01*
X91869451Y-139986927D01*
X91803645Y-140010406D01*
X91735591Y-139994580D01*
X91686897Y-139944473D01*
X91673022Y-139875995D01*
X91698372Y-139810887D01*
X91708878Y-139798935D01*
X94578671Y-136929142D01*
X94639992Y-136895659D01*
X94709684Y-136900643D01*
G37*
%TD.AperFunction*%
%TA.AperFunction,Conductor*%
G36*
X111168833Y-140946013D02*
G01*
X111224767Y-140987884D01*
X111249184Y-141053349D01*
X111249500Y-141062195D01*
X111249500Y-144259002D01*
X111229815Y-144326041D01*
X111213185Y-144346678D01*
X111045702Y-144514162D01*
X110990321Y-144569532D01*
X110990304Y-144569560D01*
X110990281Y-144569584D01*
X110950690Y-144638157D01*
X110911248Y-144706455D01*
X110911239Y-144706486D01*
X110911223Y-144706515D01*
X110911092Y-144707003D01*
X110910783Y-144707541D01*
X110910755Y-144707610D01*
X110909510Y-144710528D01*
X110908939Y-144712182D01*
X110908432Y-144713442D01*
X110907585Y-144713101D01*
X110907109Y-144713930D01*
X110905873Y-144715111D01*
X110874947Y-144765852D01*
X110812101Y-144796383D01*
X110791535Y-144798100D01*
X107887781Y-144798100D01*
X107820742Y-144778415D01*
X107800100Y-144761781D01*
X107544419Y-144506101D01*
X107538583Y-144501116D01*
X107516080Y-144481895D01*
X107516078Y-144481893D01*
X107370951Y-144402109D01*
X107370942Y-144402106D01*
X107337221Y-144393448D01*
X107277183Y-144357709D01*
X107247955Y-144304181D01*
X107239523Y-144271343D01*
X107239520Y-144271333D01*
X107159798Y-144126318D01*
X107159795Y-144126314D01*
X107135610Y-144097997D01*
X107135594Y-144097980D01*
X107115351Y-144077737D01*
X107115349Y-144077737D01*
X106630274Y-144562812D01*
X106568951Y-144596297D01*
X106499259Y-144591313D01*
X106454912Y-144562812D01*
X106276720Y-144384620D01*
X106243235Y-144323297D01*
X106248219Y-144253605D01*
X106276720Y-144209258D01*
X106761796Y-143724182D01*
X106741553Y-143703939D01*
X106741536Y-143703923D01*
X106713219Y-143679738D01*
X106713215Y-143679735D01*
X106568198Y-143600011D01*
X106560949Y-143597142D01*
X106562046Y-143594370D01*
X106514011Y-143565777D01*
X106482824Y-143503254D01*
X106490391Y-143433795D01*
X106517201Y-143393732D01*
X108058676Y-141852258D01*
X108119999Y-141818773D01*
X108189691Y-141823757D01*
X108234038Y-141852258D01*
X108877001Y-142495221D01*
X108877005Y-142495224D01*
X108877007Y-142495226D01*
X108923682Y-142532841D01*
X109054596Y-142592628D01*
X109054597Y-142592628D01*
X109054599Y-142592629D01*
X109197056Y-142613110D01*
X109339514Y-142592629D01*
X109470430Y-142532841D01*
X109517112Y-142495222D01*
X109938367Y-142073966D01*
X109975987Y-142027284D01*
X109975989Y-142027278D01*
X109980066Y-142020681D01*
X109981349Y-142021473D01*
X110021369Y-141975279D01*
X110035129Y-141967765D01*
X110036111Y-141967158D01*
X110036111Y-141967157D01*
X110036115Y-141967156D01*
X110082797Y-141929537D01*
X110504052Y-141508281D01*
X110532930Y-141472445D01*
X110541673Y-141461598D01*
X110545749Y-141455000D01*
X110547031Y-141455792D01*
X110587049Y-141409597D01*
X110600807Y-141402084D01*
X110601796Y-141401472D01*
X110601801Y-141401470D01*
X110648483Y-141363851D01*
X111037819Y-140974513D01*
X111099142Y-140941029D01*
X111168833Y-140946013D01*
G37*
%TD.AperFunction*%
%TA.AperFunction,Conductor*%
G36*
X117526832Y-134079285D02*
G01*
X117527876Y-134079553D01*
X117587915Y-134115288D01*
X117617148Y-134168821D01*
X117625806Y-134202542D01*
X117625809Y-134202551D01*
X117705593Y-134347677D01*
X117705595Y-134347680D01*
X117729800Y-134376020D01*
X117863182Y-134509401D01*
X117896666Y-134570722D01*
X117899500Y-134597081D01*
X117899500Y-137609003D01*
X117890855Y-137638443D01*
X117884332Y-137668430D01*
X117880577Y-137673445D01*
X117879815Y-137676042D01*
X117863181Y-137696684D01*
X117767849Y-137792016D01*
X117707890Y-137851966D01*
X117667890Y-137921245D01*
X117667891Y-137921246D01*
X117667782Y-137921436D01*
X117628839Y-137988878D01*
X117628834Y-137988895D01*
X117628823Y-137988915D01*
X117628685Y-137989428D01*
X117628685Y-137989429D01*
X117605871Y-138074569D01*
X117605814Y-138074783D01*
X117605814Y-138074785D01*
X117587905Y-138141603D01*
X117587904Y-138141620D01*
X117587899Y-138141643D01*
X117587899Y-138142680D01*
X117587899Y-138222851D01*
X117587893Y-138299715D01*
X117587899Y-138299761D01*
X117608047Y-138374949D01*
X117608048Y-138374955D01*
X117608049Y-138374958D01*
X117620154Y-138420147D01*
X117618486Y-138489997D01*
X117588058Y-138539913D01*
X117449190Y-138678782D01*
X117387870Y-138712266D01*
X117361511Y-138715100D01*
X114749479Y-138715100D01*
X114682440Y-138695415D01*
X114636685Y-138642611D01*
X114626741Y-138573453D01*
X114655766Y-138509897D01*
X114680588Y-138487998D01*
X114733736Y-138452485D01*
X114751989Y-138440289D01*
X114863489Y-138328789D01*
X114951094Y-138197679D01*
X115011437Y-138051997D01*
X115042200Y-137897342D01*
X115042200Y-137739658D01*
X115042200Y-137739655D01*
X115026689Y-137661680D01*
X115021713Y-137636664D01*
X115022420Y-137628762D01*
X115019647Y-137621329D01*
X115025489Y-137594460D01*
X115027940Y-137567074D01*
X115033185Y-137559069D01*
X115034493Y-137553055D01*
X115055638Y-137524804D01*
X115055639Y-137524802D01*
X115106772Y-137473662D01*
X115314866Y-137265567D01*
X115340550Y-137245861D01*
X115348416Y-137241320D01*
X115348421Y-137241314D01*
X115349913Y-137240171D01*
X115351408Y-137239592D01*
X115355460Y-137237254D01*
X115355824Y-137237885D01*
X115415082Y-137214977D01*
X115483527Y-137229015D01*
X115533517Y-137277829D01*
X115549400Y-137338547D01*
X115549400Y-137465257D01*
X115581151Y-137583751D01*
X115590323Y-137617983D01*
X115590326Y-137617990D01*
X115669375Y-137754909D01*
X115669379Y-137754914D01*
X115669380Y-137754916D01*
X115781184Y-137866720D01*
X115781186Y-137866721D01*
X115781190Y-137866724D01*
X115918109Y-137945773D01*
X115918116Y-137945777D01*
X116070843Y-137986700D01*
X116070845Y-137986700D01*
X116228955Y-137986700D01*
X116228957Y-137986700D01*
X116381684Y-137945777D01*
X116518616Y-137866720D01*
X116630420Y-137754916D01*
X116709477Y-137617984D01*
X116750400Y-137465257D01*
X116750400Y-135840465D01*
X116770085Y-135773426D01*
X116771298Y-135771574D01*
X116859290Y-135639885D01*
X116859290Y-135639884D01*
X116859294Y-135639879D01*
X116919637Y-135494197D01*
X116950400Y-135339542D01*
X116950538Y-135338850D01*
X116959302Y-135322093D01*
X116963323Y-135303614D01*
X116982069Y-135278571D01*
X116982923Y-135276939D01*
X116984375Y-135275459D01*
X117130009Y-135129824D01*
X117130014Y-135129821D01*
X117140214Y-135119620D01*
X117140216Y-135119620D01*
X117252020Y-135007816D01*
X117309129Y-134908900D01*
X117331077Y-134870885D01*
X117372000Y-134718157D01*
X117372000Y-134560043D01*
X117372000Y-134199391D01*
X117391685Y-134132352D01*
X117444489Y-134086597D01*
X117513647Y-134076653D01*
X117526832Y-134079285D01*
G37*
%TD.AperFunction*%
%TA.AperFunction,Conductor*%
G36*
X100288103Y-130604263D02*
G01*
X100323521Y-130658839D01*
X100323932Y-130658670D01*
X100324850Y-130660886D01*
X100325561Y-130661982D01*
X100326264Y-130664301D01*
X100386602Y-130809972D01*
X100386609Y-130809985D01*
X100474210Y-130941088D01*
X100474213Y-130941092D01*
X100572712Y-131039591D01*
X100574287Y-131042476D01*
X100577089Y-131044198D01*
X100590916Y-131072929D01*
X100606197Y-131100914D01*
X100605962Y-131104193D01*
X100607388Y-131107156D01*
X100603488Y-131138793D01*
X100601213Y-131170606D01*
X100599121Y-131174212D01*
X100598840Y-131176500D01*
X100591720Y-131186978D01*
X100580361Y-131206570D01*
X100576723Y-131210942D01*
X100536150Y-131251517D01*
X100498530Y-131298199D01*
X100491698Y-131313157D01*
X100481110Y-131325887D01*
X100465289Y-131336510D01*
X100452808Y-131350912D01*
X100440391Y-131357692D01*
X100438671Y-131358754D01*
X100392044Y-131396329D01*
X100392037Y-131396335D01*
X100294581Y-131493792D01*
X100233258Y-131527277D01*
X100163566Y-131522293D01*
X100107633Y-131480421D01*
X100083216Y-131414957D01*
X100082900Y-131406111D01*
X100082900Y-130697976D01*
X100102585Y-130630937D01*
X100155389Y-130585182D01*
X100224547Y-130575238D01*
X100288103Y-130604263D01*
G37*
%TD.AperFunction*%
%TA.AperFunction,Conductor*%
G36*
X102573934Y-128017214D02*
G01*
X102629867Y-128059086D01*
X102654284Y-128124550D01*
X102654600Y-128133396D01*
X102654600Y-128542432D01*
X102637987Y-128604431D01*
X102590423Y-128686815D01*
X102562239Y-128791997D01*
X102525876Y-128851654D01*
X102463029Y-128882183D01*
X102442466Y-128883900D01*
X102121462Y-128883900D01*
X102121458Y-128883899D01*
X101963343Y-128883899D01*
X101908668Y-128898549D01*
X101896462Y-128899346D01*
X101873822Y-128894273D01*
X101850629Y-128893721D01*
X101840369Y-128886777D01*
X101828283Y-128884069D01*
X101811982Y-128867563D01*
X101792766Y-128854558D01*
X101787889Y-128843169D01*
X101779186Y-128834357D01*
X101774395Y-128811656D01*
X101765263Y-128790329D01*
X101767317Y-128778114D01*
X101764759Y-128765993D01*
X101773002Y-128744303D01*
X101776850Y-128721427D01*
X101787247Y-128706825D01*
X101789583Y-128700682D01*
X101793887Y-128697500D01*
X101800701Y-128687933D01*
X102442920Y-128045713D01*
X102504242Y-128012230D01*
X102573934Y-128017214D01*
G37*
%TD.AperFunction*%
%TA.AperFunction,Conductor*%
G36*
X101555203Y-104944884D02*
G01*
X101561681Y-104950916D01*
X105272381Y-108661616D01*
X105305866Y-108722939D01*
X105308700Y-108749297D01*
X105308700Y-118290496D01*
X105289015Y-118357535D01*
X105236211Y-118403290D01*
X105167053Y-118413234D01*
X105103497Y-118384209D01*
X105065723Y-118325431D01*
X105063083Y-118314688D01*
X105057338Y-118285808D01*
X105057337Y-118285807D01*
X105057337Y-118285803D01*
X105013745Y-118180562D01*
X104996997Y-118140127D01*
X104996990Y-118140114D01*
X104909389Y-118009011D01*
X104909386Y-118009007D01*
X104797892Y-117897513D01*
X104797888Y-117897510D01*
X104666785Y-117809909D01*
X104666772Y-117809902D01*
X104521101Y-117749564D01*
X104521089Y-117749561D01*
X104366445Y-117718800D01*
X104366442Y-117718800D01*
X104208758Y-117718800D01*
X104208755Y-117718800D01*
X104054110Y-117749561D01*
X104054098Y-117749564D01*
X103908427Y-117809902D01*
X103908414Y-117809909D01*
X103777311Y-117897510D01*
X103777307Y-117897513D01*
X103665813Y-118009007D01*
X103665810Y-118009011D01*
X103578209Y-118140114D01*
X103578202Y-118140127D01*
X103517864Y-118285798D01*
X103517861Y-118285808D01*
X103486962Y-118441148D01*
X103480642Y-118454425D01*
X103479235Y-118465996D01*
X103465482Y-118486272D01*
X103460806Y-118496097D01*
X103457115Y-118500548D01*
X103356880Y-118600784D01*
X103322812Y-118659792D01*
X103277823Y-118737715D01*
X103236899Y-118890443D01*
X103236899Y-118890445D01*
X103236899Y-119058546D01*
X103236900Y-119058559D01*
X103236900Y-123018373D01*
X103228191Y-123048031D01*
X103221500Y-123078223D01*
X103218432Y-123081267D01*
X103217215Y-123085412D01*
X103193853Y-123105654D01*
X103171902Y-123127436D01*
X103166445Y-123129403D01*
X103164411Y-123131167D01*
X103138786Y-123139641D01*
X103137913Y-123139827D01*
X103021603Y-123162963D01*
X103013175Y-123166453D01*
X103002086Y-123168821D01*
X102978097Y-123167011D01*
X102954182Y-123169582D01*
X102943891Y-123164430D01*
X102932414Y-123163565D01*
X102913213Y-123149074D01*
X102891703Y-123138307D01*
X102885830Y-123128408D01*
X102876644Y-123121476D01*
X102868325Y-123098904D01*
X102856051Y-123078217D01*
X102853647Y-123059079D01*
X102852482Y-123055917D01*
X102852972Y-123053703D01*
X102852200Y-123047553D01*
X102852200Y-121169160D01*
X102852201Y-121169147D01*
X102852201Y-121001044D01*
X102811276Y-120848314D01*
X102811273Y-120848309D01*
X102732224Y-120711390D01*
X102732218Y-120711382D01*
X102688519Y-120667683D01*
X102655034Y-120606360D01*
X102652200Y-120580002D01*
X102652200Y-120249398D01*
X102671885Y-120182359D01*
X102675418Y-120177156D01*
X102681336Y-120168899D01*
X102739420Y-120110816D01*
X102804452Y-119998176D01*
X102818477Y-119973885D01*
X102859400Y-119821157D01*
X102859400Y-119663043D01*
X102859400Y-112507959D01*
X102859401Y-112507946D01*
X102859401Y-112339845D01*
X102859401Y-112339843D01*
X102818477Y-112187115D01*
X102789539Y-112136995D01*
X102739420Y-112050184D01*
X102627616Y-111938380D01*
X102627615Y-111938379D01*
X102623285Y-111934049D01*
X102623274Y-111934039D01*
X101333757Y-110644522D01*
X101300272Y-110583199D01*
X101303507Y-110518523D01*
X101317246Y-110476243D01*
X101350500Y-110266287D01*
X101350500Y-110053713D01*
X101317246Y-109843757D01*
X101251557Y-109641588D01*
X101155051Y-109452184D01*
X101155049Y-109452181D01*
X101155048Y-109452179D01*
X101030109Y-109280213D01*
X100879786Y-109129890D01*
X100707817Y-109004949D01*
X100698504Y-109000204D01*
X100647707Y-108952230D01*
X100630912Y-108884409D01*
X100653449Y-108818274D01*
X100698507Y-108779232D01*
X100707555Y-108774622D01*
X100761716Y-108735270D01*
X100761717Y-108735270D01*
X100129408Y-108102962D01*
X100192993Y-108085925D01*
X100307007Y-108020099D01*
X100400099Y-107927007D01*
X100465925Y-107812993D01*
X100482962Y-107749409D01*
X101115270Y-108381717D01*
X101115270Y-108381716D01*
X101154622Y-108327554D01*
X101251095Y-108138217D01*
X101316757Y-107936130D01*
X101316757Y-107936127D01*
X101350000Y-107726246D01*
X101350000Y-107513753D01*
X101316757Y-107303872D01*
X101316757Y-107303869D01*
X101251095Y-107101782D01*
X101154624Y-106912449D01*
X101115270Y-106858282D01*
X101115269Y-106858282D01*
X100482962Y-107490590D01*
X100465925Y-107427007D01*
X100400099Y-107312993D01*
X100307007Y-107219901D01*
X100192993Y-107154075D01*
X100129409Y-107137037D01*
X100761716Y-106504728D01*
X100707550Y-106465375D01*
X100697954Y-106460486D01*
X100647157Y-106412512D01*
X100630361Y-106344692D01*
X100652897Y-106278556D01*
X100697954Y-106239514D01*
X100707554Y-106234622D01*
X100761716Y-106195270D01*
X100761717Y-106195270D01*
X100129408Y-105562962D01*
X100192993Y-105545925D01*
X100307007Y-105480099D01*
X100400099Y-105387007D01*
X100465925Y-105272993D01*
X100482962Y-105209408D01*
X101115270Y-105841717D01*
X101115270Y-105841716D01*
X101154622Y-105787554D01*
X101251095Y-105598217D01*
X101316757Y-105396130D01*
X101316757Y-105396127D01*
X101350000Y-105186246D01*
X101350000Y-105038597D01*
X101369685Y-104971558D01*
X101422489Y-104925803D01*
X101491647Y-104915859D01*
X101555203Y-104944884D01*
G37*
%TD.AperFunction*%
%TA.AperFunction,Conductor*%
G36*
X99534075Y-107812993D02*
G01*
X99599901Y-107927007D01*
X99692993Y-108020099D01*
X99807007Y-108085925D01*
X99870590Y-108102962D01*
X99238282Y-108735269D01*
X99238282Y-108735270D01*
X99292452Y-108774626D01*
X99292451Y-108774626D01*
X99301495Y-108779234D01*
X99352292Y-108827208D01*
X99369087Y-108895029D01*
X99346550Y-108961164D01*
X99301499Y-109000202D01*
X99292182Y-109004949D01*
X99120213Y-109129890D01*
X98969894Y-109280209D01*
X98969890Y-109280214D01*
X98924818Y-109342251D01*
X98869488Y-109384917D01*
X98799875Y-109390896D01*
X98738080Y-109358290D01*
X98703722Y-109297451D01*
X98700500Y-109269366D01*
X98700500Y-108501359D01*
X98720185Y-108434320D01*
X98772989Y-108388565D01*
X98834231Y-108377741D01*
X98884729Y-108381716D01*
X99517037Y-107749408D01*
X99534075Y-107812993D01*
G37*
%TD.AperFunction*%
%TA.AperFunction,Conductor*%
G36*
X99534075Y-105272993D02*
G01*
X99599901Y-105387007D01*
X99692993Y-105480099D01*
X99807007Y-105545925D01*
X99870590Y-105562962D01*
X99238282Y-106195269D01*
X99238282Y-106195270D01*
X99292452Y-106234626D01*
X99302048Y-106239516D01*
X99352844Y-106287491D01*
X99369638Y-106355312D01*
X99347100Y-106421447D01*
X99302051Y-106460483D01*
X99292440Y-106465380D01*
X99238282Y-106504727D01*
X99238282Y-106504728D01*
X99870591Y-107137037D01*
X99807007Y-107154075D01*
X99692993Y-107219901D01*
X99599901Y-107312993D01*
X99534075Y-107427007D01*
X99517037Y-107490591D01*
X98884728Y-106858282D01*
X98834230Y-106862257D01*
X98765852Y-106847893D01*
X98716095Y-106798842D01*
X98700500Y-106738639D01*
X98700500Y-105961359D01*
X98720185Y-105894320D01*
X98772989Y-105848565D01*
X98834231Y-105837741D01*
X98884729Y-105841716D01*
X99517037Y-105209408D01*
X99534075Y-105272993D01*
G37*
%TD.AperFunction*%
%TA.AperFunction,Conductor*%
G36*
X108516334Y-100078314D02*
G01*
X108572267Y-100120186D01*
X108596684Y-100185650D01*
X108597000Y-100194496D01*
X108597000Y-100357402D01*
X108577315Y-100424441D01*
X108560681Y-100445083D01*
X108311581Y-100694182D01*
X108311577Y-100694187D01*
X108268963Y-100767999D01*
X108268963Y-100768000D01*
X108232523Y-100831114D01*
X108232523Y-100831115D01*
X108191599Y-100983843D01*
X108191599Y-100983845D01*
X108191599Y-101151946D01*
X108191600Y-101151959D01*
X108191600Y-102130330D01*
X108191599Y-102130348D01*
X108191599Y-102296054D01*
X108191598Y-102296054D01*
X108191599Y-102296057D01*
X108232523Y-102448785D01*
X108232524Y-102448786D01*
X108241586Y-102464482D01*
X108258200Y-102526483D01*
X108258200Y-105053903D01*
X108238515Y-105120942D01*
X108221881Y-105141584D01*
X107823081Y-105540384D01*
X107761758Y-105573869D01*
X107692066Y-105568885D01*
X107636133Y-105527013D01*
X107611716Y-105461549D01*
X107611400Y-105452703D01*
X107611400Y-100932096D01*
X107631085Y-100865057D01*
X107647714Y-100844420D01*
X108385321Y-100106813D01*
X108446642Y-100073330D01*
X108516334Y-100078314D01*
G37*
%TD.AperFunction*%
%TA.AperFunction,Conductor*%
G36*
X113774186Y-100603050D02*
G01*
X113783148Y-100601762D01*
X113807188Y-100612740D01*
X113832540Y-100620185D01*
X113838467Y-100627025D01*
X113846704Y-100630787D01*
X113860993Y-100653021D01*
X113878295Y-100672989D01*
X113880582Y-100683503D01*
X113884478Y-100689565D01*
X113889501Y-100724500D01*
X113889501Y-100897876D01*
X113895908Y-100957483D01*
X113946202Y-101092328D01*
X113946206Y-101092335D01*
X114032452Y-101207544D01*
X114032455Y-101207547D01*
X114147664Y-101293793D01*
X114147671Y-101293797D01*
X114192618Y-101310561D01*
X114282517Y-101344091D01*
X114342127Y-101350500D01*
X114352685Y-101350499D01*
X114419723Y-101370179D01*
X114440372Y-101386818D01*
X115110591Y-102057037D01*
X115047007Y-102074075D01*
X114932993Y-102139901D01*
X114839901Y-102232993D01*
X114774075Y-102347007D01*
X114757037Y-102410591D01*
X114124728Y-101778282D01*
X114124727Y-101778282D01*
X114085380Y-101832439D01*
X113988904Y-102021782D01*
X113923242Y-102223869D01*
X113923242Y-102223872D01*
X113890000Y-102433753D01*
X113890000Y-102646246D01*
X113923242Y-102856127D01*
X113923242Y-102856130D01*
X113988904Y-103058217D01*
X114085375Y-103247550D01*
X114124728Y-103301716D01*
X114757037Y-102669408D01*
X114774075Y-102732993D01*
X114839901Y-102847007D01*
X114932993Y-102940099D01*
X115047007Y-103005925D01*
X115110590Y-103022962D01*
X114478282Y-103655269D01*
X114478282Y-103655270D01*
X114532452Y-103694626D01*
X114532451Y-103694626D01*
X114541495Y-103699234D01*
X114592292Y-103747208D01*
X114609087Y-103815029D01*
X114586550Y-103881164D01*
X114541499Y-103920202D01*
X114532182Y-103924949D01*
X114360213Y-104049890D01*
X114209890Y-104200213D01*
X114084951Y-104372179D01*
X113988444Y-104561585D01*
X113922753Y-104763760D01*
X113889500Y-104973713D01*
X113889500Y-105120902D01*
X113883261Y-105142147D01*
X113881682Y-105164236D01*
X113873609Y-105175019D01*
X113869815Y-105187941D01*
X113853081Y-105202440D01*
X113839810Y-105220169D01*
X113827189Y-105224876D01*
X113817011Y-105233696D01*
X113795093Y-105236847D01*
X113774346Y-105244586D01*
X113761185Y-105241723D01*
X113747853Y-105243640D01*
X113727709Y-105234440D01*
X113706073Y-105229734D01*
X113688347Y-105216465D01*
X113684297Y-105214615D01*
X113677819Y-105208583D01*
X113605219Y-105135983D01*
X113571734Y-105074660D01*
X113568900Y-105048302D01*
X113568900Y-101990046D01*
X113568900Y-101990043D01*
X113567607Y-101985215D01*
X113527977Y-101837315D01*
X113484991Y-101762861D01*
X113484991Y-101762860D01*
X113448924Y-101700390D01*
X113448921Y-101700386D01*
X113448920Y-101700384D01*
X113341817Y-101593281D01*
X113308333Y-101531958D01*
X113305499Y-101505600D01*
X113305499Y-101460636D01*
X113290046Y-101343246D01*
X113290044Y-101343241D01*
X113290044Y-101343238D01*
X113229536Y-101197159D01*
X113229535Y-101197158D01*
X113229535Y-101197157D01*
X113201124Y-101160131D01*
X113192881Y-101138810D01*
X113180523Y-101119580D01*
X113177607Y-101099300D01*
X113175930Y-101094962D01*
X113175500Y-101084645D01*
X113175500Y-100915354D01*
X113195185Y-100848315D01*
X113201113Y-100839881D01*
X113229536Y-100802841D01*
X113281641Y-100677047D01*
X113325481Y-100622644D01*
X113391775Y-100600579D01*
X113396202Y-100600500D01*
X113765501Y-100600500D01*
X113774186Y-100603050D01*
G37*
%TD.AperFunction*%
%TA.AperFunction,Conductor*%
G36*
X98905703Y-103336920D02*
G01*
X98924819Y-103357748D01*
X98969896Y-103419792D01*
X99120213Y-103570109D01*
X99292179Y-103695048D01*
X99292181Y-103695049D01*
X99292184Y-103695051D01*
X99301493Y-103699794D01*
X99352290Y-103747766D01*
X99369087Y-103815587D01*
X99346552Y-103881722D01*
X99301505Y-103920760D01*
X99292446Y-103925376D01*
X99292440Y-103925380D01*
X99238282Y-103964727D01*
X99238282Y-103964728D01*
X99870591Y-104597037D01*
X99807007Y-104614075D01*
X99692993Y-104679901D01*
X99599901Y-104772993D01*
X99534075Y-104887007D01*
X99517037Y-104950591D01*
X98884728Y-104318282D01*
X98834230Y-104322257D01*
X98765852Y-104307893D01*
X98716095Y-104258842D01*
X98700500Y-104198639D01*
X98700500Y-103430633D01*
X98720185Y-103363594D01*
X98772989Y-103317839D01*
X98842147Y-103307895D01*
X98905703Y-103336920D01*
G37*
%TD.AperFunction*%
%TA.AperFunction,Conductor*%
G36*
X116355269Y-103301716D02*
G01*
X116365770Y-103300890D01*
X116434148Y-103315254D01*
X116483905Y-103364305D01*
X116499500Y-103424508D01*
X116499500Y-104134310D01*
X116479815Y-104201349D01*
X116427011Y-104247104D01*
X116357853Y-104257048D01*
X116294297Y-104228023D01*
X116275185Y-104207199D01*
X116270111Y-104200216D01*
X116270105Y-104200209D01*
X116119786Y-104049890D01*
X115947817Y-103924949D01*
X115938504Y-103920204D01*
X115887707Y-103872230D01*
X115870912Y-103804409D01*
X115893449Y-103738274D01*
X115938507Y-103699232D01*
X115947555Y-103694622D01*
X116001716Y-103655270D01*
X116001717Y-103655270D01*
X115369408Y-103022962D01*
X115432993Y-103005925D01*
X115547007Y-102940099D01*
X115640099Y-102847007D01*
X115705925Y-102732993D01*
X115722962Y-102669408D01*
X116355269Y-103301716D01*
G37*
%TD.AperFunction*%
%TA.AperFunction,Conductor*%
G36*
X116397302Y-101289198D02*
G01*
X116401858Y-101288873D01*
X116428784Y-101303576D01*
X116456703Y-101316326D01*
X116459173Y-101320169D01*
X116463181Y-101322358D01*
X116477884Y-101349285D01*
X116494477Y-101375104D01*
X116495368Y-101381304D01*
X116496666Y-101383681D01*
X116499500Y-101410039D01*
X116499500Y-101655490D01*
X116479815Y-101722529D01*
X116427011Y-101768284D01*
X116365772Y-101779108D01*
X116355270Y-101778281D01*
X115722962Y-102410590D01*
X115705925Y-102347007D01*
X115640099Y-102232993D01*
X115547007Y-102139901D01*
X115432993Y-102074075D01*
X115369409Y-102057037D01*
X116039627Y-101386818D01*
X116100950Y-101353333D01*
X116127307Y-101350499D01*
X116137872Y-101350499D01*
X116197483Y-101344091D01*
X116332167Y-101293856D01*
X116362775Y-101291668D01*
X116393147Y-101287301D01*
X116397302Y-101289198D01*
G37*
%TD.AperFunction*%
%TD*%
M02*
