M48
; DRILL file {KiCad 9.0.5} date 2025-10-29T22:43:47-0600
; FORMAT={-:-/ absolute / metric / decimal}
; #@! TF.CreationDate,2025-10-29T22:43:47-06:00
; #@! TF.GenerationSoftware,Kicad,Pcbnew,9.0.5
; #@! TF.FileFunction,Plated,1,2,PTH
FMAT,2
METRIC
; #@! TA.AperFunction,Plated,PTH,ViaDrill
T1C0.300
; #@! TA.AperFunction,Plated,PTH,ComponentDrill
T2C0.650
; #@! TA.AperFunction,Plated,PTH,ComponentDrill
T3C0.700
; #@! TA.AperFunction,Plated,PTH,ComponentDrill
T4C0.990
; #@! TA.AperFunction,Plated,PTH,ComponentDrill
T5C1.000
%
G90
G05
T1
X95.6Y-141.2
X96.717Y-143.686
X97.91Y-142.764
X98.6Y-138.2
X99.8Y-147.6
X99.992Y-134.258
X100.217Y-131.56
X100.855Y-126.483
X100.912Y-140.467
X101.096Y-130.431
X101.248Y-121.541
X101.657Y-119.493
X103.255Y-123.933
X104.0Y-112.6
X104.288Y-118.519
X104.4Y-144.243
X104.479Y-119.363
X105.334Y-145.987
X105.378Y-143.423
X105.744Y-145.247
X105.909Y-125.761
X106.05Y-139.5
X106.574Y-147.119
X107.648Y-138.144
X107.782Y-128.72
X108.257Y-102.98
X108.301Y-120.644
X108.86Y-137.825
X108.95Y-122.553
X109.093Y-132.33
X109.173Y-106.214
X109.432Y-129.785
X109.497Y-133.091
X110.174Y-131.214
X110.786Y-132.343
X110.961Y-137.51
X111.748Y-136.579
X112.367Y-102.318
X112.807Y-134.431
X113.345Y-138.682
X114.242Y-137.819
X114.8Y-141.6
X115.563Y-129.315
X116.15Y-135.261
X117.579Y-134.942
T4
X92.6Y-141.0
X95.782Y-137.818
X97.196Y-145.596
X100.378Y-142.414
T5
X100.0Y-100.0
X100.0Y-102.54
X100.0Y-105.08
X100.0Y-107.62
X100.0Y-110.16
X100.0Y-112.7
X100.0Y-115.24
X100.0Y-117.78
X100.0Y-120.32
X100.0Y-122.86
X100.0Y-125.4
X100.0Y-127.94
X115.24Y-100.0
X115.24Y-102.54
X115.24Y-105.08
X115.24Y-107.62
X115.24Y-110.16
X115.24Y-112.7
X115.24Y-115.24
X115.24Y-117.78
X115.24Y-120.32
X115.24Y-122.86
X115.24Y-125.4
X115.24Y-127.94
T2
G00X103.696Y-148.128
M15
G01X103.413Y-148.411
M16
G05
G00X107.126Y-151.558
M15
G01X106.843Y-151.841
M16
G05
T3
G00X101.377Y-150.023
M15
G01X101.023Y-150.377
M16
G05
G00X105.231Y-153.877
M15
G01X104.877Y-154.231
M16
G05
M30
