%TF.GenerationSoftware,KiCad,Pcbnew,9.0.5*%
%TF.CreationDate,2025-10-29T22:43:50-06:00*%
%TF.ProjectId,arduino_pro_micro,61726475-696e-46f5-9f70-726f5f6d6963,rev?*%
%TF.SameCoordinates,Original*%
%TF.FileFunction,Legend,Top*%
%TF.FilePolarity,Positive*%
%FSLAX46Y46*%
G04 Gerber Fmt 4.6, Leading zero omitted, Abs format (unit mm)*
G04 Created by KiCad (PCBNEW 9.0.5) date 2025-10-29 22:43:50*
%MOMM*%
%LPD*%
G01*
G04 APERTURE LIST*
%ADD10C,0.254000*%
%ADD11C,0.150000*%
%ADD12C,0.120000*%
%ADD13C,0.100000*%
%ADD14C,0.127000*%
%ADD15C,0.200000*%
%ADD16C,0.203200*%
G04 APERTURE END LIST*
D10*
X115300842Y-142906103D02*
X115728473Y-143333735D01*
X114531105Y-142735051D02*
X115300842Y-142906103D01*
X115300842Y-142906103D02*
X115129789Y-142136367D01*
X116797551Y-142264657D02*
X116284393Y-142777814D01*
X116540972Y-142521236D02*
X115642946Y-141623210D01*
X115642946Y-141623210D02*
X115685710Y-141837026D01*
X115685710Y-141837026D02*
X115685710Y-142008078D01*
X115685710Y-142008078D02*
X115642946Y-142136367D01*
D11*
X99666666Y-97074819D02*
X99666666Y-97789104D01*
X99666666Y-97789104D02*
X99619047Y-97931961D01*
X99619047Y-97931961D02*
X99523809Y-98027200D01*
X99523809Y-98027200D02*
X99380952Y-98074819D01*
X99380952Y-98074819D02*
X99285714Y-98074819D01*
X100095238Y-97170057D02*
X100142857Y-97122438D01*
X100142857Y-97122438D02*
X100238095Y-97074819D01*
X100238095Y-97074819D02*
X100476190Y-97074819D01*
X100476190Y-97074819D02*
X100571428Y-97122438D01*
X100571428Y-97122438D02*
X100619047Y-97170057D01*
X100619047Y-97170057D02*
X100666666Y-97265295D01*
X100666666Y-97265295D02*
X100666666Y-97360533D01*
X100666666Y-97360533D02*
X100619047Y-97503390D01*
X100619047Y-97503390D02*
X100047619Y-98074819D01*
X100047619Y-98074819D02*
X100666666Y-98074819D01*
X94380588Y-145436951D02*
X94444293Y-145075958D01*
X94125770Y-145182132D02*
X94571702Y-144736200D01*
X94571702Y-144736200D02*
X94741581Y-144906079D01*
X94741581Y-144906079D02*
X94762815Y-144969784D01*
X94762815Y-144969784D02*
X94762815Y-145012254D01*
X94762815Y-145012254D02*
X94741581Y-145075958D01*
X94741581Y-145075958D02*
X94677876Y-145139663D01*
X94677876Y-145139663D02*
X94614171Y-145160897D01*
X94614171Y-145160897D02*
X94571702Y-145160897D01*
X94571702Y-145160897D02*
X94507997Y-145139663D01*
X94507997Y-145139663D02*
X94338118Y-144969784D01*
X94805285Y-145394481D02*
X94953929Y-145543125D01*
X94784050Y-145840413D02*
X94571702Y-145628064D01*
X94571702Y-145628064D02*
X95017634Y-145182132D01*
X95017634Y-145182132D02*
X95229982Y-145394481D01*
X94975164Y-145989057D02*
X95017634Y-146073996D01*
X95017634Y-146073996D02*
X95123808Y-146180171D01*
X95123808Y-146180171D02*
X95187513Y-146201406D01*
X95187513Y-146201406D02*
X95229982Y-146201406D01*
X95229982Y-146201406D02*
X95293687Y-146180171D01*
X95293687Y-146180171D02*
X95336157Y-146137701D01*
X95336157Y-146137701D02*
X95357392Y-146073996D01*
X95357392Y-146073996D02*
X95357392Y-146031527D01*
X95357392Y-146031527D02*
X95336157Y-145967822D01*
X95336157Y-145967822D02*
X95272452Y-145861648D01*
X95272452Y-145861648D02*
X95251217Y-145797943D01*
X95251217Y-145797943D02*
X95251217Y-145755474D01*
X95251217Y-145755474D02*
X95272452Y-145691769D01*
X95272452Y-145691769D02*
X95314922Y-145649299D01*
X95314922Y-145649299D02*
X95378626Y-145628064D01*
X95378626Y-145628064D02*
X95421096Y-145628064D01*
X95421096Y-145628064D02*
X95484801Y-145649299D01*
X95484801Y-145649299D02*
X95590975Y-145755474D01*
X95590975Y-145755474D02*
X95633445Y-145840413D01*
X95633444Y-146222640D02*
X95782088Y-146371284D01*
X95612209Y-146668572D02*
X95399861Y-146456224D01*
X95399861Y-146456224D02*
X95845793Y-146010292D01*
X95845793Y-146010292D02*
X96058141Y-146222640D01*
X96185551Y-146350049D02*
X96440369Y-146604868D01*
X95867028Y-146923390D02*
X96312960Y-146477459D01*
X96376664Y-147433027D02*
X96121846Y-147178209D01*
X96249255Y-147305618D02*
X96695187Y-146859686D01*
X96695187Y-146859686D02*
X96589013Y-146880921D01*
X96589013Y-146880921D02*
X96504074Y-146880921D01*
X96504074Y-146880921D02*
X96440369Y-146859686D01*
X114906666Y-97074819D02*
X114906666Y-97789104D01*
X114906666Y-97789104D02*
X114859047Y-97931961D01*
X114859047Y-97931961D02*
X114763809Y-98027200D01*
X114763809Y-98027200D02*
X114620952Y-98074819D01*
X114620952Y-98074819D02*
X114525714Y-98074819D01*
X115287619Y-97074819D02*
X115906666Y-97074819D01*
X115906666Y-97074819D02*
X115573333Y-97455771D01*
X115573333Y-97455771D02*
X115716190Y-97455771D01*
X115716190Y-97455771D02*
X115811428Y-97503390D01*
X115811428Y-97503390D02*
X115859047Y-97551009D01*
X115859047Y-97551009D02*
X115906666Y-97646247D01*
X115906666Y-97646247D02*
X115906666Y-97884342D01*
X115906666Y-97884342D02*
X115859047Y-97979580D01*
X115859047Y-97979580D02*
X115811428Y-98027200D01*
X115811428Y-98027200D02*
X115716190Y-98074819D01*
X115716190Y-98074819D02*
X115430476Y-98074819D01*
X115430476Y-98074819D02*
X115335238Y-98027200D01*
X115335238Y-98027200D02*
X115287619Y-97979580D01*
D12*
%TO.C,R3*%
X109884879Y-101219999D02*
X110220121Y-101219999D01*
X109884879Y-101980001D02*
X110220121Y-101980001D01*
%TO.C,R2*%
X109884879Y-100019999D02*
X110220121Y-100019999D01*
X109884879Y-100780001D02*
X110220121Y-100780001D01*
D13*
%TO.C,TX1*%
X111445001Y-100400000D02*
G75*
G02*
X111344999Y-100400000I-50001J0D01*
G01*
X111344999Y-100400000D02*
G75*
G02*
X111445001Y-100400000I50001J0D01*
G01*
%TO.C,RX1*%
X111445001Y-101600000D02*
G75*
G02*
X111344999Y-101600000I-50001J0D01*
G01*
X111344999Y-101600000D02*
G75*
G02*
X111445001Y-101600000I50001J0D01*
G01*
%TO.C,PWR1*%
X111415000Y-99200000D02*
G75*
G02*
X111315000Y-99200000I-50000J0D01*
G01*
X111315000Y-99200000D02*
G75*
G02*
X111415000Y-99200000I50000J0D01*
G01*
D12*
%TO.C,C3*%
X101228649Y-139737766D02*
X101064834Y-139573951D01*
X101737766Y-139228649D02*
X101573951Y-139064834D01*
D14*
%TO.C,J1*%
X104576469Y-155980632D02*
X103335497Y-154739660D01*
X106485657Y-154071444D02*
X104576469Y-155980632D01*
X99273168Y-150677331D02*
X100514140Y-151918303D01*
X101182356Y-148768143D02*
X99273168Y-150677331D01*
D15*
X105418931Y-148096391D02*
G75*
G02*
X105218931Y-148096391I-100000J0D01*
G01*
X105218931Y-148096391D02*
G75*
G02*
X105418931Y-148096391I100000J0D01*
G01*
D12*
%TO.C,C1*%
X117926049Y-133935166D02*
X117762234Y-133771351D01*
X118435166Y-133426049D02*
X118271351Y-133262234D01*
%TO.C,R1*%
X97372675Y-136435273D02*
X97609727Y-136672325D01*
X96835273Y-136972675D02*
X97072325Y-137209727D01*
D13*
%TO.C,Y1*%
X110022435Y-148227565D02*
X110022435Y-148227565D01*
D15*
X110040113Y-144815775D02*
X118065775Y-136790113D01*
D13*
X110093146Y-148156854D02*
X110093146Y-148156854D01*
D15*
X110888641Y-145664303D02*
X110040113Y-144815775D01*
X113434225Y-148209887D02*
X112585697Y-147361359D01*
X118065775Y-136790113D02*
X118914303Y-137638641D01*
X120611359Y-139335697D02*
X121459887Y-140184225D01*
X121459887Y-140184225D02*
X113434225Y-148209887D01*
D13*
X110022435Y-148227565D02*
G75*
G02*
X110093145Y-148156855I35355J35355D01*
G01*
X110093146Y-148156854D02*
G75*
G02*
X110022435Y-148227565I-35355J-35356D01*
G01*
D12*
%TO.C,J2*%
X98620000Y-98620000D02*
X100000000Y-98620000D01*
X98620000Y-100000000D02*
X98620000Y-98620000D01*
X98620000Y-101270000D02*
X98620000Y-129320000D01*
X98620000Y-101270000D02*
X101380000Y-101270000D01*
X98620000Y-129320000D02*
X101380000Y-129320000D01*
X101380000Y-101270000D02*
X101380000Y-129320000D01*
D14*
%TO.C,RESET1*%
X97793712Y-144638058D02*
X99420058Y-143011712D01*
X95926950Y-145380520D02*
X92744970Y-142198539D01*
X96980539Y-137962970D02*
X100233230Y-141215661D01*
X93554607Y-140398952D02*
X95180952Y-138772607D01*
D15*
X98141199Y-146441180D02*
G75*
G02*
X97941199Y-146441180I-100000J0D01*
G01*
X97941199Y-146441180D02*
G75*
G02*
X98141199Y-146441180I100000J0D01*
G01*
D14*
X98244099Y-141707100D02*
G75*
G02*
X94734101Y-141707100I-1754999J0D01*
G01*
X94734101Y-141707100D02*
G75*
G02*
X98244099Y-141707100I1754999J0D01*
G01*
D12*
%TO.C,R4*%
X109884879Y-98819999D02*
X110220121Y-98819999D01*
X109884879Y-99580001D02*
X110220121Y-99580001D01*
D16*
%TO.C,U1*%
X100711775Y-134400000D02*
X107500000Y-127611775D01*
X107500000Y-127611775D02*
X114288225Y-134400000D01*
X107500000Y-141188225D02*
X100711775Y-134400000D01*
X114288225Y-134400000D02*
X107500000Y-141188225D01*
D10*
X99672049Y-135213173D02*
G75*
G02*
X99418049Y-135213173I-127000J0D01*
G01*
X99418049Y-135213173D02*
G75*
G02*
X99672049Y-135213173I127000J0D01*
G01*
X102125846Y-134400000D02*
G75*
G02*
X101560446Y-134400000I-282700J0D01*
G01*
X101560446Y-134400000D02*
G75*
G02*
X102125846Y-134400000I282700J0D01*
G01*
D12*
%TO.C,C2*%
X106594449Y-145211466D02*
X106430634Y-145047651D01*
X107103566Y-144702349D02*
X106939751Y-144538534D01*
%TO.C,J3*%
X113860000Y-98620000D02*
X115240000Y-98620000D01*
X113860000Y-100000000D02*
X113860000Y-98620000D01*
X113860000Y-101270000D02*
X113860000Y-129320000D01*
X113860000Y-101270000D02*
X116620000Y-101270000D01*
X113860000Y-129320000D02*
X116620000Y-129320000D01*
X116620000Y-101270000D02*
X116620000Y-129320000D01*
%TD*%
M02*
