%TF.GenerationSoftware,KiCad,Pcbnew,9.0.5*%
%TF.CreationDate,2025-10-29T22:43:50-06:00*%
%TF.ProjectId,arduino_pro_micro,61726475-696e-46f5-9f70-726f5f6d6963,rev?*%
%TF.SameCoordinates,Original*%
%TF.FileFunction,Paste,Top*%
%TF.FilePolarity,Positive*%
%FSLAX46Y46*%
G04 Gerber Fmt 4.6, Leading zero omitted, Abs format (unit mm)*
G04 Created by KiCad (PCBNEW 9.0.5) date 2025-10-29 22:43:50*
%MOMM*%
%LPD*%
G01*
G04 APERTURE LIST*
G04 Aperture macros list*
%AMRoundRect*
0 Rectangle with rounded corners*
0 $1 Rounding radius*
0 $2 $3 $4 $5 $6 $7 $8 $9 X,Y pos of 4 corners*
0 Add a 4 corners polygon primitive as box body*
4,1,4,$2,$3,$4,$5,$6,$7,$8,$9,$2,$3,0*
0 Add four circle primitives for the rounded corners*
1,1,$1+$1,$2,$3*
1,1,$1+$1,$4,$5*
1,1,$1+$1,$6,$7*
1,1,$1+$1,$8,$9*
0 Add four rect primitives between the rounded corners*
20,1,$1+$1,$2,$3,$4,$5,0*
20,1,$1+$1,$4,$5,$6,$7,0*
20,1,$1+$1,$6,$7,$8,$9,0*
20,1,$1+$1,$8,$9,$2,$3,0*%
%AMRotRect*
0 Rectangle, with rotation*
0 The origin of the aperture is its center*
0 $1 length*
0 $2 width*
0 $3 Rotation angle, in degrees counterclockwise*
0 Add horizontal line*
21,1,$1,$2,0,0,$3*%
G04 Aperture macros list end*
%ADD10RoundRect,0.160000X-0.197500X-0.160000X0.197500X-0.160000X0.197500X0.160000X-0.197500X0.160000X0*%
%ADD11RoundRect,0.079500X-0.079500X-0.100500X0.079500X-0.100500X0.079500X0.100500X-0.079500X0.100500X0*%
%ADD12RoundRect,0.090000X-0.139000X-0.090000X0.139000X-0.090000X0.139000X0.090000X-0.139000X0.090000X0*%
%ADD13RoundRect,0.155000X0.259862X-0.040659X-0.040659X0.259862X-0.259862X0.040659X0.040659X-0.259862X0*%
%ADD14RotRect,0.400000X1.750000X315.000000*%
%ADD15RotRect,1.425000X2.500000X315.000000*%
%ADD16RoundRect,0.160000X-0.252791X0.026517X0.026517X-0.252791X0.252791X-0.026517X-0.026517X0.252791X0*%
%ADD17RotRect,2.000000X5.500000X135.000000*%
%ADD18RotRect,1.500000X0.500000X45.000000*%
%ADD19RotRect,0.500000X1.500000X45.000000*%
G04 APERTURE END LIST*
D10*
%TO.C,R3*%
X110650000Y-101600000D03*
X109455000Y-101600000D03*
%TD*%
%TO.C,R2*%
X110650000Y-100400000D03*
X109455000Y-100400000D03*
%TD*%
D11*
%TO.C,TX1*%
X111910000Y-100400000D03*
X112600000Y-100400000D03*
%TD*%
%TO.C,RX1*%
X111910000Y-101600000D03*
X112600000Y-101600000D03*
%TD*%
D12*
%TO.C,PWR1*%
X112832500Y-99200000D03*
X111967500Y-99200000D03*
%TD*%
D13*
%TO.C,C3*%
X101802583Y-139802583D03*
X101000017Y-139000017D03*
%TD*%
D14*
%TO.C,J1*%
X104205238Y-149210085D03*
X104664857Y-149669704D03*
X105124477Y-150129323D03*
X105584096Y-150588943D03*
X106043715Y-151048562D03*
D15*
X102269533Y-151623086D03*
X103630714Y-152984267D03*
%TD*%
D13*
%TO.C,C1*%
X118499983Y-133999983D03*
X117697417Y-133197417D03*
%TD*%
D16*
%TO.C,R1*%
X96800004Y-136400004D03*
X97644996Y-137244996D03*
%TD*%
D17*
%TO.C,Y1*%
X112391243Y-145858757D03*
X119108757Y-139141243D03*
%TD*%
D10*
%TO.C,R4*%
X109455000Y-99200000D03*
X110650000Y-99200000D03*
%TD*%
D18*
%TO.C,U1*%
X100499643Y-135743503D03*
X101065328Y-136309188D03*
X101631014Y-136874874D03*
X102196699Y-137440559D03*
X102762385Y-138006245D03*
X103328070Y-138571930D03*
X103893755Y-139137615D03*
X104459441Y-139703301D03*
X105025126Y-140268986D03*
X105590812Y-140834672D03*
X106156497Y-141400357D03*
D19*
X108843503Y-141400357D03*
X109409188Y-140834672D03*
X109974874Y-140268986D03*
X110540559Y-139703301D03*
X111106245Y-139137615D03*
X111671930Y-138571930D03*
X112237615Y-138006245D03*
X112803301Y-137440559D03*
X113368986Y-136874874D03*
X113934672Y-136309188D03*
X114500357Y-135743503D03*
D18*
X114500357Y-133056497D03*
X113934672Y-132490812D03*
X113368986Y-131925126D03*
X112803301Y-131359441D03*
X112237615Y-130793755D03*
X111671930Y-130228070D03*
X111106245Y-129662385D03*
X110540559Y-129096699D03*
X109974874Y-128531014D03*
X109409188Y-127965328D03*
X108843503Y-127399643D03*
D19*
X106156497Y-127399643D03*
X105590812Y-127965328D03*
X105025126Y-128531014D03*
X104459441Y-129096699D03*
X103893755Y-129662385D03*
X103328070Y-130228070D03*
X102762385Y-130793755D03*
X102196699Y-131359441D03*
X101631014Y-131925126D03*
X101065328Y-132490812D03*
X100499643Y-133056497D03*
%TD*%
D13*
%TO.C,C2*%
X107168383Y-145276283D03*
X106365817Y-144473717D03*
%TD*%
M02*
