%TF.GenerationSoftware,KiCad,Pcbnew,9.0.5*%
%TF.CreationDate,2025-10-29T22:43:50-06:00*%
%TF.ProjectId,arduino_pro_micro,61726475-696e-46f5-9f70-726f5f6d6963,rev?*%
%TF.SameCoordinates,Original*%
%TF.FileFunction,Copper,L2,Bot*%
%TF.FilePolarity,Positive*%
%FSLAX46Y46*%
G04 Gerber Fmt 4.6, Leading zero omitted, Abs format (unit mm)*
G04 Created by KiCad (PCBNEW 9.0.5) date 2025-10-29 22:43:50*
%MOMM*%
%LPD*%
G01*
G04 APERTURE LIST*
G04 Aperture macros list*
%AMHorizOval*
0 Thick line with rounded ends*
0 $1 width*
0 $2 $3 position (X,Y) of the first rounded end (center of the circle)*
0 $4 $5 position (X,Y) of the second rounded end (center of the circle)*
0 Add line between two ends*
20,1,$1,$2,$3,$4,$5,0*
0 Add two circle primitives to create the rounded ends*
1,1,$1,$2,$3*
1,1,$1,$4,$5*%
%AMRotRect*
0 Rectangle, with rotation*
0 The origin of the aperture is its center*
0 $1 length*
0 $2 width*
0 $3 Rotation angle, in degrees counterclockwise*
0 Add horizontal line*
21,1,$1,$2,0,0,$3*%
%AMFreePoly0*
4,1,13,0.528536,0.733536,0.530001,0.730000,0.530001,-0.730000,0.528536,-0.733536,0.525001,-0.735000,-1.475000,-0.735000,-1.478536,-0.733536,-1.480000,-0.730000,-1.480000,0.730000,-1.478536,0.733536,-1.475000,0.735000,0.525001,0.735000,0.528536,0.733536,0.528536,0.733536,$1*%
%AMFreePoly1*
4,1,13,1.478536,0.733536,1.480000,0.730000,1.480000,-0.730000,1.478536,-0.733536,1.475000,-0.735000,-0.525001,-0.735000,-0.528536,-0.733536,-0.530001,-0.730000,-0.530001,0.730000,-0.528536,0.733536,-0.525001,0.735000,1.475000,0.735000,1.478536,0.733536,1.478536,0.733536,$1*%
%AMFreePoly2*
4,1,127,0.653536,2.053536,0.655000,2.050000,0.655000,-0.799999,0.654994,-0.800238,0.652994,-0.842238,0.652950,-0.842707,0.649950,-0.863707,0.649903,-0.863981,0.645902,-0.883981,0.645864,-0.884158,0.640864,-0.905158,0.640789,-0.905437,0.634789,-0.925437,0.634692,-0.925729,0.627692,-0.944729,0.627642,-0.944857,0.619642,-0.964857,0.619519,-0.965140,0.610519,-0.984140,0.610371,-0.984428,
0.600371,-1.002428,0.600266,-1.002607,0.589266,-1.020607,0.589198,-1.020716,0.578198,-1.037716,0.577972,-1.038037,0.564972,-1.055037,0.564763,-1.055293,0.550763,-1.071293,0.550655,-1.071412,0.536655,-1.086412,0.536412,-1.086656,0.521412,-1.100656,0.521293,-1.100763,0.505294,-1.114763,0.505037,-1.114972,0.488037,-1.127972,0.487716,-1.128198,0.470716,-1.139198,0.470607,-1.139266,
0.452607,-1.150265,0.452428,-1.150371,0.434428,-1.160371,0.434140,-1.160519,0.415140,-1.169519,0.414857,-1.169642,0.394857,-1.177643,0.394730,-1.177692,0.375729,-1.184692,0.375437,-1.184789,0.355437,-1.190789,0.355159,-1.190864,0.334158,-1.195864,0.333981,-1.195903,0.313982,-1.199903,0.313707,-1.199950,0.292707,-1.202950,0.292238,-1.202994,0.250238,-1.204993,0.250000,-1.205000,
-0.250000,-1.205000,-0.250238,-1.204993,-0.292238,-1.202994,-0.292707,-1.202950,-0.313707,-1.199950,-0.313982,-1.199903,-0.333981,-1.195903,-0.334158,-1.195864,-0.355159,-1.190864,-0.355437,-1.190789,-0.375437,-1.184789,-0.375729,-1.184692,-0.394730,-1.177692,-0.394857,-1.177643,-0.414857,-1.169642,-0.415140,-1.169519,-0.434140,-1.160519,-0.434428,-1.160371,-0.452428,-1.150371,-0.452607,-1.150265,
-0.470607,-1.139266,-0.470716,-1.139198,-0.487716,-1.128198,-0.488037,-1.127972,-0.505037,-1.114972,-0.505294,-1.114763,-0.521293,-1.100763,-0.521412,-1.100656,-0.536412,-1.086656,-0.536655,-1.086412,-0.550655,-1.071412,-0.550763,-1.071293,-0.564763,-1.055293,-0.564972,-1.055037,-0.577972,-1.038037,-0.578198,-1.037716,-0.589198,-1.020716,-0.589266,-1.020607,-0.600266,-1.002607,-0.600371,-1.002428,
-0.610371,-0.984428,-0.610519,-0.984140,-0.619519,-0.965140,-0.619642,-0.964857,-0.627642,-0.944857,-0.627692,-0.944729,-0.634692,-0.925729,-0.634789,-0.925437,-0.640789,-0.905437,-0.640864,-0.905158,-0.645864,-0.884158,-0.645902,-0.883981,-0.649903,-0.863981,-0.649950,-0.863707,-0.652950,-0.842707,-0.652994,-0.842238,-0.654994,-0.800238,-0.655000,-0.799999,-0.655000,1.345001,-1.175000,1.345000,
-1.178536,1.346464,-1.180000,1.350000,-1.180000,2.050000,-1.178536,2.053536,-1.175000,2.055000,0.650000,2.055000,0.653536,2.053536,0.653536,2.053536,$1*%
%AMFreePoly3*
4,1,127,1.178536,2.053536,1.180000,2.050000,1.180000,1.350000,1.178536,1.346464,1.175000,1.345000,0.655000,1.345001,0.655000,-0.799999,0.654994,-0.800238,0.652994,-0.842238,0.652950,-0.842707,0.649950,-0.863707,0.649903,-0.863981,0.645902,-0.883981,0.645864,-0.884158,0.640864,-0.905158,0.640789,-0.905437,0.634789,-0.925437,0.634692,-0.925729,0.627692,-0.944729,0.627642,-0.944857,
0.619642,-0.964857,0.619519,-0.965140,0.610519,-0.984140,0.610371,-0.984428,0.600371,-1.002428,0.600266,-1.002607,0.589266,-1.020607,0.589198,-1.020716,0.578198,-1.037716,0.577972,-1.038037,0.564972,-1.055037,0.564763,-1.055293,0.550763,-1.071293,0.550655,-1.071412,0.536655,-1.086412,0.536412,-1.086656,0.521412,-1.100656,0.521293,-1.100763,0.505294,-1.114763,0.505037,-1.114972,
0.488037,-1.127972,0.487716,-1.128198,0.470716,-1.139198,0.470607,-1.139266,0.452607,-1.150265,0.452428,-1.150371,0.434428,-1.160371,0.434140,-1.160519,0.415140,-1.169519,0.414857,-1.169642,0.394857,-1.177643,0.394730,-1.177692,0.375729,-1.184692,0.375437,-1.184789,0.355437,-1.190789,0.355159,-1.190864,0.334158,-1.195864,0.333981,-1.195903,0.313982,-1.199903,0.313707,-1.199950,
0.292707,-1.202950,0.292238,-1.202994,0.250238,-1.204993,0.250000,-1.205000,-0.250000,-1.205000,-0.250238,-1.204993,-0.292238,-1.202994,-0.292707,-1.202950,-0.313707,-1.199950,-0.313982,-1.199903,-0.333981,-1.195903,-0.334158,-1.195864,-0.355159,-1.190864,-0.355437,-1.190789,-0.375437,-1.184789,-0.375729,-1.184692,-0.394730,-1.177692,-0.394857,-1.177643,-0.414857,-1.169642,-0.415140,-1.169519,
-0.434140,-1.160519,-0.434428,-1.160371,-0.452428,-1.150371,-0.452607,-1.150265,-0.470607,-1.139266,-0.470716,-1.139198,-0.487716,-1.128198,-0.488037,-1.127972,-0.505037,-1.114972,-0.505294,-1.114763,-0.521293,-1.100763,-0.521412,-1.100656,-0.536412,-1.086656,-0.536655,-1.086412,-0.550655,-1.071412,-0.550763,-1.071293,-0.564763,-1.055293,-0.564972,-1.055037,-0.577972,-1.038037,-0.578198,-1.037716,
-0.589198,-1.020716,-0.589266,-1.020607,-0.600266,-1.002607,-0.600371,-1.002428,-0.610371,-0.984428,-0.610519,-0.984140,-0.619519,-0.965140,-0.619642,-0.964857,-0.627642,-0.944857,-0.627692,-0.944729,-0.634692,-0.925729,-0.634789,-0.925437,-0.640789,-0.905437,-0.640864,-0.905158,-0.645864,-0.884158,-0.645902,-0.883981,-0.649903,-0.863981,-0.649950,-0.863707,-0.652950,-0.842707,-0.652994,-0.842238,
-0.654994,-0.800238,-0.655000,-0.799999,-0.655000,2.050000,-0.653536,2.053536,-0.650000,2.055000,1.175000,2.055000,1.178536,2.053536,1.178536,2.053536,$1*%
G04 Aperture macros list end*
%TA.AperFunction,ComponentPad*%
%ADD10FreePoly0,315.000000*%
%TD*%
%TA.AperFunction,ComponentPad*%
%ADD11FreePoly1,315.000000*%
%TD*%
%TA.AperFunction,ComponentPad*%
%ADD12FreePoly2,315.000000*%
%TD*%
%TA.AperFunction,ComponentPad*%
%ADD13FreePoly3,315.000000*%
%TD*%
%TA.AperFunction,SMDPad,CuDef*%
%ADD14HorizOval,1.050000X-0.371231X-0.371231X0.371231X0.371231X0*%
%TD*%
%TA.AperFunction,ComponentPad*%
%ADD15R,1.700000X1.700000*%
%TD*%
%TA.AperFunction,ComponentPad*%
%ADD16C,1.700000*%
%TD*%
%TA.AperFunction,ComponentPad*%
%ADD17RotRect,1.498000X1.498000X135.000000*%
%TD*%
%TA.AperFunction,ComponentPad*%
%ADD18C,1.498000*%
%TD*%
%TA.AperFunction,ViaPad*%
%ADD19C,0.600000*%
%TD*%
%TA.AperFunction,Conductor*%
%ADD20C,0.200000*%
%TD*%
G04 APERTURE END LIST*
D10*
%TO.P,J1,6,SHIELD*%
%TO.N,unconnected-(J1-SHIELD-Pad6)*%
X103554700Y-148269633D03*
D11*
%TO.P,J1,7,SHIELD__1*%
%TO.N,unconnected-(J1-SHIELD__1-Pad7)*%
X106984167Y-151699100D03*
D12*
%TO.P,J1,8,SHIELD__2*%
%TO.N,unconnected-(J1-SHIELD__2-Pad8)*%
X101200034Y-150200034D03*
D13*
%TO.P,J1,9,SHIELD__3*%
%TO.N,unconnected-(J1-SHIELD__3-Pad9)*%
X105053766Y-154053766D03*
D14*
%TO.P,J1,10,SHIELD__4*%
%TO.N,unconnected-(J1-SHIELD__4-Pad10)*%
X103554700Y-148269633D03*
%TO.P,J1,11,SHIELD__5*%
%TO.N,unconnected-(J1-SHIELD__5-Pad11)*%
X106984167Y-151699100D03*
%TD*%
D15*
%TO.P,J2,1,Pin_1*%
%TO.N,/TX*%
X100000000Y-100000000D03*
D16*
%TO.P,J2,2,Pin_2*%
%TO.N,/RX*%
X100000000Y-102540000D03*
%TO.P,J2,3,Pin_3*%
%TO.N,GND*%
X100000000Y-105080000D03*
%TO.P,J2,4,Pin_4*%
X100000000Y-107620000D03*
%TO.P,J2,5,Pin_5*%
%TO.N,/D2*%
X100000000Y-110160000D03*
%TO.P,J2,6,Pin_6*%
%TO.N,/D3*%
X100000000Y-112700000D03*
%TO.P,J2,7,Pin_7*%
%TO.N,/D4*%
X100000000Y-115240000D03*
%TO.P,J2,8,Pin_8*%
%TO.N,/D5*%
X100000000Y-117780000D03*
%TO.P,J2,9,Pin_9*%
%TO.N,/D6*%
X100000000Y-120320000D03*
%TO.P,J2,10,Pin_10*%
%TO.N,/D7*%
X100000000Y-122860000D03*
%TO.P,J2,11,Pin_11*%
%TO.N,/D8*%
X100000000Y-125400000D03*
%TO.P,J2,12,Pin_12*%
%TO.N,/D9*%
X100000000Y-127940000D03*
%TD*%
D17*
%TO.P,RESET1,1*%
%TO.N,GND*%
X97196207Y-145596187D03*
D18*
%TO.P,RESET1,2*%
X92600013Y-140999993D03*
%TO.P,RESET1,3*%
%TO.N,/RESET*%
X100378187Y-142414207D03*
%TO.P,RESET1,4*%
X95781993Y-137818013D03*
%TD*%
D15*
%TO.P,J3,1,Pin_1*%
%TO.N,VCC*%
X115240000Y-100000000D03*
D16*
%TO.P,J3,2,Pin_2*%
%TO.N,GND*%
X115240000Y-102540000D03*
%TO.P,J3,3,Pin_3*%
%TO.N,/RESET*%
X115240000Y-105080000D03*
%TO.P,J3,4,Pin_4*%
%TO.N,VCC*%
X115240000Y-107620000D03*
%TO.P,J3,5,Pin_5*%
%TO.N,/D21*%
X115240000Y-110160000D03*
%TO.P,J3,6,Pin_6*%
%TO.N,/D20*%
X115240000Y-112700000D03*
%TO.P,J3,7,Pin_7*%
%TO.N,/D19*%
X115240000Y-115240000D03*
%TO.P,J3,8,Pin_8*%
%TO.N,/D18*%
X115240000Y-117780000D03*
%TO.P,J3,9,Pin_9*%
%TO.N,/D15*%
X115240000Y-120320000D03*
%TO.P,J3,10,Pin_10*%
%TO.N,/D14*%
X115240000Y-122860000D03*
%TO.P,J3,11,Pin_11*%
%TO.N,/D16*%
X115240000Y-125400000D03*
%TO.P,J3,12,Pin_12*%
%TO.N,/D10*%
X115240000Y-127940000D03*
%TD*%
D19*
%TO.N,GND*%
X99800000Y-147600000D03*
X95600000Y-141200000D03*
X98600000Y-138200000D03*
X114800000Y-141600000D03*
X104000000Y-112600000D03*
%TO.N,/D18*%
X104478700Y-119362900D03*
%TO.N,/D20*%
X103255100Y-123932700D03*
%TO.N,/D21*%
X115562600Y-129315500D03*
X101096000Y-130430800D03*
%TO.N,/RESET*%
X105377900Y-143423300D03*
X111748300Y-136579500D03*
X109173000Y-106213800D03*
%TO.N,/D14*%
X107782400Y-128720000D03*
%TO.N,/D15*%
X116149900Y-135260700D03*
X106050500Y-139500000D03*
X100911700Y-140466600D03*
X104399600Y-144242600D03*
%TO.N,/D19*%
X104287600Y-118519300D03*
%TO.N,/D10*%
X109431600Y-129784800D03*
%TO.N,/D16*%
X107647900Y-138144000D03*
%TO.N,/D6*%
X110786100Y-132343100D03*
%TO.N,/D4*%
X100855100Y-126483300D03*
X109093100Y-132329600D03*
%TO.N,/RX*%
X108860400Y-137825000D03*
X110173800Y-131214300D03*
X105909200Y-125761200D03*
X114241700Y-137818500D03*
%TO.N,/D2*%
X99992400Y-134258400D03*
X113344900Y-138681600D03*
%TO.N,/D3*%
X110961100Y-137509900D03*
%TO.N,/D9*%
X109497100Y-133091500D03*
%TO.N,/D5*%
X101657200Y-119492900D03*
X108301500Y-120644200D03*
%TO.N,/D8*%
X108949700Y-122553100D03*
X101248200Y-121540900D03*
%TO.N,/TX*%
X112366700Y-102318300D03*
%TO.N,Net-(J1-D+)*%
X97909900Y-142764000D03*
X105744100Y-145246700D03*
%TO.N,Net-(J1-D-)*%
X96716900Y-143686500D03*
X105333800Y-145986800D03*
%TO.N,GND*%
X108257000Y-102980300D03*
X106573800Y-147118800D03*
X117578900Y-134941600D03*
X112807100Y-134430700D03*
X100216800Y-131559700D03*
%TD*%
D20*
%TO.N,/D18*%
X113665600Y-119354400D02*
X113663600Y-119354400D01*
X115240000Y-117780000D02*
X113665600Y-119354400D01*
X113655100Y-119362900D02*
X104478700Y-119362900D01*
X113663600Y-119354400D02*
X113655100Y-119362900D01*
X113663600Y-119354400D02*
X113655100Y-119362900D01*
%TO.N,/D20*%
X110173300Y-123741500D02*
X103446300Y-123741500D01*
X114983100Y-118931700D02*
X110173300Y-123741500D01*
X115725600Y-118931700D02*
X114983100Y-118931700D01*
X116441400Y-118215900D02*
X115725600Y-118931700D01*
X116441400Y-113901400D02*
X116441400Y-118215900D01*
X115240000Y-112700000D02*
X116441400Y-113901400D01*
X103446300Y-123741500D02*
X103255100Y-123932700D01*
X103255100Y-123932700D02*
X103255100Y-123741500D01*
X103255100Y-123741500D02*
X103255100Y-123932700D01*
%TO.N,/D21*%
X104361900Y-133696700D02*
X101096000Y-130430800D01*
X111181400Y-133696700D02*
X104361900Y-133696700D01*
X115562600Y-129315500D02*
X111181400Y-133696700D01*
X101096000Y-130430800D02*
X101346900Y-130430800D01*
X101346900Y-130430800D02*
X101096000Y-130430800D01*
X115562600Y-129315500D02*
X115585200Y-129292900D01*
X115585200Y-129292900D02*
X115562600Y-129315500D01*
%TO.N,/RESET*%
X114106200Y-106213800D02*
X115240000Y-105080000D01*
X109173000Y-106213800D02*
X114106200Y-106213800D01*
X100378200Y-142414200D02*
X95782000Y-137818000D01*
X101387300Y-143423300D02*
X105377900Y-143423300D01*
X100378200Y-142414200D02*
X101387300Y-143423300D01*
X105377900Y-143423200D02*
X105377900Y-143423300D01*
X109466400Y-143423200D02*
X105377900Y-143423200D01*
X113999100Y-138890500D02*
X109466400Y-143423200D01*
X113999100Y-138455800D02*
X113999100Y-138890500D01*
X112122800Y-136579500D02*
X113999100Y-138455800D01*
X111748300Y-136579500D02*
X112122800Y-136579500D01*
%TO.N,/D14*%
X113642400Y-122860000D02*
X107782400Y-128720000D01*
X115240000Y-122860000D02*
X113642400Y-122860000D01*
%TO.N,/D15*%
X105083900Y-140466600D02*
X100911700Y-140466600D01*
X106050500Y-139500000D02*
X105083900Y-140466600D01*
X116149900Y-137386200D02*
X116149900Y-135260700D01*
X109293500Y-144242600D02*
X116149900Y-137386200D01*
X104399600Y-144242600D02*
X109293500Y-144242600D01*
X104399600Y-144242600D02*
X104216700Y-144059700D01*
X104216700Y-144059700D02*
X104399600Y-144242600D01*
X116149900Y-135260700D02*
X116149900Y-137386200D01*
X116149900Y-137386200D02*
X116149900Y-135260700D01*
%TO.N,/D19*%
X111961800Y-118518200D02*
X104288700Y-118518200D01*
X115240000Y-115240000D02*
X111961800Y-118518200D01*
X104288700Y-118518200D02*
X104287600Y-118519300D01*
%TO.N,/D10*%
X111276400Y-127940000D02*
X115240000Y-127940000D01*
X109431600Y-129784800D02*
X111276400Y-127940000D01*
%TO.N,/D16*%
X116450100Y-126610100D02*
X115240000Y-125400000D01*
X116450100Y-129341800D02*
X116450100Y-126610100D01*
X107647900Y-138144000D02*
X116450100Y-129341800D01*
%TO.N,/D6*%
X109986700Y-132343100D02*
X110786100Y-132343100D01*
X101151700Y-123508100D02*
X109986700Y-132343100D01*
X101151700Y-122295100D02*
X101151700Y-123508100D01*
X101151600Y-122295100D02*
X101151700Y-122295100D01*
X100000000Y-121143500D02*
X101151600Y-122295100D01*
X100000000Y-120320000D02*
X100000000Y-121143500D01*
%TO.N,/D4*%
X106701400Y-132329600D02*
X100855100Y-126483300D01*
X109093100Y-132329600D02*
X106701400Y-132329600D01*
%TO.N,/RX*%
X110710600Y-135974800D02*
X108860400Y-137825000D01*
X112398000Y-135974800D02*
X110710600Y-135974800D01*
X114241700Y-137818500D02*
X112398000Y-135974800D01*
X114241700Y-137818500D02*
X114241700Y-137783000D01*
X114241700Y-137783000D02*
X114241700Y-137818500D01*
X108860400Y-137825000D02*
X108860400Y-137787800D01*
X108860400Y-137787800D02*
X108860400Y-137825000D01*
X109665000Y-131214300D02*
X110173800Y-131214300D01*
X107772400Y-129321700D02*
X109665000Y-131214300D01*
X107533300Y-129321700D02*
X107772400Y-129321700D01*
X107180700Y-128969100D02*
X107533300Y-129321700D01*
X107180700Y-127032700D02*
X107180700Y-128969100D01*
X105909200Y-125761200D02*
X107180700Y-127032700D01*
%TO.N,/D2*%
X105801400Y-138898300D02*
X105481100Y-139218600D01*
X106299700Y-138898300D02*
X105801400Y-138898300D01*
X106621500Y-139220100D02*
X106299700Y-138898300D01*
X112806400Y-139220100D02*
X106621500Y-139220100D01*
X113344900Y-138681600D02*
X112806400Y-139220100D01*
X104952600Y-139218600D02*
X99992400Y-134258400D01*
X105481100Y-139218600D02*
X104952600Y-139218600D01*
%TO.N,/D3*%
X109680700Y-138790300D02*
X110961100Y-137509900D01*
X107436900Y-138790300D02*
X109680700Y-138790300D01*
X101292900Y-132646300D02*
X107436900Y-138790300D01*
X101292900Y-131478500D02*
X101292900Y-132646300D01*
X98806200Y-128991800D02*
X101292900Y-131478500D01*
X98806200Y-119833100D02*
X98806200Y-128991800D01*
X99589300Y-119050000D02*
X98806200Y-119833100D01*
X100429400Y-119050000D02*
X99589300Y-119050000D01*
X101182700Y-118296700D02*
X100429400Y-119050000D01*
X101182700Y-113882700D02*
X101182700Y-118296700D01*
X100000000Y-112700000D02*
X101182700Y-113882700D01*
%TO.N,/D9*%
X105151500Y-133091500D02*
X100000000Y-127940000D01*
X109497100Y-133091500D02*
X105151500Y-133091500D01*
%TO.N,/D5*%
X107858600Y-121087100D02*
X108301500Y-120644200D01*
X102689200Y-121087100D02*
X107858600Y-121087100D01*
X101657200Y-120055100D02*
X102689200Y-121087100D01*
X101657200Y-119492900D02*
X101657200Y-120055100D01*
X108301500Y-120644200D02*
X108052400Y-120893300D01*
X108052400Y-120893300D02*
X108301500Y-120644200D01*
X101657200Y-119492900D02*
X101278200Y-119113900D01*
X101278200Y-119113900D02*
X101657200Y-119492900D01*
%TO.N,/D8*%
X102260400Y-122553100D02*
X101352400Y-121645100D01*
X108949700Y-122553100D02*
X102260400Y-122553100D01*
X101352400Y-121645100D02*
X101248200Y-121540900D01*
%TO.N,/TX*%
X103470000Y-102318300D02*
X101151700Y-100000000D01*
X112366700Y-102318300D02*
X103470000Y-102318300D01*
X100000000Y-100000000D02*
X101151700Y-100000000D01*
%TO.N,Net-(J1-D+)*%
X100207800Y-145061900D02*
X97909900Y-142764000D01*
X105559300Y-145061900D02*
X100207800Y-145061900D01*
X105744100Y-145246700D02*
X105559300Y-145061900D01*
X105744100Y-145246700D02*
X105744100Y-145248300D01*
X105744100Y-145248300D02*
X105744100Y-145246700D01*
%TO.N,Net-(J1-D-)*%
X104886300Y-145539300D02*
X105333800Y-145986800D01*
X99860400Y-145539300D02*
X104886300Y-145539300D01*
X98007600Y-143686500D02*
X99860400Y-145539300D01*
X96716900Y-143686500D02*
X98007600Y-143686500D01*
%TO.N,GND*%
X97196200Y-145596200D02*
X97939300Y-144853100D01*
X102099700Y-102980300D02*
X108257000Y-102980300D01*
X100000000Y-105080000D02*
X102099700Y-102980300D01*
X114799700Y-102980300D02*
X115240000Y-102540000D01*
X108257000Y-102980300D02*
X114799700Y-102980300D01*
X117068000Y-134430700D02*
X112807100Y-134430700D01*
X117578900Y-134941600D02*
X117068000Y-134430700D01*
X92600000Y-141000000D02*
X93766500Y-141000000D01*
X93766500Y-142166500D02*
X93766500Y-141000000D01*
X97196200Y-145596200D02*
X93766500Y-142166500D01*
X93766500Y-138010000D02*
X100216800Y-131559700D01*
X93766500Y-141000000D02*
X93766500Y-138010000D01*
X106486300Y-147118800D02*
X106573800Y-147118800D01*
X106478700Y-147111200D02*
X106486300Y-147118800D01*
X106477100Y-147111200D02*
X106478700Y-147111200D01*
X106068500Y-146702600D02*
X106477100Y-147111200D01*
X105751700Y-146702600D02*
X106068500Y-146702600D01*
X105637600Y-146588500D02*
X105751700Y-146702600D01*
X105084700Y-146588500D02*
X105637600Y-146588500D01*
X104905900Y-146409700D02*
X105084700Y-146588500D01*
X104322800Y-146409700D02*
X104905900Y-146409700D01*
X103912400Y-145999300D02*
X104322800Y-146409700D01*
X99585300Y-145999300D02*
X103912400Y-145999300D01*
X99183700Y-145597700D02*
X99585300Y-145999300D01*
X99162700Y-145597700D02*
X99183700Y-145597700D01*
X99161200Y-145596200D02*
X99162700Y-145597700D01*
X98682200Y-145596200D02*
X99161200Y-145596200D01*
X98682200Y-145596100D02*
X98682200Y-145596200D01*
X97939300Y-144853100D02*
X98682200Y-145596100D01*
%TD*%
%TA.AperFunction,Conductor*%
%TO.N,GND*%
G36*
X116418834Y-130324815D02*
G01*
X116474767Y-130366687D01*
X116499184Y-130432151D01*
X116499500Y-130440997D01*
X116499500Y-131065891D01*
X116533608Y-131193187D01*
X116566554Y-131250250D01*
X116599500Y-131307314D01*
X116599502Y-131307316D01*
X123804505Y-138512319D01*
X123837990Y-138573642D01*
X123833006Y-138643334D01*
X123804505Y-138687681D01*
X105887681Y-156604505D01*
X105826358Y-156637990D01*
X105756666Y-156633006D01*
X105712319Y-156604505D01*
X104958423Y-155850609D01*
X104924938Y-155789286D01*
X104929922Y-155719594D01*
X104971794Y-155663661D01*
X104999033Y-155648210D01*
X105010753Y-155643402D01*
X105030552Y-155634917D01*
X105038947Y-155631229D01*
X105039198Y-155631116D01*
X105043508Y-155629151D01*
X105061893Y-155620666D01*
X105075805Y-155613986D01*
X105076356Y-155613711D01*
X105090264Y-155606498D01*
X105108649Y-155596599D01*
X105121689Y-155589328D01*
X105122188Y-155589040D01*
X105134436Y-155581739D01*
X105152821Y-155570425D01*
X105160537Y-155565580D01*
X105160843Y-155565384D01*
X105168577Y-155560330D01*
X105185548Y-155549017D01*
X105197428Y-155540851D01*
X105197881Y-155540530D01*
X105208925Y-155532477D01*
X105225895Y-155519749D01*
X105244350Y-155505225D01*
X105245077Y-155504625D01*
X105263347Y-155488798D01*
X105294460Y-155460514D01*
X105303816Y-155451790D01*
X105303840Y-155451766D01*
X105303869Y-155451740D01*
X105304096Y-155451522D01*
X105304160Y-155451461D01*
X105312213Y-155443584D01*
X106390450Y-154365346D01*
X106451771Y-154331863D01*
X106521462Y-154336847D01*
X106541397Y-154346385D01*
X106599331Y-154380760D01*
X106638689Y-154404113D01*
X106645751Y-154407038D01*
X106645767Y-154407044D01*
X106749460Y-154437490D01*
X106749464Y-154437491D01*
X106893252Y-154442625D01*
X107032663Y-154407041D01*
X107039734Y-154404112D01*
X107088542Y-154380760D01*
X107203724Y-154294535D01*
X107698698Y-153799561D01*
X107734856Y-153759309D01*
X107755637Y-153724282D01*
X107787969Y-153688290D01*
X107875467Y-153622790D01*
X107875467Y-153622789D01*
X107875475Y-153622784D01*
X108907851Y-152590408D01*
X108944047Y-152550109D01*
X109017451Y-152426362D01*
X109020379Y-152419291D01*
X109050791Y-152315727D01*
X109055949Y-152171939D01*
X109020389Y-152032523D01*
X109017461Y-152025451D01*
X108994076Y-151976562D01*
X108907851Y-151861380D01*
X108907846Y-151861375D01*
X108907841Y-151861369D01*
X108417217Y-151370745D01*
X108383732Y-151309422D01*
X108380898Y-151283064D01*
X108380898Y-151226863D01*
X108341489Y-151028746D01*
X108341488Y-151028745D01*
X108341488Y-151028741D01*
X108341486Y-151028736D01*
X108264187Y-150842118D01*
X108264180Y-150842105D01*
X108151956Y-150674151D01*
X108151953Y-150674147D01*
X108009119Y-150531313D01*
X108009115Y-150531310D01*
X107841161Y-150419086D01*
X107841148Y-150419079D01*
X107654530Y-150341780D01*
X107654520Y-150341777D01*
X107456403Y-150302369D01*
X107456401Y-150302369D01*
X107254395Y-150302369D01*
X107254392Y-150302369D01*
X107248337Y-150302966D01*
X107248275Y-150302341D01*
X107226681Y-150302794D01*
X107226621Y-150304489D01*
X107218872Y-150304212D01*
X107218871Y-150304212D01*
X107116631Y-150300561D01*
X107075086Y-150299078D01*
X107075085Y-150299078D01*
X107075083Y-150299078D01*
X107075080Y-150299078D01*
X107075078Y-150299079D01*
X106935679Y-150334659D01*
X106935675Y-150334661D01*
X106935673Y-150334661D01*
X106935672Y-150334662D01*
X106933315Y-150335638D01*
X106928595Y-150337593D01*
X106928586Y-150337597D01*
X106879794Y-150360942D01*
X106764612Y-150447167D01*
X106764600Y-150447177D01*
X105732238Y-151479539D01*
X105696082Y-151519789D01*
X105696075Y-151519799D01*
X105622655Y-151643537D01*
X105619731Y-151650597D01*
X105619729Y-151650603D01*
X105589279Y-151754306D01*
X105586736Y-151825514D01*
X105564671Y-151891808D01*
X105550496Y-151908769D01*
X103663982Y-153795283D01*
X103656009Y-153803435D01*
X103655791Y-153803662D01*
X103646998Y-153813093D01*
X103618731Y-153844187D01*
X103602898Y-153862464D01*
X103602307Y-153863180D01*
X103587784Y-153881635D01*
X103575071Y-153898585D01*
X103566989Y-153909667D01*
X103566682Y-153910101D01*
X103558515Y-153921983D01*
X103547223Y-153938921D01*
X103542075Y-153946800D01*
X103541970Y-153946964D01*
X103537106Y-153954711D01*
X103525791Y-153973098D01*
X103518472Y-153985377D01*
X103518192Y-153985862D01*
X103510951Y-153998849D01*
X103501027Y-154017280D01*
X103493819Y-154031177D01*
X103493570Y-154031676D01*
X103493546Y-154031727D01*
X103486866Y-154045639D01*
X103481202Y-154057910D01*
X103478365Y-154064058D01*
X103476397Y-154068376D01*
X103476318Y-154068551D01*
X103472614Y-154076980D01*
X103464108Y-154096829D01*
X103459320Y-154108500D01*
X103415660Y-154163049D01*
X103349439Y-154185333D01*
X103281683Y-154168278D01*
X103256922Y-154149108D01*
X101104691Y-151996877D01*
X101071206Y-151935554D01*
X101076190Y-151865862D01*
X101118062Y-151809929D01*
X101145301Y-151794478D01*
X101157021Y-151789670D01*
X101176820Y-151781185D01*
X101185215Y-151777497D01*
X101185466Y-151777384D01*
X101189776Y-151775419D01*
X101208161Y-151766934D01*
X101222073Y-151760254D01*
X101222624Y-151759979D01*
X101236532Y-151752766D01*
X101254917Y-151742867D01*
X101267957Y-151735596D01*
X101268456Y-151735308D01*
X101280704Y-151728007D01*
X101299089Y-151716693D01*
X101306805Y-151711848D01*
X101307111Y-151711652D01*
X101314845Y-151706598D01*
X101331816Y-151695285D01*
X101343696Y-151687119D01*
X101344149Y-151686798D01*
X101355193Y-151678745D01*
X101372163Y-151666017D01*
X101390618Y-151651493D01*
X101391345Y-151650893D01*
X101409615Y-151635066D01*
X101440728Y-151606782D01*
X101450084Y-151598058D01*
X101450108Y-151598034D01*
X101450137Y-151598008D01*
X101450364Y-151597790D01*
X101450428Y-151597729D01*
X101458481Y-151589852D01*
X103343447Y-149704884D01*
X103404768Y-149671401D01*
X103435544Y-149668646D01*
X103463784Y-149669655D01*
X103603195Y-149634071D01*
X103610266Y-149631142D01*
X103659074Y-149607790D01*
X103774256Y-149521565D01*
X104806632Y-148489189D01*
X104842790Y-148448937D01*
X104916209Y-148325199D01*
X104919138Y-148318128D01*
X104949588Y-148214423D01*
X104954722Y-148070635D01*
X104951867Y-148059453D01*
X104950400Y-148004586D01*
X104951431Y-147999405D01*
X104951431Y-147797399D01*
X104951431Y-147797396D01*
X104912022Y-147599279D01*
X104912021Y-147599278D01*
X104912021Y-147599274D01*
X104893728Y-147555111D01*
X104834720Y-147412651D01*
X104834713Y-147412638D01*
X104722489Y-147244684D01*
X104722486Y-147244680D01*
X104579652Y-147101846D01*
X104579648Y-147101843D01*
X104411694Y-146989619D01*
X104411681Y-146989612D01*
X104225063Y-146912313D01*
X104225053Y-146912310D01*
X104026936Y-146872902D01*
X104026934Y-146872902D01*
X103970735Y-146872902D01*
X103903696Y-146853217D01*
X103883054Y-146836583D01*
X103397953Y-146351481D01*
X103364468Y-146290158D01*
X103369452Y-146220466D01*
X103411324Y-146164533D01*
X103476788Y-146140116D01*
X103485634Y-146139800D01*
X104447866Y-146139800D01*
X104514905Y-146159485D01*
X104560660Y-146212289D01*
X104562427Y-146216348D01*
X104624402Y-146365972D01*
X104624409Y-146365985D01*
X104712010Y-146497088D01*
X104712013Y-146497092D01*
X104823507Y-146608586D01*
X104823511Y-146608589D01*
X104954614Y-146696190D01*
X104954627Y-146696197D01*
X105100298Y-146756535D01*
X105100303Y-146756537D01*
X105254953Y-146787299D01*
X105254956Y-146787300D01*
X105254958Y-146787300D01*
X105412644Y-146787300D01*
X105412645Y-146787299D01*
X105567297Y-146756537D01*
X105712979Y-146696194D01*
X105844089Y-146608589D01*
X105955589Y-146497089D01*
X106043194Y-146365979D01*
X106051883Y-146345003D01*
X106103535Y-146220301D01*
X106103537Y-146220297D01*
X106134300Y-146065642D01*
X106134300Y-146015008D01*
X106153985Y-145947969D01*
X106189406Y-145911908D01*
X106254389Y-145868489D01*
X106365889Y-145756989D01*
X106453494Y-145625879D01*
X106513837Y-145480197D01*
X106544600Y-145325542D01*
X106544600Y-145167858D01*
X106544600Y-145167855D01*
X106544599Y-145167853D01*
X106513838Y-145013210D01*
X106513837Y-145013203D01*
X106513832Y-145013192D01*
X106512069Y-145007376D01*
X106513575Y-145006919D01*
X106506927Y-144945083D01*
X106538202Y-144882604D01*
X106598291Y-144846952D01*
X106628957Y-144843100D01*
X109206831Y-144843100D01*
X109206847Y-144843101D01*
X109214443Y-144843101D01*
X109372554Y-144843101D01*
X109372557Y-144843101D01*
X109525285Y-144802177D01*
X109587633Y-144766180D01*
X109662216Y-144723120D01*
X109774020Y-144611316D01*
X109774020Y-144611314D01*
X109784224Y-144601111D01*
X109784228Y-144601106D01*
X116508406Y-137876928D01*
X116508411Y-137876924D01*
X116518614Y-137866720D01*
X116518616Y-137866720D01*
X116630420Y-137754916D01*
X116703258Y-137628756D01*
X116709477Y-137617985D01*
X116750401Y-137465257D01*
X116750401Y-137307143D01*
X116750401Y-137299548D01*
X116750400Y-137299530D01*
X116750400Y-135840465D01*
X116770085Y-135773426D01*
X116771298Y-135771574D01*
X116859290Y-135639885D01*
X116859290Y-135639884D01*
X116859294Y-135639879D01*
X116919637Y-135494197D01*
X116950400Y-135339542D01*
X116950400Y-135181858D01*
X116950400Y-135181855D01*
X116950399Y-135181853D01*
X116919823Y-135028138D01*
X116919637Y-135027203D01*
X116919635Y-135027198D01*
X116859297Y-134881527D01*
X116859290Y-134881514D01*
X116771689Y-134750411D01*
X116771686Y-134750407D01*
X116660192Y-134638913D01*
X116660188Y-134638910D01*
X116529085Y-134551309D01*
X116529072Y-134551302D01*
X116383401Y-134490964D01*
X116383389Y-134490961D01*
X116228745Y-134460200D01*
X116228742Y-134460200D01*
X116071058Y-134460200D01*
X116071055Y-134460200D01*
X115916410Y-134490961D01*
X115916398Y-134490964D01*
X115770727Y-134551302D01*
X115770714Y-134551309D01*
X115639611Y-134638910D01*
X115639607Y-134638913D01*
X115528113Y-134750407D01*
X115528110Y-134750411D01*
X115440509Y-134881514D01*
X115440502Y-134881527D01*
X115380164Y-135027198D01*
X115380161Y-135027210D01*
X115349400Y-135181853D01*
X115349400Y-135339546D01*
X115380161Y-135494189D01*
X115380164Y-135494201D01*
X115440502Y-135639872D01*
X115440509Y-135639885D01*
X115528502Y-135771574D01*
X115549380Y-135838251D01*
X115549400Y-135840465D01*
X115549400Y-137086102D01*
X115529715Y-137153141D01*
X115513081Y-137173783D01*
X115169146Y-137517718D01*
X115107823Y-137551203D01*
X115038131Y-137546219D01*
X114982198Y-137504347D01*
X114966904Y-137477489D01*
X114951097Y-137439327D01*
X114951090Y-137439314D01*
X114863489Y-137308211D01*
X114863486Y-137308207D01*
X114751992Y-137196713D01*
X114751988Y-137196710D01*
X114620885Y-137109109D01*
X114620872Y-137109102D01*
X114475201Y-137048764D01*
X114475191Y-137048761D01*
X114319851Y-137017862D01*
X114257941Y-136985477D01*
X114256362Y-136983926D01*
X112885590Y-135613155D01*
X112885588Y-135613152D01*
X112766717Y-135494281D01*
X112766716Y-135494280D01*
X112679904Y-135444160D01*
X112679904Y-135444159D01*
X112679900Y-135444158D01*
X112629785Y-135415223D01*
X112477057Y-135374299D01*
X112318943Y-135374299D01*
X112311347Y-135374299D01*
X112311331Y-135374300D01*
X111566197Y-135374300D01*
X111499158Y-135354615D01*
X111453403Y-135301811D01*
X111443459Y-135232653D01*
X111472484Y-135169097D01*
X111478516Y-135162619D01*
X116287819Y-130353316D01*
X116349142Y-130319831D01*
X116418834Y-130324815D01*
G37*
%TD.AperFunction*%
%TA.AperFunction,Conductor*%
G36*
X94709684Y-136900643D02*
G01*
X94765617Y-136942515D01*
X94790034Y-137007979D01*
X94775182Y-137076252D01*
X94766668Y-137089710D01*
X94713327Y-137163128D01*
X94624034Y-137338373D01*
X94563260Y-137525416D01*
X94563260Y-137525419D01*
X94532493Y-137719675D01*
X94532493Y-137916350D01*
X94563260Y-138110606D01*
X94563260Y-138110609D01*
X94624034Y-138297652D01*
X94679655Y-138406814D01*
X94713325Y-138472894D01*
X94828928Y-138632008D01*
X94967998Y-138771078D01*
X95127112Y-138886681D01*
X95302351Y-138975970D01*
X95302353Y-138975971D01*
X95489397Y-139036745D01*
X95489398Y-139036745D01*
X95489401Y-139036746D01*
X95683655Y-139067513D01*
X95683656Y-139067513D01*
X95880330Y-139067513D01*
X95880331Y-139067513D01*
X96074585Y-139036746D01*
X96074589Y-139036744D01*
X96078589Y-139036111D01*
X96147882Y-139045065D01*
X96185668Y-139070903D01*
X99125296Y-142010531D01*
X99158781Y-142071854D01*
X99160088Y-142117610D01*
X99138532Y-142253711D01*
X99128687Y-142315869D01*
X99128687Y-142512545D01*
X99144070Y-142609672D01*
X99159454Y-142706800D01*
X99159454Y-142706803D01*
X99220053Y-142893307D01*
X99222048Y-142963148D01*
X99185967Y-143022981D01*
X99123266Y-143053809D01*
X99053852Y-143045844D01*
X99014441Y-143019306D01*
X98744474Y-142749339D01*
X98710989Y-142688016D01*
X98710538Y-142685849D01*
X98679638Y-142530510D01*
X98679637Y-142530503D01*
X98672198Y-142512544D01*
X98619297Y-142384827D01*
X98619290Y-142384814D01*
X98531689Y-142253711D01*
X98531686Y-142253707D01*
X98420192Y-142142213D01*
X98420188Y-142142210D01*
X98289085Y-142054609D01*
X98289072Y-142054602D01*
X98143401Y-141994264D01*
X98143389Y-141994261D01*
X97988745Y-141963500D01*
X97988742Y-141963500D01*
X97831058Y-141963500D01*
X97831055Y-141963500D01*
X97676410Y-141994261D01*
X97676398Y-141994264D01*
X97530727Y-142054602D01*
X97530714Y-142054609D01*
X97399611Y-142142210D01*
X97399607Y-142142213D01*
X97288113Y-142253707D01*
X97288110Y-142253711D01*
X97200509Y-142384814D01*
X97200502Y-142384827D01*
X97140164Y-142530498D01*
X97140161Y-142530510D01*
X97109400Y-142685153D01*
X97109400Y-142797801D01*
X97089715Y-142864840D01*
X97036911Y-142910595D01*
X96967753Y-142920539D01*
X96953812Y-142917441D01*
X96795745Y-142886000D01*
X96795742Y-142886000D01*
X96638058Y-142886000D01*
X96638055Y-142886000D01*
X96483410Y-142916761D01*
X96483398Y-142916764D01*
X96337727Y-142977102D01*
X96337714Y-142977109D01*
X96206611Y-143064710D01*
X96206607Y-143064713D01*
X96095113Y-143176207D01*
X96095110Y-143176211D01*
X96007509Y-143307314D01*
X96007502Y-143307327D01*
X95947164Y-143452998D01*
X95947161Y-143453010D01*
X95916400Y-143607653D01*
X95916400Y-143765346D01*
X95947161Y-143919989D01*
X95947164Y-143920001D01*
X96007502Y-144065672D01*
X96007509Y-144065685D01*
X96095110Y-144196788D01*
X96095113Y-144196792D01*
X96206607Y-144308286D01*
X96206611Y-144308289D01*
X96337714Y-144395890D01*
X96337721Y-144395894D01*
X96413261Y-144427183D01*
X96467662Y-144471021D01*
X96489148Y-144535574D01*
X97070880Y-145117306D01*
X97005144Y-145134921D01*
X96892270Y-145200089D01*
X96800109Y-145292250D01*
X96734941Y-145405124D01*
X96717326Y-145470860D01*
X96136253Y-144889787D01*
X96136252Y-144889787D01*
X95749590Y-145276449D01*
X95712006Y-145323089D01*
X95652280Y-145453870D01*
X95631820Y-145596186D01*
X95631820Y-145596187D01*
X95652280Y-145738503D01*
X95712006Y-145869284D01*
X95749586Y-145915919D01*
X96136253Y-146302586D01*
X96717326Y-145721513D01*
X96734941Y-145787250D01*
X96800109Y-145900124D01*
X96892270Y-145992285D01*
X97005144Y-146057453D01*
X97070879Y-146075067D01*
X96489807Y-146656140D01*
X96876474Y-147042807D01*
X96923109Y-147080387D01*
X97053890Y-147140113D01*
X97196207Y-147160574D01*
X97338523Y-147140113D01*
X97469304Y-147080387D01*
X97515939Y-147042807D01*
X97902606Y-146656140D01*
X97902606Y-146656139D01*
X97321534Y-146075066D01*
X97387270Y-146057453D01*
X97500144Y-145992285D01*
X97592305Y-145900124D01*
X97657473Y-145787250D01*
X97675087Y-145721513D01*
X98256159Y-146302586D01*
X98256160Y-146302586D01*
X98642827Y-145915919D01*
X98680407Y-145869284D01*
X98740133Y-145738503D01*
X98760594Y-145596187D01*
X98760594Y-145588091D01*
X98780279Y-145521052D01*
X98833083Y-145475297D01*
X98902241Y-145465353D01*
X98965797Y-145494378D01*
X98972275Y-145500410D01*
X99375539Y-145903674D01*
X99375549Y-145903685D01*
X99379879Y-145908015D01*
X99379880Y-145908016D01*
X99491684Y-146019820D01*
X99571051Y-146065642D01*
X99628615Y-146098877D01*
X99781343Y-146139801D01*
X99781346Y-146139801D01*
X99947053Y-146139801D01*
X99947069Y-146139800D01*
X102570178Y-146139800D01*
X102637217Y-146159485D01*
X102682972Y-146212289D01*
X102692916Y-146281447D01*
X102663891Y-146345003D01*
X102657859Y-146351481D01*
X101631022Y-147378317D01*
X101594822Y-147418620D01*
X101574074Y-147453598D01*
X101541737Y-147489601D01*
X101454240Y-147555100D01*
X101454228Y-147555111D01*
X100959268Y-148050071D01*
X100923112Y-148090321D01*
X100923105Y-148090331D01*
X100849685Y-148214069D01*
X100846761Y-148221129D01*
X100846755Y-148221145D01*
X100816309Y-148324837D01*
X100816309Y-148324840D01*
X100816309Y-148324842D01*
X100811175Y-148468630D01*
X100811175Y-148468633D01*
X100811176Y-148468634D01*
X100846756Y-148608033D01*
X100846757Y-148608036D01*
X100846759Y-148608041D01*
X100849403Y-148614425D01*
X100849690Y-148615117D01*
X100849694Y-148615126D01*
X100864073Y-148645179D01*
X100873040Y-148663920D01*
X100900627Y-148700771D01*
X100925043Y-148766236D01*
X100910191Y-148834509D01*
X100889040Y-148862762D01*
X99810250Y-149941551D01*
X99802277Y-149949703D01*
X99802059Y-149949930D01*
X99793266Y-149959361D01*
X99764999Y-149990455D01*
X99749166Y-150008732D01*
X99748575Y-150009448D01*
X99734052Y-150027903D01*
X99721339Y-150044853D01*
X99713257Y-150055935D01*
X99712950Y-150056369D01*
X99704783Y-150068251D01*
X99693491Y-150085189D01*
X99688343Y-150093068D01*
X99688238Y-150093232D01*
X99683374Y-150100979D01*
X99672059Y-150119366D01*
X99664740Y-150131645D01*
X99664460Y-150132130D01*
X99657219Y-150145117D01*
X99647295Y-150163548D01*
X99640087Y-150177445D01*
X99639838Y-150177944D01*
X99639814Y-150177995D01*
X99633134Y-150191907D01*
X99627470Y-150204178D01*
X99624633Y-150210326D01*
X99622665Y-150214644D01*
X99622586Y-150214819D01*
X99618882Y-150223248D01*
X99610376Y-150243097D01*
X99605588Y-150254768D01*
X99561928Y-150309317D01*
X99495707Y-150331601D01*
X99427951Y-150314546D01*
X99403190Y-150295376D01*
X90395495Y-141287681D01*
X90362010Y-141226358D01*
X90366994Y-141156666D01*
X90395495Y-141112319D01*
X90811758Y-140696056D01*
X91398949Y-140108864D01*
X91460270Y-140075381D01*
X91529962Y-140080365D01*
X91585895Y-140122237D01*
X91610312Y-140187701D01*
X91595460Y-140255974D01*
X91586947Y-140269431D01*
X91531774Y-140345371D01*
X91442518Y-140520543D01*
X91442517Y-140520545D01*
X91381768Y-140707514D01*
X91381768Y-140707517D01*
X91375040Y-140749992D01*
X91375041Y-140749993D01*
X92172774Y-140749993D01*
X92138747Y-140808930D01*
X92105013Y-140934825D01*
X92105013Y-141065161D01*
X92138747Y-141191056D01*
X92172774Y-141249993D01*
X91375041Y-141249993D01*
X91381768Y-141292468D01*
X91381768Y-141292471D01*
X91442517Y-141479440D01*
X91442518Y-141479442D01*
X91531775Y-141654615D01*
X91647323Y-141813655D01*
X91647327Y-141813660D01*
X91786345Y-141952678D01*
X91786350Y-141952682D01*
X91945390Y-142068230D01*
X92120563Y-142157487D01*
X92120565Y-142157488D01*
X92307535Y-142218237D01*
X92350012Y-142224965D01*
X92350013Y-142224965D01*
X92350013Y-141427231D01*
X92408950Y-141461259D01*
X92534845Y-141494993D01*
X92665181Y-141494993D01*
X92791076Y-141461259D01*
X92850013Y-141427231D01*
X92850013Y-142224965D01*
X92892488Y-142218237D01*
X92892491Y-142218237D01*
X93079460Y-142157488D01*
X93079462Y-142157487D01*
X93254635Y-142068230D01*
X93413675Y-141952682D01*
X93413680Y-141952678D01*
X93552698Y-141813660D01*
X93552702Y-141813655D01*
X93668250Y-141654615D01*
X93757507Y-141479442D01*
X93757508Y-141479440D01*
X93818257Y-141292471D01*
X93818257Y-141292468D01*
X93824985Y-141249993D01*
X93027252Y-141249993D01*
X93061279Y-141191056D01*
X93095013Y-141065161D01*
X93095013Y-140934825D01*
X93061279Y-140808930D01*
X93027252Y-140749993D01*
X93824985Y-140749993D01*
X93824985Y-140749992D01*
X93818257Y-140707517D01*
X93818257Y-140707514D01*
X93757508Y-140520545D01*
X93757507Y-140520543D01*
X93668250Y-140345370D01*
X93552702Y-140186330D01*
X93552698Y-140186325D01*
X93413680Y-140047307D01*
X93413675Y-140047303D01*
X93254635Y-139931755D01*
X93079462Y-139842498D01*
X93079457Y-139842496D01*
X92892487Y-139781747D01*
X92850013Y-139775019D01*
X92850013Y-140572754D01*
X92791076Y-140538727D01*
X92665181Y-140504993D01*
X92534845Y-140504993D01*
X92408950Y-140538727D01*
X92350013Y-140572754D01*
X92350013Y-139775019D01*
X92350012Y-139775019D01*
X92307538Y-139781747D01*
X92120568Y-139842496D01*
X92120563Y-139842498D01*
X91945391Y-139931754D01*
X91869451Y-139986927D01*
X91803645Y-140010406D01*
X91735591Y-139994580D01*
X91686897Y-139944473D01*
X91673022Y-139875995D01*
X91698372Y-139810887D01*
X91708878Y-139798935D01*
X94578671Y-136929142D01*
X94639992Y-136895659D01*
X94709684Y-136900643D01*
G37*
%TD.AperFunction*%
%TA.AperFunction,Conductor*%
G36*
X98905703Y-129940984D02*
G01*
X98912181Y-129947016D01*
X100656081Y-131690916D01*
X100689566Y-131752239D01*
X100692400Y-131778597D01*
X100692400Y-132559630D01*
X100692399Y-132559648D01*
X100692399Y-132725354D01*
X100692398Y-132725354D01*
X100692399Y-132725357D01*
X100733323Y-132878085D01*
X100733324Y-132878087D01*
X100733323Y-132878087D01*
X100750196Y-132907310D01*
X100750198Y-132907312D01*
X100750199Y-132907314D01*
X100788906Y-132974357D01*
X100812379Y-133015015D01*
X100931249Y-133133885D01*
X100931255Y-133133890D01*
X105883483Y-138086118D01*
X105916968Y-138147441D01*
X105911984Y-138217133D01*
X105870112Y-138273066D01*
X105804648Y-138297483D01*
X105795802Y-138297799D01*
X105722343Y-138297799D01*
X105645979Y-138318261D01*
X105569614Y-138338723D01*
X105569609Y-138338726D01*
X105432690Y-138417775D01*
X105432686Y-138417778D01*
X105304530Y-138545934D01*
X105243207Y-138579418D01*
X105173515Y-138574434D01*
X105129168Y-138545933D01*
X100826974Y-134243739D01*
X100793489Y-134182416D01*
X100793038Y-134180249D01*
X100774995Y-134089547D01*
X100762137Y-134024903D01*
X100762135Y-134024898D01*
X100701797Y-133879227D01*
X100701790Y-133879214D01*
X100614189Y-133748111D01*
X100614186Y-133748107D01*
X100502692Y-133636613D01*
X100502688Y-133636610D01*
X100371585Y-133549009D01*
X100371572Y-133549002D01*
X100225901Y-133488664D01*
X100225889Y-133488661D01*
X100071245Y-133457900D01*
X100071242Y-133457900D01*
X99913558Y-133457900D01*
X99913555Y-133457900D01*
X99758910Y-133488661D01*
X99758898Y-133488664D01*
X99613227Y-133549002D01*
X99613214Y-133549009D01*
X99482111Y-133636610D01*
X99482107Y-133636613D01*
X99370613Y-133748107D01*
X99370610Y-133748111D01*
X99283009Y-133879214D01*
X99283002Y-133879227D01*
X99222664Y-134024898D01*
X99222661Y-134024910D01*
X99191900Y-134179553D01*
X99191900Y-134337246D01*
X99222661Y-134491889D01*
X99222664Y-134491901D01*
X99283002Y-134637572D01*
X99283009Y-134637585D01*
X99370610Y-134768688D01*
X99370613Y-134768692D01*
X99482107Y-134880186D01*
X99482111Y-134880189D01*
X99613214Y-134967790D01*
X99613227Y-134967797D01*
X99756636Y-135027198D01*
X99758903Y-135028137D01*
X99823547Y-135040995D01*
X99914249Y-135059038D01*
X99976160Y-135091423D01*
X99977739Y-135092974D01*
X104472078Y-139587313D01*
X104472080Y-139587316D01*
X104539185Y-139654421D01*
X104544913Y-139664911D01*
X104572668Y-139715741D01*
X104567684Y-139785433D01*
X104541359Y-139820600D01*
X104525812Y-139841368D01*
X104495915Y-139852518D01*
X104460349Y-139865784D01*
X104451502Y-139866100D01*
X101491466Y-139866100D01*
X101424427Y-139846415D01*
X101422575Y-139845202D01*
X101290885Y-139757209D01*
X101290872Y-139757202D01*
X101145201Y-139696864D01*
X101145189Y-139696861D01*
X100990545Y-139666100D01*
X100990542Y-139666100D01*
X100832858Y-139666100D01*
X100832855Y-139666100D01*
X100678210Y-139696861D01*
X100678198Y-139696864D01*
X100532527Y-139757202D01*
X100532514Y-139757209D01*
X100401411Y-139844810D01*
X100401407Y-139844813D01*
X100289913Y-139956307D01*
X100289910Y-139956311D01*
X100202309Y-140087414D01*
X100202302Y-140087427D01*
X100141964Y-140233098D01*
X100141961Y-140233110D01*
X100111200Y-140387753D01*
X100111200Y-140545446D01*
X100141961Y-140700089D01*
X100141964Y-140700101D01*
X100202302Y-140845772D01*
X100202309Y-140845785D01*
X100293295Y-140981954D01*
X100292731Y-140982330D01*
X100295368Y-140984550D01*
X100303901Y-141012148D01*
X100315189Y-141038739D01*
X100314095Y-141045119D01*
X100316007Y-141051302D01*
X100308265Y-141079131D01*
X100303385Y-141107604D01*
X100299016Y-141112378D01*
X100297282Y-141118615D01*
X100275721Y-141137842D01*
X100256224Y-141159156D01*
X100248763Y-141161884D01*
X100245137Y-141165119D01*
X100211418Y-141175545D01*
X100081624Y-141196102D01*
X100012330Y-141187147D01*
X99974545Y-141161310D01*
X97034889Y-138221654D01*
X97001404Y-138160331D01*
X97000097Y-138114575D01*
X97015047Y-138020189D01*
X97031493Y-137916351D01*
X97031493Y-137719675D01*
X97000726Y-137525421D01*
X97000725Y-137525417D01*
X97000725Y-137525416D01*
X96939951Y-137338373D01*
X96867770Y-137196711D01*
X96850661Y-137163132D01*
X96735058Y-137004018D01*
X96595988Y-136864948D01*
X96436874Y-136749345D01*
X96261632Y-136660054D01*
X96074588Y-136599280D01*
X95928894Y-136576204D01*
X95880331Y-136568513D01*
X95683655Y-136568513D01*
X95618903Y-136578768D01*
X95489399Y-136599280D01*
X95489396Y-136599280D01*
X95302353Y-136660054D01*
X95127108Y-136749347D01*
X95053690Y-136802688D01*
X94987883Y-136826168D01*
X94919830Y-136810342D01*
X94871135Y-136760236D01*
X94857260Y-136691758D01*
X94882609Y-136626649D01*
X94893116Y-136614697D01*
X96000499Y-135507315D01*
X96000499Y-135507314D01*
X98497104Y-133010707D01*
X98497109Y-133010704D01*
X98507312Y-133000500D01*
X98507314Y-133000500D01*
X98600500Y-132907314D01*
X98666392Y-132793186D01*
X98700500Y-132665892D01*
X98700500Y-131534108D01*
X98700500Y-130034697D01*
X98720185Y-129967658D01*
X98772989Y-129921903D01*
X98842147Y-129911959D01*
X98905703Y-129940984D01*
G37*
%TD.AperFunction*%
%TA.AperFunction,Conductor*%
G36*
X113920607Y-98720185D02*
G01*
X113966362Y-98772989D01*
X113976306Y-98842147D01*
X113952835Y-98898810D01*
X113946206Y-98907665D01*
X113946202Y-98907671D01*
X113895908Y-99042517D01*
X113889501Y-99102116D01*
X113889501Y-99102123D01*
X113889500Y-99102135D01*
X113889500Y-100897870D01*
X113889501Y-100897876D01*
X113895908Y-100957483D01*
X113946202Y-101092328D01*
X113946206Y-101092335D01*
X114032452Y-101207544D01*
X114032455Y-101207547D01*
X114147664Y-101293793D01*
X114147671Y-101293797D01*
X114192618Y-101310561D01*
X114282517Y-101344091D01*
X114342127Y-101350500D01*
X114352685Y-101350499D01*
X114419723Y-101370179D01*
X114440372Y-101386818D01*
X115110591Y-102057037D01*
X115047007Y-102074075D01*
X114932993Y-102139901D01*
X114839901Y-102232993D01*
X114774075Y-102347007D01*
X114757037Y-102410591D01*
X114124728Y-101778282D01*
X114124727Y-101778282D01*
X114085380Y-101832439D01*
X113988904Y-102021782D01*
X113923242Y-102223869D01*
X113923242Y-102223872D01*
X113890000Y-102433753D01*
X113890000Y-102646246D01*
X113923242Y-102856127D01*
X113923242Y-102856130D01*
X113988904Y-103058217D01*
X114085375Y-103247550D01*
X114124728Y-103301716D01*
X114757037Y-102669408D01*
X114774075Y-102732993D01*
X114839901Y-102847007D01*
X114932993Y-102940099D01*
X115047007Y-103005925D01*
X115110590Y-103022962D01*
X114478282Y-103655269D01*
X114478282Y-103655270D01*
X114532452Y-103694626D01*
X114532451Y-103694626D01*
X114541495Y-103699234D01*
X114592292Y-103747208D01*
X114609087Y-103815029D01*
X114586550Y-103881164D01*
X114541499Y-103920202D01*
X114532182Y-103924949D01*
X114360213Y-104049890D01*
X114209890Y-104200213D01*
X114084951Y-104372179D01*
X113988444Y-104561585D01*
X113922753Y-104763760D01*
X113889500Y-104973713D01*
X113889500Y-105186286D01*
X113922754Y-105396244D01*
X113922754Y-105396247D01*
X113936491Y-105438523D01*
X113936925Y-105453732D01*
X113942244Y-105467990D01*
X113937902Y-105487949D01*
X113938486Y-105508364D01*
X113930399Y-105522447D01*
X113927395Y-105536264D01*
X113906245Y-105564519D01*
X113893787Y-105576978D01*
X113832465Y-105610465D01*
X113806102Y-105613300D01*
X109752766Y-105613300D01*
X109685727Y-105593615D01*
X109683875Y-105592402D01*
X109552185Y-105504409D01*
X109552172Y-105504402D01*
X109406501Y-105444064D01*
X109406489Y-105444061D01*
X109251845Y-105413300D01*
X109251842Y-105413300D01*
X109094158Y-105413300D01*
X109094155Y-105413300D01*
X108939510Y-105444061D01*
X108939498Y-105444064D01*
X108793827Y-105504402D01*
X108793814Y-105504409D01*
X108662711Y-105592010D01*
X108662707Y-105592013D01*
X108551213Y-105703507D01*
X108551210Y-105703511D01*
X108463609Y-105834614D01*
X108463602Y-105834627D01*
X108403264Y-105980298D01*
X108403261Y-105980310D01*
X108372500Y-106134953D01*
X108372500Y-106292646D01*
X108403261Y-106447289D01*
X108403264Y-106447301D01*
X108463602Y-106592972D01*
X108463609Y-106592985D01*
X108551210Y-106724088D01*
X108551213Y-106724092D01*
X108662707Y-106835586D01*
X108662711Y-106835589D01*
X108793814Y-106923190D01*
X108793827Y-106923197D01*
X108872894Y-106955947D01*
X108939503Y-106983537D01*
X109094153Y-107014299D01*
X109094156Y-107014300D01*
X109094158Y-107014300D01*
X109251844Y-107014300D01*
X109251845Y-107014299D01*
X109406497Y-106983537D01*
X109552179Y-106923194D01*
X109664875Y-106847893D01*
X109683875Y-106835198D01*
X109750553Y-106814320D01*
X109752766Y-106814300D01*
X113932474Y-106814300D01*
X113999513Y-106833985D01*
X114045268Y-106886789D01*
X114055212Y-106955947D01*
X114042959Y-106994592D01*
X114018411Y-107042771D01*
X113988444Y-107101585D01*
X113922753Y-107303760D01*
X113889500Y-107513713D01*
X113889500Y-107726286D01*
X113922753Y-107936239D01*
X113988444Y-108138414D01*
X114084951Y-108327820D01*
X114209890Y-108499786D01*
X114360213Y-108650109D01*
X114532182Y-108775050D01*
X114540946Y-108779516D01*
X114591742Y-108827491D01*
X114608536Y-108895312D01*
X114585998Y-108961447D01*
X114540946Y-109000484D01*
X114532182Y-109004949D01*
X114360213Y-109129890D01*
X114209890Y-109280213D01*
X114084951Y-109452179D01*
X113988444Y-109641585D01*
X113922753Y-109843760D01*
X113889500Y-110053713D01*
X113889500Y-110266286D01*
X113922753Y-110476239D01*
X113988444Y-110678414D01*
X114084951Y-110867820D01*
X114209890Y-111039786D01*
X114360213Y-111190109D01*
X114532182Y-111315050D01*
X114540946Y-111319516D01*
X114591742Y-111367491D01*
X114608536Y-111435312D01*
X114585998Y-111501447D01*
X114540946Y-111540484D01*
X114532182Y-111544949D01*
X114360213Y-111669890D01*
X114209890Y-111820213D01*
X114084951Y-111992179D01*
X113988444Y-112181585D01*
X113922753Y-112383760D01*
X113889500Y-112593713D01*
X113889500Y-112806286D01*
X113922753Y-113016239D01*
X113922753Y-113016241D01*
X113922754Y-113016243D01*
X113977431Y-113184522D01*
X113988444Y-113218414D01*
X114084951Y-113407820D01*
X114209890Y-113579786D01*
X114360213Y-113730109D01*
X114532182Y-113855050D01*
X114540946Y-113859516D01*
X114591742Y-113907491D01*
X114608536Y-113975312D01*
X114585998Y-114041447D01*
X114540946Y-114080484D01*
X114532182Y-114084949D01*
X114360213Y-114209890D01*
X114209890Y-114360213D01*
X114084951Y-114532179D01*
X113988444Y-114721585D01*
X113922753Y-114923760D01*
X113889500Y-115133713D01*
X113889500Y-115346286D01*
X113922754Y-115556244D01*
X113922754Y-115556247D01*
X113936491Y-115598523D01*
X113938486Y-115668364D01*
X113906241Y-115724522D01*
X111749384Y-117881381D01*
X111688061Y-117914866D01*
X111661703Y-117917700D01*
X104865719Y-117917700D01*
X104798680Y-117898015D01*
X104796828Y-117896802D01*
X104666785Y-117809909D01*
X104666772Y-117809902D01*
X104521101Y-117749564D01*
X104521089Y-117749561D01*
X104366445Y-117718800D01*
X104366442Y-117718800D01*
X104208758Y-117718800D01*
X104208755Y-117718800D01*
X104054110Y-117749561D01*
X104054098Y-117749564D01*
X103908427Y-117809902D01*
X103908414Y-117809909D01*
X103777311Y-117897510D01*
X103777307Y-117897513D01*
X103665813Y-118009007D01*
X103665810Y-118009011D01*
X103578209Y-118140114D01*
X103578202Y-118140127D01*
X103517864Y-118285798D01*
X103517861Y-118285810D01*
X103487100Y-118440453D01*
X103487100Y-118598146D01*
X103517861Y-118752789D01*
X103517864Y-118752801D01*
X103578202Y-118898472D01*
X103578209Y-118898485D01*
X103665810Y-119029588D01*
X103665813Y-119029592D01*
X103671496Y-119035275D01*
X103704981Y-119096598D01*
X103705432Y-119147147D01*
X103678200Y-119284053D01*
X103678200Y-119441746D01*
X103708961Y-119596389D01*
X103708964Y-119596401D01*
X103769302Y-119742072D01*
X103769309Y-119742085D01*
X103856910Y-119873188D01*
X103856913Y-119873192D01*
X103968407Y-119984686D01*
X103968411Y-119984689D01*
X104099514Y-120072290D01*
X104099527Y-120072297D01*
X104141335Y-120089614D01*
X104245203Y-120132637D01*
X104364119Y-120156291D01*
X104399853Y-120163399D01*
X104399856Y-120163400D01*
X104399858Y-120163400D01*
X104557544Y-120163400D01*
X104557545Y-120163399D01*
X104712197Y-120132637D01*
X104857879Y-120072294D01*
X104912363Y-120035889D01*
X104989575Y-119984298D01*
X105056253Y-119963420D01*
X105058466Y-119963400D01*
X107561655Y-119963400D01*
X107628694Y-119983085D01*
X107674449Y-120035889D01*
X107684393Y-120105047D01*
X107664757Y-120156291D01*
X107592109Y-120265014D01*
X107592102Y-120265027D01*
X107532032Y-120410052D01*
X107488191Y-120464456D01*
X107421897Y-120486521D01*
X107417471Y-120486600D01*
X102989297Y-120486600D01*
X102922258Y-120466915D01*
X102901616Y-120450281D01*
X102412533Y-119961198D01*
X102379048Y-119899875D01*
X102384032Y-119830183D01*
X102385636Y-119826107D01*
X102426937Y-119726397D01*
X102457700Y-119571742D01*
X102457700Y-119414058D01*
X102457700Y-119414055D01*
X102457699Y-119414053D01*
X102426937Y-119259403D01*
X102426935Y-119259398D01*
X102366597Y-119113727D01*
X102366590Y-119113714D01*
X102278989Y-118982611D01*
X102278986Y-118982607D01*
X102167492Y-118871113D01*
X102167488Y-118871110D01*
X102036385Y-118783509D01*
X102036372Y-118783502D01*
X101890701Y-118723164D01*
X101890691Y-118723161D01*
X101826462Y-118710385D01*
X101764551Y-118678000D01*
X101729977Y-118617284D01*
X101733718Y-118547514D01*
X101740467Y-118532852D01*
X101742273Y-118528491D01*
X101742277Y-118528485D01*
X101783200Y-118375757D01*
X101783200Y-118217643D01*
X101783200Y-113803643D01*
X101742277Y-113650916D01*
X101701214Y-113579792D01*
X101663224Y-113513990D01*
X101663221Y-113513986D01*
X101663220Y-113513984D01*
X101551416Y-113402180D01*
X101551415Y-113402179D01*
X101547085Y-113397849D01*
X101547074Y-113397839D01*
X101333757Y-113184522D01*
X101300272Y-113123199D01*
X101303507Y-113058523D01*
X101317246Y-113016243D01*
X101350500Y-112806287D01*
X101350500Y-112593713D01*
X101317246Y-112383757D01*
X101251557Y-112181588D01*
X101155051Y-111992184D01*
X101155049Y-111992181D01*
X101155048Y-111992179D01*
X101030109Y-111820213D01*
X100879786Y-111669890D01*
X100707820Y-111544951D01*
X100707115Y-111544591D01*
X100699054Y-111540485D01*
X100648259Y-111492512D01*
X100631463Y-111424692D01*
X100653999Y-111358556D01*
X100699054Y-111319515D01*
X100707816Y-111315051D01*
X100729789Y-111299086D01*
X100879786Y-111190109D01*
X100879788Y-111190106D01*
X100879792Y-111190104D01*
X101030104Y-111039792D01*
X101030106Y-111039788D01*
X101030109Y-111039786D01*
X101155048Y-110867820D01*
X101155047Y-110867820D01*
X101155051Y-110867816D01*
X101251557Y-110678412D01*
X101317246Y-110476243D01*
X101350500Y-110266287D01*
X101350500Y-110053713D01*
X101317246Y-109843757D01*
X101251557Y-109641588D01*
X101155051Y-109452184D01*
X101155049Y-109452181D01*
X101155048Y-109452179D01*
X101030109Y-109280213D01*
X100879786Y-109129890D01*
X100707817Y-109004949D01*
X100698504Y-109000204D01*
X100647707Y-108952230D01*
X100630912Y-108884409D01*
X100653449Y-108818274D01*
X100698507Y-108779232D01*
X100707555Y-108774622D01*
X100761716Y-108735270D01*
X100761717Y-108735270D01*
X100129408Y-108102962D01*
X100192993Y-108085925D01*
X100307007Y-108020099D01*
X100400099Y-107927007D01*
X100465925Y-107812993D01*
X100482962Y-107749409D01*
X101115270Y-108381717D01*
X101115270Y-108381716D01*
X101154622Y-108327554D01*
X101251095Y-108138217D01*
X101316757Y-107936130D01*
X101316757Y-107936127D01*
X101350000Y-107726246D01*
X101350000Y-107513753D01*
X101316757Y-107303872D01*
X101316757Y-107303869D01*
X101251095Y-107101782D01*
X101154624Y-106912449D01*
X101115270Y-106858282D01*
X101115269Y-106858282D01*
X100482962Y-107490590D01*
X100465925Y-107427007D01*
X100400099Y-107312993D01*
X100307007Y-107219901D01*
X100192993Y-107154075D01*
X100129409Y-107137037D01*
X100761716Y-106504728D01*
X100707550Y-106465375D01*
X100697954Y-106460486D01*
X100647157Y-106412512D01*
X100630361Y-106344692D01*
X100652897Y-106278556D01*
X100697954Y-106239514D01*
X100707554Y-106234622D01*
X100761716Y-106195270D01*
X100761717Y-106195270D01*
X100129408Y-105562962D01*
X100192993Y-105545925D01*
X100307007Y-105480099D01*
X100400099Y-105387007D01*
X100465925Y-105272993D01*
X100482962Y-105209409D01*
X101115270Y-105841717D01*
X101115270Y-105841716D01*
X101154622Y-105787554D01*
X101251095Y-105598217D01*
X101316757Y-105396130D01*
X101316757Y-105396127D01*
X101350000Y-105186246D01*
X101350000Y-104973753D01*
X101316757Y-104763872D01*
X101316757Y-104763869D01*
X101251095Y-104561782D01*
X101154624Y-104372449D01*
X101115270Y-104318282D01*
X101115269Y-104318282D01*
X100482962Y-104950590D01*
X100465925Y-104887007D01*
X100400099Y-104772993D01*
X100307007Y-104679901D01*
X100192993Y-104614075D01*
X100129409Y-104597037D01*
X100761716Y-103964728D01*
X100707547Y-103925373D01*
X100707547Y-103925372D01*
X100698500Y-103920763D01*
X100647706Y-103872788D01*
X100630912Y-103804966D01*
X100653451Y-103738832D01*
X100698508Y-103699793D01*
X100707816Y-103695051D01*
X100787007Y-103637515D01*
X100879786Y-103570109D01*
X100879788Y-103570106D01*
X100879792Y-103570104D01*
X101030104Y-103419792D01*
X101030106Y-103419788D01*
X101030109Y-103419786D01*
X101155048Y-103247820D01*
X101155047Y-103247820D01*
X101155051Y-103247816D01*
X101251557Y-103058412D01*
X101317246Y-102856243D01*
X101350500Y-102646287D01*
X101350500Y-102433713D01*
X101317246Y-102223757D01*
X101251557Y-102021588D01*
X101155051Y-101832184D01*
X101155049Y-101832181D01*
X101155048Y-101832179D01*
X101030109Y-101660213D01*
X100916569Y-101546673D01*
X100883084Y-101485350D01*
X100888068Y-101415658D01*
X100929940Y-101359725D01*
X100960915Y-101342810D01*
X101092331Y-101293796D01*
X101207546Y-101207546D01*
X101251278Y-101149127D01*
X101307210Y-101107258D01*
X101376901Y-101102274D01*
X101438224Y-101135759D01*
X102985139Y-102682674D01*
X102985149Y-102682685D01*
X102989479Y-102687015D01*
X102989480Y-102687016D01*
X103101284Y-102798820D01*
X103152845Y-102828588D01*
X103188095Y-102848939D01*
X103188097Y-102848941D01*
X103238213Y-102877876D01*
X103238215Y-102877877D01*
X103390942Y-102918800D01*
X103390943Y-102918800D01*
X111786934Y-102918800D01*
X111853973Y-102938485D01*
X111855825Y-102939698D01*
X111987514Y-103027690D01*
X111987527Y-103027697D01*
X112061681Y-103058412D01*
X112133203Y-103088037D01*
X112287853Y-103118799D01*
X112287856Y-103118800D01*
X112287858Y-103118800D01*
X112445544Y-103118800D01*
X112445545Y-103118799D01*
X112600197Y-103088037D01*
X112745879Y-103027694D01*
X112876989Y-102940089D01*
X112988489Y-102828589D01*
X113076094Y-102697479D01*
X113136437Y-102551797D01*
X113167200Y-102397142D01*
X113167200Y-102239458D01*
X113167200Y-102239455D01*
X113167199Y-102239453D01*
X113153213Y-102169140D01*
X113136437Y-102084803D01*
X113110253Y-102021588D01*
X113076097Y-101939127D01*
X113076090Y-101939114D01*
X112988489Y-101808011D01*
X112988486Y-101808007D01*
X112876992Y-101696513D01*
X112876988Y-101696510D01*
X112745885Y-101608909D01*
X112745872Y-101608902D01*
X112600201Y-101548564D01*
X112600189Y-101548561D01*
X112445545Y-101517800D01*
X112445542Y-101517800D01*
X112287858Y-101517800D01*
X112287855Y-101517800D01*
X112133210Y-101548561D01*
X112133198Y-101548564D01*
X111987527Y-101608902D01*
X111987514Y-101608909D01*
X111855825Y-101696902D01*
X111789147Y-101717780D01*
X111786934Y-101717800D01*
X103770097Y-101717800D01*
X103703058Y-101698115D01*
X103682416Y-101681481D01*
X101639290Y-99638355D01*
X101639288Y-99638352D01*
X101520417Y-99519481D01*
X101520416Y-99519480D01*
X101433604Y-99469360D01*
X101433604Y-99469359D01*
X101433599Y-99469357D01*
X101422047Y-99462687D01*
X101412495Y-99457172D01*
X101364281Y-99406602D01*
X101350499Y-99349787D01*
X101350499Y-99102129D01*
X101350498Y-99102123D01*
X101350497Y-99102116D01*
X101344091Y-99042517D01*
X101293796Y-98907669D01*
X101293749Y-98907607D01*
X101287165Y-98898810D01*
X101262748Y-98833346D01*
X101277600Y-98765073D01*
X101327005Y-98715668D01*
X101386432Y-98700500D01*
X113853568Y-98700500D01*
X113920607Y-98720185D01*
G37*
%TD.AperFunction*%
%TA.AperFunction,Conductor*%
G36*
X99534075Y-107812993D02*
G01*
X99599901Y-107927007D01*
X99692993Y-108020099D01*
X99807007Y-108085925D01*
X99870590Y-108102962D01*
X99238282Y-108735269D01*
X99238282Y-108735270D01*
X99292452Y-108774626D01*
X99292451Y-108774626D01*
X99301495Y-108779234D01*
X99352292Y-108827208D01*
X99369087Y-108895029D01*
X99346550Y-108961164D01*
X99301499Y-109000202D01*
X99292182Y-109004949D01*
X99120213Y-109129890D01*
X98969894Y-109280209D01*
X98969890Y-109280214D01*
X98924818Y-109342251D01*
X98869488Y-109384917D01*
X98799875Y-109390896D01*
X98738080Y-109358290D01*
X98703722Y-109297451D01*
X98700500Y-109269366D01*
X98700500Y-108501359D01*
X98720185Y-108434320D01*
X98772989Y-108388565D01*
X98834231Y-108377741D01*
X98884729Y-108381716D01*
X99517037Y-107749408D01*
X99534075Y-107812993D01*
G37*
%TD.AperFunction*%
%TA.AperFunction,Conductor*%
G36*
X99534075Y-105272993D02*
G01*
X99599901Y-105387007D01*
X99692993Y-105480099D01*
X99807007Y-105545925D01*
X99870590Y-105562962D01*
X99238282Y-106195269D01*
X99238282Y-106195270D01*
X99292452Y-106234626D01*
X99302048Y-106239516D01*
X99352844Y-106287491D01*
X99369638Y-106355312D01*
X99347100Y-106421447D01*
X99302051Y-106460483D01*
X99292440Y-106465380D01*
X99238282Y-106504727D01*
X99238282Y-106504728D01*
X99870591Y-107137037D01*
X99807007Y-107154075D01*
X99692993Y-107219901D01*
X99599901Y-107312993D01*
X99534075Y-107427007D01*
X99517037Y-107490591D01*
X98884728Y-106858282D01*
X98834230Y-106862257D01*
X98765852Y-106847893D01*
X98716095Y-106798842D01*
X98700500Y-106738639D01*
X98700500Y-105961359D01*
X98720185Y-105894320D01*
X98772989Y-105848565D01*
X98834231Y-105837741D01*
X98884729Y-105841716D01*
X99517037Y-105209408D01*
X99534075Y-105272993D01*
G37*
%TD.AperFunction*%
%TA.AperFunction,Conductor*%
G36*
X98905703Y-103336920D02*
G01*
X98924819Y-103357748D01*
X98969896Y-103419792D01*
X99120213Y-103570109D01*
X99292179Y-103695048D01*
X99292181Y-103695049D01*
X99292184Y-103695051D01*
X99301493Y-103699794D01*
X99352290Y-103747766D01*
X99369087Y-103815587D01*
X99346552Y-103881722D01*
X99301505Y-103920760D01*
X99292446Y-103925376D01*
X99292440Y-103925380D01*
X99238282Y-103964727D01*
X99238282Y-103964728D01*
X99870591Y-104597037D01*
X99807007Y-104614075D01*
X99692993Y-104679901D01*
X99599901Y-104772993D01*
X99534075Y-104887007D01*
X99517037Y-104950591D01*
X98884728Y-104318282D01*
X98834230Y-104322257D01*
X98765852Y-104307893D01*
X98716095Y-104258842D01*
X98700500Y-104198639D01*
X98700500Y-103430633D01*
X98720185Y-103363594D01*
X98772989Y-103317839D01*
X98842147Y-103307895D01*
X98905703Y-103336920D01*
G37*
%TD.AperFunction*%
%TA.AperFunction,Conductor*%
G36*
X116355269Y-103301716D02*
G01*
X116365770Y-103300890D01*
X116434148Y-103315254D01*
X116483905Y-103364305D01*
X116499500Y-103424508D01*
X116499500Y-104134310D01*
X116479815Y-104201349D01*
X116427011Y-104247104D01*
X116357853Y-104257048D01*
X116294297Y-104228023D01*
X116275185Y-104207199D01*
X116270111Y-104200216D01*
X116270105Y-104200209D01*
X116119786Y-104049890D01*
X115947817Y-103924949D01*
X115938504Y-103920204D01*
X115887707Y-103872230D01*
X115870912Y-103804409D01*
X115893449Y-103738274D01*
X115938507Y-103699232D01*
X115947555Y-103694622D01*
X116001716Y-103655270D01*
X116001717Y-103655270D01*
X115369408Y-103022962D01*
X115432993Y-103005925D01*
X115547007Y-102940099D01*
X115640099Y-102847007D01*
X115705925Y-102732993D01*
X115722962Y-102669408D01*
X116355269Y-103301716D01*
G37*
%TD.AperFunction*%
%TA.AperFunction,Conductor*%
G36*
X116397302Y-101289198D02*
G01*
X116401858Y-101288873D01*
X116428784Y-101303576D01*
X116456703Y-101316326D01*
X116459173Y-101320169D01*
X116463181Y-101322358D01*
X116477884Y-101349285D01*
X116494477Y-101375104D01*
X116495368Y-101381304D01*
X116496666Y-101383681D01*
X116499500Y-101410039D01*
X116499500Y-101655490D01*
X116479815Y-101722529D01*
X116427011Y-101768284D01*
X116365772Y-101779108D01*
X116355270Y-101778281D01*
X115722962Y-102410590D01*
X115705925Y-102347007D01*
X115640099Y-102232993D01*
X115547007Y-102139901D01*
X115432993Y-102074075D01*
X115369409Y-102057037D01*
X116039627Y-101386818D01*
X116100950Y-101353333D01*
X116127307Y-101350499D01*
X116137872Y-101350499D01*
X116197483Y-101344091D01*
X116332167Y-101293856D01*
X116362775Y-101291668D01*
X116393147Y-101287301D01*
X116397302Y-101289198D01*
G37*
%TD.AperFunction*%
%TD*%
M02*
